<svg xmlns="http://www.w3.org/2000/svg" width="38" height="38" viewBox="0 0 38 38">
  <g fill="none" fill-rule="evenodd">
    <circle cx="19" cy="19" r="19" fill="#000"/>
    <polygon fill="#FFF" points="15.18 5.432 22.2 5.432 22.2 6.632 19.392 6.632 19.392 14 17.988 14 17.988 6.632 15.18 6.632"/>
    <path fill="#FFF" d="M13.644,16.264 C14.952,16.264 15.984,16.684 16.74,17.536 C17.46,18.34 17.82,19.408 17.82,20.728 C17.82,22.048 17.46,23.104 16.74,23.908 C15.984,24.748 14.952,25.168 13.644,25.168 C12.324,25.168 11.292,24.736 10.548,23.896 C9.828,23.08 9.48,22.024 9.48,20.728 C9.48,19.42 9.828,18.364 10.548,17.548 C11.292,16.684 12.324,16.264 13.644,16.264 Z M13.644,17.5 C12.756,17.5 12.072,17.8 11.58,18.4 C11.112,18.976 10.884,19.744 10.884,20.728 C10.884,21.7 11.112,22.468 11.58,23.044 C12.06,23.632 12.756,23.932 13.644,23.932 C14.532,23.932 15.216,23.644 15.696,23.08 C16.164,22.516 16.404,21.736 16.404,20.728 C16.404,19.72 16.164,18.928 15.696,18.352 C15.216,17.776 14.532,17.5 13.644,17.5 Z M22.5571766,16.432 L26.1091766,16.432 C28.1731766,16.432 29.2171766,17.308 29.2171766,19.06 C29.2171766,20.824 28.1731766,21.712 26.0851766,21.712 L23.9611766,21.712 L23.9611766,25 L22.5571766,25 L22.5571766,16.432 Z M23.9611766,17.632 L23.9611766,20.512 L26.0011766,20.512 C26.6251766,20.512 27.0811766,20.392 27.3691766,20.176 C27.6571766,19.948 27.8011766,19.576 27.8011766,19.06 C27.8011766,18.544 27.6451766,18.184 27.3571766,17.968 C27.0691766,17.74 26.6131766,17.632 26.0011766,17.632 L23.9611766,17.632 Z"/>
    <path stroke="#FF9A20" stroke-width="1.2" d="M8.49435959,29 L30.6586707,29"/>
  </g>
</svg>
