<svg xmlns="http://www.w3.org/2000/svg" width="294" height="268" viewBox="0 0 294 268">
  <g fill="none" fill-rule="evenodd">
    <rect width="276" height="182" x="1.5" y="69.5" stroke="#0B1B33" stroke-width="3"/>
    <rect width="280" height="187" x="14" y="81" fill="#FF9A20" opacity=".1"/>
    <g transform="translate(85)">
      <path fill="#0B1B33" d="M109.663016,68.8401838 C109.663016,66.7507953 107.934444,65.057159 105.801958,65.057159 L93.0303175,65.057159 C88.9539153,60.7586301 84.1465079,57.1443986 78.7995767,54.3906714 C81.4314286,48.9476548 81.8143915,41.9980433 80.4874074,34.2506548 C81.840582,35.4795391 81.9709524,38.0274069 81.9709524,38.0274069 C84.0702646,32.6990102 80.5595767,30.1699606 80.5595767,30.1699606 C82.2741799,30.7658697 83.0325397,32.5171011 83.0325397,32.5171011 C82.7357143,27.9402912 79.9240212,26.0926879 78.5021693,25.4448863 C78.0499471,23.8652995 77.5569841,22.3552829 77.0209524,20.9193986 C78.1675132,20.0343739 78.9497354,18.3778036 78.9497354,16.4560681 C78.9497354,13.6111011 77.2543386,11.3050185 75.1643386,11.3050185 C74.2680423,11.3050185 73.4555556,11.7463904 72.8071958,12.4552086 C69.8814286,8.07285319 66.2339683,4.99009286 61.8089418,3.39510939 C61.6646032,3.33238212 61.4958201,3.27478708 61.3305291,3.22004328 C60.0017989,2.78836559 59.122381,2.61386972 58.7533862,2.5505722 C59.2044444,1.49504328 60.4970899,1.22189452 60.4970899,1.22189452 C58.4187302,0.758282946 56.3485185,1.56176229 56.3485185,1.56176229 C56.8461376,0.494828401 58.136455,0.126448236 58.136455,0.126448236 C55.3812169,-0.492270773 48.5513228,1.16087799 43.7968783,5.05738212 C40.7366667,6.90726642 38.0797884,9.57032427 35.8471958,12.8572334 C35.1598413,11.9014978 34.2047619,11.3050185 33.1443386,11.3050185 C31.0543386,11.3050185 29.3589418,13.6111011 29.3589418,16.4560681 C29.3589418,18.539754 30.2726984,20.3234896 31.5798942,21.1355226 C30.9385185,22.7989358 30.3786243,24.547316 29.8839153,26.3572829 C28.9655026,26.7290846 25.6986772,28.3805226 25.6940212,33.1597705 C25.6940212,33.1597705 26.2824339,31.5471094 27.8090476,30.9283904 C27.8090476,30.9283904 24.7593122,33.3730433 26.9802646,38.0678945 C26.9802646,38.0678945 26.9406878,35.6312251 28.2036508,34.4952912 C27.1769841,41.7676631 27.7054497,48.5610267 30.3239153,54.0000515 C24.6533862,56.7999689 19.5584656,60.5442168 15.2783598,65.057159 L3.86396825,65.057159 C1.73148148,65.057159 0.00291005291,66.7507953 0.00232804233,68.8401838 L109.663016,68.8401838 Z"/>
      <path fill="#FF9A20" d="M71.228699 59.940519L71.228699 67.4153289C71.228699 67.8287587 70.8317678 68.1315603 70.4226144 68.0300562L58.689863 65.1263537C58.08108 64.9758083 58.025789 64.149519 58.6095456 63.9219901L70.3428789 59.3514529C70.7671646 59.1855107 71.228699 59.4923041 71.228699 59.940519M37.8306878 59.940519L37.8306878 67.4153289C37.8306878 67.8287587 38.227619 68.1315603 38.6367725 68.0300562L50.3695238 65.1263537C50.9783069 64.9758083 51.0335979 64.149519 50.4498413 63.9219901L38.7165079 59.3514529C38.2922222 59.1855107 37.8306878 59.4923041 37.8306878 59.940519M53.2766667 67.3428595C52.4606878 67.3428595 51.7989418 66.6944876 51.7989418 65.895L51.7989418 63.6048843C51.7989418 62.8053967 52.4606878 62.1570248 53.2766667 62.1570248L55.9446032 62.1570248C56.760582 62.1570248 57.422328 62.8053967 57.422328 63.6048843L57.422328 65.895C57.422328 66.6944876 56.760582 67.3428595 55.9446032 67.3428595L53.2766667 67.3428595z"/>
      <path fill="#FEFEFE" d="M44.8803389,39.2706942 C44.8803389,39.2706942 41.3777992,41.2243636 41.3777992,47.2570165 C41.3777992,47.2632893 41.3789632,47.2684215 41.3789632,47.2746942 C41.7142013,47.4235289 42.3311325,47.4389256 43.514942,47.0380413 C47.0919791,45.8268347 50.3256299,45.5599587 54.4212383,45.4333636 C58.5162648,45.5599587 61.7109209,45.9283388 65.3263706,47.0380413 C66.4426669,47.3807603 67.0683283,47.393876 67.4192807,47.2798264 C67.4192807,47.271843 67.4210267,47.265 67.4210267,47.2570165 C67.4210267,41.2243636 63.918487,39.2706942 63.918487,39.2706942 L71.120868,33.1513636 C71.120868,33.1513636 73.8650479,30.090843 72.1498627,25.3104545 C70.4346775,20.5289256 66.1475875,20.5289256 66.1475875,20.5289256 L54.4835135,20.5289256 L54.3147304,20.5289256 L42.6506563,20.5289256 C42.6506563,20.5289256 38.3635664,20.5289256 36.6483812,25.3104545 C34.933778,30.090843 37.6773759,33.1513636 37.6773759,33.1513636 L44.8803389,39.2706942 Z"/>
      <path fill="#FEFEFE" d="M54.1659269,46.1935703 C54.1659269,46.1935703 48.8288899,46.0384629 43.4243396,48.7505621 C43.4243396,48.7505621 41.7906359,49.5717191 41.9111121,51.041248 C44.4958211,56.8754546 52.7917999,57.3470497 54.059419,57.3818348 C54.059419,57.3852563 54.1117999,57.3841158 54.1443925,57.3841158 C54.1764031,57.3841158 54.228202,57.3852563 54.228202,57.3852563 C55.5057153,57.3470497 63.9140221,56.8697522 66.4329639,50.9140827 C66.4539163,49.5226778 64.9069322,48.7505621 64.9069322,48.7505621 C59.8096835,45.9871406 54.1659269,46.1935703 54.1659269,46.1935703 Z"/>
      <path fill="#0B1B33" d="M70.0042328,24.5206612 L67.0528571,24.5206612 L64.0939153,24.5206612 L59.5158201,24.5206612 L57.5561905,24.5206612 L50.8601587,24.5206612 L49.4930159,24.5206612 L44.3230159,24.5206612 L41.3640741,24.5206612 L38.4126984,24.5206612 C38.4126984,24.5206612 38.5989418,28.5717025 39.4300529,30.9445041 C39.5522751,31.3653471 39.7274603,31.7702231 39.9631746,32.1488678 C41.58,34.7543306 45.321746,35.1426694 48.3196825,33.0162149 C50.599418,31.399562 51.7902116,28.7952397 51.5189947,26.493719 L52.8360847,26.493719 L53.9849735,28.779843 C54.062963,28.9360909 54.2724868,28.9360909 54.3504762,28.779843 L55.4993651,26.493719 L56.8973545,26.493719 C56.6267196,28.7952397 57.8175132,31.399562 60.0972487,33.0162149 C63.0951852,35.1426694 66.8369312,34.7543306 68.4537566,32.1488678 C68.6888889,31.7702231 68.8646561,31.3653471 68.9868783,30.9445041 C69.8179894,28.5717025 70.0042328,24.5206612 70.0042328,24.5206612"/>
      <polygon fill="#0B1B33" points="51.217 38.076 52.965 36.496 54.559 38.076 56.152 36.496 57.901 38.076 54.559 40.297"/>
    </g>
  </g>
</svg>
