<?xml version="1.0" encoding="UTF-8"?>
<svg width="41px" height="40px" viewBox="0 0 41 40" version="1.1" xmlns="http://www.w3.org/2000/svg" xmlns:xlink="http://www.w3.org/1999/xlink">
    <!-- Generator: Sketch 49.2 (51160) - http://www.bohemiancoding.com/sketch -->
    <title>013</title>
    <desc>Created with Sketch.</desc>
    <defs></defs>
    <g id="Page-1" stroke="none" stroke-width="1" fill="none" fill-rule="evenodd">
        <g id="猩租客移动端" transform="translate(-56.000000, -2572.000000)">
            <g id="Group-3-Copy" transform="translate(56.000000, 2572.000000)">
                <g id="Group-28" transform="translate(1.000000, 1.000000)">
                    <g id="Group-11" transform="translate(10.000000, 12.000000)" fill="#000000" fill-rule="nonzero">
                        <path d="M16.8543103,0 L1.87270115,0 C0.84004023,0 1.48508281e-16,0.853226457 1.48508281e-16,1.9020972 L1.48508281e-16,3.82973684 C1.48508281e-16,4.13515931 0.167472989,4.41449587 0.434466667,4.55416415 L8.99538621,9.03441823 C9.22603615,9.1551175 9.49990523,9.1551175 9.73055517,9.03441823 L15.1052075,6.22203166 C15.4992622,6.01583366 15.6541334,5.52421834 15.4511221,5.12397812 C15.2481108,4.7237379 14.7640932,4.5664356 14.3700385,4.7726336 L9.36350575,7.39263662 L1.60517241,3.33247429 L1.60517241,1.9020972 C1.60517241,1.75482053 1.72770057,1.63036903 1.87270115,1.63036903 L16.8543103,1.63036903 C16.9993109,1.63036903 17.1218391,1.75482053 17.1218391,1.9020972 L17.1218391,12.771224 C17.1218391,12.9185007 16.9993109,13.0429522 16.8543103,13.0429522 L1.87270115,13.0429522 C1.72579172,13.0409059 1.60718713,12.9204395 1.60517241,12.771224 L1.60517241,7.8062069 C1.60517241,7.35599292 1.24584233,6.99102238 0.802586207,6.99102238 C0.359330084,6.99102238 0,7.35599292 0,7.8062069 L0,12.771224 C0,13.8200948 0.84004023,14.6733212 1.87270115,14.6733212 L16.8543103,14.6733212 C17.8869713,14.6733212 18.7270115,13.8200948 18.7270115,12.771224 L18.7270115,1.9020972 C18.7270115,0.853226457 17.8869713,0 16.8543103,0 Z" id="Shape"></path>
                    </g>
                    <ellipse id="Oval-6" stroke="#000000" stroke-width="1.5" cx="19.5" cy="19" rx="19.5" ry="19"></ellipse>
                </g>
            </g>
        </g>
    </g>
</svg>