<?xml version="1.0" encoding="UTF-8"?>
<svg width="202px" height="202px" viewBox="0 0 202 202" version="1.1" xmlns="http://www.w3.org/2000/svg" xmlns:xlink="http://www.w3.org/1999/xlink">
    <!-- Generator: Sketch 49.2 (51160) - http://www.bohemiancoding.com/sketch -->
    <title>104</title>
    <desc>Created with Sketch.</desc>
    <defs></defs>
    <g id="Page-1" stroke="none" stroke-width="1" fill="none" fill-rule="evenodd">
        <g id="猩租客PC端官网" transform="translate(-721.000000, -6995.000000)">
            <g id="Group-57-Copy" transform="translate(721.000000, 6995.000000)">
                <g id="Group-58" transform="translate(1.000000, 1.000000)">
                    <g id="Group-5-Copy">
                        <circle id="Oval-3-Copy-5" fill-opacity="0.1" fill="#000000" cx="100" cy="100" r="100"></circle>
                        <circle id="Oval-3" stroke="#6F6F6F" stroke-width="2" cx="100" cy="100" r="100"></circle>
                    </g>
                    <g id="Group-93" transform="translate(55.000000, 56.000000)" fill="#C1C0BF" fill-rule="nonzero" stroke="#C0C0BE">
                        <path d="M94.5752901,79.6870523 L83.7974882,79.6870523 L83.7974882,36.3902973 C83.7974882,32.4060409 80.5641802,29.2186999 76.5225994,29.2186999 L61.9726048,29.2186999 L61.9726048,7.70315941 C61.9726048,3.45301508 58.2001952,0 53.6197297,0 L17.513806,0 C13.2029456,0 10.7779103,3.45301508 10.7779103,7.70315941 L10.7779103,79.6871592 L2.69420646,79.6871592 C1.07776934,79.6871592 0,81.0149952 0,82.3432589 C0,83.6715225 1.07776934,85 2.42503525,85 L94.5752901,85 C95.9226645,85 97,83.6715225 97,82.3432589 C97,81.0149952 95.9226645,79.6870523 94.5752901,79.6870523 Z M76.252669,34.5307923 C77.3310891,34.5307923 78.1389281,35.3278146 78.1389281,36.3902973 L78.1389281,79.6870523 L61.9726048,79.6870523 L61.9726048,34.5307923 L76.252669,34.5307923 Z M16.1669739,7.70315941 C16.1669739,6.37489576 16.1669739,5.31262696 17.513806,5.31262696 L53.6197297,5.31262696 C55.2360584,5.31262696 56.5834327,6.37500267 56.5834327,7.70315941 L56.5834327,79.6871592 L16.1669739,79.6871592 L16.1669739,7.70315941 Z" id="Shape"></path>
                        <path d="M33.0266293,22.8181818 L29.0582265,22.8181818 C28.5291133,22.8181818 28,22.3333496 28,21.8485174 L28,17.9696644 C28,17.4849298 28.5290068,17 29.0582265,17 L33.0266293,17 C33.5556361,17 34.0851753,17.4849298 34.0851753,17.9696644 L34.0851753,21.6059549 C34.3493593,22.3333496 33.820459,22.8181818 33.0266293,22.8181818 Z M33.0266293,35.9090909 L29.0582265,35.9090909 C28.5291133,35.9090909 28,35.4031753 28,34.8973616 L28,31.1026384 C28,30.5967229 28.5290068,30.0909091 29.0582265,30.0909091 L33.0266293,30.0909091 C33.5556361,30.0909091 34.0851753,30.5967229 34.0851753,31.1026384 L34.0851753,34.8973616 C34.3493593,35.4032771 33.820459,35.9090909 33.0266293,35.9090909 Z M33.0266293,49 L29.0582265,49 C28.5291133,49 28,48.4943987 28,47.988492 L28,44.1936316 C28,43.6877249 28.5290068,43.1818182 29.0582265,43.1818182 L33.0266293,43.1818182 C33.5556361,43.1818182 34.0851753,43.6877249 34.0851753,44.1936316 L34.0851753,47.988492 C34.3493593,48.4943987 33.820459,49 33.0266293,49 Z M46.8726331,22.8181818 L42.9041807,22.8181818 C42.3751673,22.8181818 41.8461538,22.3333496 41.8461538,21.8485174 L41.8461538,17.9696644 C41.8461538,17.4849298 42.3750608,17 42.9041807,17 L46.8726331,17 C47.401753,17 47.9312989,17.4849298 47.9312989,17.9696644 L47.9312989,21.6059549 C48.1955926,22.3333496 47.6664727,22.8181818 46.8726331,22.8181818 Z M46.8726331,35.9090909 L42.9041807,35.9090909 C42.3751673,35.9090909 41.8461538,35.4031753 41.8461538,34.8973616 L41.8461538,31.1026384 C41.8461538,30.5967229 42.3750608,30.0909091 42.9041807,30.0909091 L46.8726331,30.0909091 C47.401753,30.0909091 47.9312989,30.5967229 47.9312989,31.1026384 L47.9312989,34.8973616 C48.1955926,35.4032771 47.6664727,35.9090909 46.8726331,35.9090909 Z M46.8726331,49 L42.9041807,49 C42.3751673,49 41.8461538,48.4943987 41.8461538,47.988492 L41.8461538,44.1936316 C41.8461538,43.6877249 42.3750608,43.1818182 42.9041807,43.1818182 L46.8726331,43.1818182 C47.401753,43.1818182 47.9312989,43.6877249 47.9312989,44.1936316 L47.9312989,47.988492 C48.1955926,48.4943987 47.6664727,49 46.8726331,49 Z" id="Shape"></path>
                    </g>
                </g>
            </g>
        </g>
    </g>
</svg>