<svg xmlns="http://www.w3.org/2000/svg" xmlns:xlink="http://www.w3.org/1999/xlink" width="1032" height="692" viewBox="0 0 1032 692">
  <defs>
    <polygon id="114-a" points="0 0 39 0 39 52 0 52"/>
    <polygon id="114-c" points="0 0 39 0 39 52 0 52"/>
    <polygon id="114-e" points="0 0 39 0 39 52 0 52"/>
    <polygon id="114-g" points="0 0 39 0 39 52 0 52"/>
    <polygon id="114-i" points="0 0 31 0 31 54 0 54"/>
    <polygon id="114-k" points="0 .152 69.926 .152 69.926 47 0 47"/>
    <polygon id="114-m" points=".092 .116 39.926 .116 39.926 33.546 .092 33.546"/>
  </defs>
  <g fill="none" fill-rule="evenodd" transform="translate(1 1)">
    <path fill="#FFF" fill-opacity=".195" d="M33.6176787,71.9275835 C38.3089596,35.8573869 69.1512591,8 106.5,8 C124.734552,8 141.41821,14.6401612 154.264851,25.6343581 C165.441886,12.9801901 181.789006,5 200,5 C216.764198,5 231.948914,11.7625658 242.974989,22.7085383 C251.325828,9.08706284 266.351716,0 283.5,0 C299.505632,0 313.66229,7.91640204 322.268106,20.0473396 C331.349418,13.1163892 342.693992,9 355,9 C376.926984,9 395.801558,22.068924 404.259298,40.8423501 C409.49033,38.377815 415.334262,37 421.5,37 C443.867532,37 462,55.1324676 462,77.5 C462,87.1907734 458.596407,96.086595 452.919419,103.057266 C477.13418,113.921034 494,138.240905 494,166.5 C494,204.88379 462.88379,236 424.5,236 C409.338079,236 395.310131,231.144886 383.886038,222.90454 C374.232451,245.312625 351.948217,261 326,261 C312.425602,261 299.853924,256.706847 289.568685,249.40426 C274.439675,276.035704 245.817731,294 213,294 C187.208152,294 164.007863,282.904215 147.912198,265.225708 C142.290334,266.38884 136.466539,267 130.5,267 C99.8349315,267 72.9403782,250.856506 57.8513988,226.604575 C54.218349,227.516005 50.415696,228 46.5,228 C20.8187591,228 0,207.181241 0,181.5 C0,164.585193 9.03143795,149.779792 22.5351556,141.642955 C11.4337683,135.008986 4,122.872618 4,109 C4,90.8933615 16.663911,75.744538 33.6176787,71.9275835 Z" transform="matrix(-1 0 0 1 494 0)"/>
    <path stroke="#FFF" d="M33.6176787,71.9275835 C38.3089596,35.8573869 69.1512591,8 106.5,8 C124.734552,8 141.41821,14.6401612 154.264851,25.6343581 C165.441886,12.9801901 181.789006,5 200,5 C216.764198,5 231.948914,11.7625658 242.974989,22.7085383 C251.325828,9.08706284 266.351716,0 283.5,0 C299.505632,0 313.66229,7.91640204 322.268106,20.0473396 C331.349418,13.1163892 342.693992,9 355,9 C376.926984,9 395.801558,22.068924 404.259298,40.8423501 C409.49033,38.377815 415.334262,37 421.5,37 C443.867532,37 462,55.1324676 462,77.5 C462,87.1907734 458.596407,96.086595 452.919419,103.057266 C477.13418,113.921034 494,138.240905 494,166.5 C494,204.88379 462.88379,236 424.5,236 C409.338079,236 395.310131,231.144886 383.886038,222.90454 C374.232451,245.312625 351.948217,261 326,261 C312.425602,261 299.853924,256.706847 289.568685,249.40426 C274.439675,276.035704 245.817731,294 213,294 C187.208152,294 164.007863,282.904215 147.912198,265.225708 C142.290334,266.38884 136.466539,267 130.5,267 C99.8349315,267 72.9403782,250.856506 57.8513988,226.604575 C54.218349,227.516005 50.415696,228 46.5,228 C20.8187591,228 0,207.181241 0,181.5 C0,164.585193 9.03143795,149.779792 22.5351556,141.642955 C11.4337683,135.008986 4,122.872618 4,109 C4,90.8933615 16.663911,75.744538 33.6176787,71.9275835 Z" transform="matrix(-1 0 0 1 494 0)"/>
    <text fill="#FFF" font-family="PingFangSC-Semibold, PingFang SC" font-size="25" font-weight="500" letter-spacing="-.603">
      <tspan x="194" y="127">PC</tspan>
    </text>
    <text fill="#FFF" font-family="PingFangSC-Semibold, PingFang SC" font-size="25" font-weight="500" letter-spacing="-.603">
      <tspan x="68" y="207">Mobile</tspan>
    </text>
    <text fill="#FFF" font-family="PingFangSC-Semibold, PingFang SC" font-size="18" font-weight="500" letter-spacing="-.434">
      <tspan x="115" y="518">门锁zigbee</tspan>
    </text>
    <text fill="#FFF" font-family="PingFangSC-Semibold, PingFang SC" font-size="18" font-weight="500" letter-spacing="-.434">
      <tspan x="350" y="687">门锁zigbee</tspan>
    </text>
    <text fill="#FFF" font-family="PingFangSC-Semibold, PingFang SC" font-size="18" font-weight="500" letter-spacing="-.434">
      <tspan x="547" y="687">门锁zigbee</tspan>
    </text>
    <text fill="#FFF" font-family="PingFangSC-Semibold, PingFang SC" font-size="18" font-weight="500" letter-spacing="-.434">
      <tspan x="782" y="518">门锁zigbee</tspan>
    </text>
    <text fill="#FFF" font-family="PingFangSC-Semibold, PingFang SC" font-size="18" font-weight="500" letter-spacing="-.434">
      <tspan x="524" y="518">Zigbee-wife网关</tspan>
    </text>
    <text fill="#FFF" font-family="PingFangSC-Semibold, PingFang SC" font-size="25" font-weight="500" letter-spacing="-.603">
      <tspan x="272" y="207">Clound Server</tspan>
    </text>
    <text fill="#FFF" font-family="PingFangSC-Semibold, PingFang SC" font-size="25" font-weight="500" letter-spacing="-.603">
      <tspan x="905" y="213">Wife路由器</tspan>
    </text>
    <g transform="translate(421 112)">
      <path stroke="#FFF" stroke-dasharray="3" d="M6,6 L462.950694,6"/>
      <polygon fill="#FFF" points="475 6 463 12 463 0"/>
      <polygon fill="#FFF" points="12 6 0 12 0 0" transform="rotate(-180 6 6)"/>
    </g>
    <g transform="translate(148 150)">
      <path stroke="#FFF" stroke-dasharray="3" d="M6,6 L139.500936,6"/>
      <polygon fill="#FFF" points="149 6 137 12 137 0"/>
      <polygon fill="#FFF" points="12 6 0 12 0 0" transform="rotate(-180 6 6)"/>
    </g>
    <g transform="translate(249 60)">
      <path stroke="#FFF" stroke-dasharray="3" d="M0,6 L105.529617,6"/>
      <polygon fill="#FFF" points="115 6 103 12 103 0"/>
    </g>
    <g transform="translate(671 142)">
      <path stroke="#FFF" stroke-dasharray="3" d="M6,6 L212.950694,6 L212.950694,105" transform="matrix(-1 0 0 1 218.95 0)"/>
      <polygon fill="#FFF" points="12 106 0 112 0 100" transform="rotate(90 6 106)"/>
      <polygon fill="#FFF" points="225 6 213 12 213 0"/>
    </g>
    <g transform="translate(153 321)">
      <path stroke="#FFF" stroke-dasharray="3" d="M6,63 L6,0 L673,0 L673,63"/>
      <polygon fill="#FFF" points="12 68 0 74 0 62" transform="rotate(90 6 68)"/>
      <polygon fill="#FFF" points="679 68 667 74 667 62" transform="rotate(90 673 68)"/>
    </g>
    <path stroke="#FFF" stroke-dasharray="3" d="M392,559 L392,405 L446,405"/>
    <path stroke="#FFF" stroke-dasharray="3" d="M537,430 L537,405 L591,405" transform="matrix(-1 0 0 1 1128 0)"/>
    <path stroke="#FFF" stroke-dasharray="3" d="M590.333333,528.583281 L590.333333,558.62052"/>
    <g transform="translate(487 321)">
      <path stroke="#FFF" stroke-dasharray="3" d="M6,0 L6,45.5027472"/>
      <polygon fill="#FFF" points="12 48 0 54 0 42" transform="rotate(90 6 48)"/>
    </g>
    <polygon fill="#FFF" points="398 563 386 569 386 557" transform="rotate(90 392 563)"/>
    <polygon fill="#FFF" points="596 562 584 568 584 556" transform="rotate(90 590 562)"/>
    <g transform="translate(372 607)">
      <mask id="114-b" fill="#fff">
        <use xlink:href="#114-a"/>
      </mask>
      <path fill="#FFF" d="M19.5,0 C13.0185523,0 7.79984211,5.35254823 7.79984211,12.000218 L7.79984211,19.9996886 C3.50992895,19.9996886 0,23.6000374 0,27.9999689 L0,44.0001246 C0,48.4000561 3.50992895,52 7.79984211,52 L31.2001579,52 C35.4900711,52 39,48.4000561 39,44.0001246 L39,27.9999689 C39,23.6000374 35.4900711,19.9996886 31.2001579,19.9996886 L11.7001579,19.9996886 L11.7001579,12.000218 C11.7001579,7.44765731 15.0612741,3.99993772 19.5,3.99993772 C23.9387259,3.99993772 27.2998421,7.44765731 27.2998421,12.000218 L27.2998421,19.9996886 L31.2001579,19.9996886 L31.2001579,12.000218 C31.2001579,5.35254823 25.9814477,0 19.5,0 M19.5,29.9999377 C21.6449566,29.9999377 23.3999211,31.7999097 23.3999211,33.9998754 C23.3999211,35.3998536 22.6199368,36.7751359 21.4499605,37.3747217 L21.4499605,42.0001557 C21.4499605,43.200137 20.6699763,44.0001246 19.5,44.0001246 C18.3300237,44.0001246 17.5500395,43.200137 17.5500395,42.0001557 L17.5500395,37.3747217 C16.3800632,36.7751359 15.6000789,35.3998536 15.6000789,33.9998754 C15.6000789,31.7999097 17.3550434,29.9999377 19.5,29.9999377" mask="url(#114-b)"/>
    </g>
    <g transform="translate(138 438)">
      <mask id="114-d" fill="#fff">
        <use xlink:href="#114-c"/>
      </mask>
      <path fill="#FFF" d="M19.5,0 C13.0185523,0 7.79984211,5.35254823 7.79984211,12.000218 L7.79984211,19.9996886 C3.50992895,19.9996886 0,23.6000374 0,27.9999689 L0,44.0001246 C0,48.4000561 3.50992895,52 7.79984211,52 L31.2001579,52 C35.4900711,52 39,48.4000561 39,44.0001246 L39,27.9999689 C39,23.6000374 35.4900711,19.9996886 31.2001579,19.9996886 L11.7001579,19.9996886 L11.7001579,12.000218 C11.7001579,7.44765731 15.0612741,3.99993772 19.5,3.99993772 C23.9387259,3.99993772 27.2998421,7.44765731 27.2998421,12.000218 L27.2998421,19.9996886 L31.2001579,19.9996886 L31.2001579,12.000218 C31.2001579,5.35254823 25.9814477,0 19.5,0 M19.5,29.9999377 C21.6449566,29.9999377 23.3999211,31.7999097 23.3999211,33.9998754 C23.3999211,35.3998536 22.6199368,36.7751359 21.4499605,37.3747217 L21.4499605,42.0001557 C21.4499605,43.200137 20.6699763,44.0001246 19.5,44.0001246 C18.3300237,44.0001246 17.5500395,43.200137 17.5500395,42.0001557 L17.5500395,37.3747217 C16.3800632,36.7751359 15.6000789,35.3998536 15.6000789,33.9998754 C15.6000789,31.7999097 17.3550434,29.9999377 19.5,29.9999377" mask="url(#114-d)"/>
    </g>
    <g transform="translate(571 607)">
      <mask id="114-f" fill="#fff">
        <use xlink:href="#114-e"/>
      </mask>
      <path fill="#FFF" d="M19.5,0 C13.0185523,0 7.79984211,5.35254823 7.79984211,12.000218 L7.79984211,19.9996886 C3.50992895,19.9996886 0,23.6000374 0,27.9999689 L0,44.0001246 C0,48.4000561 3.50992895,52 7.79984211,52 L31.2001579,52 C35.4900711,52 39,48.4000561 39,44.0001246 L39,27.9999689 C39,23.6000374 35.4900711,19.9996886 31.2001579,19.9996886 L11.7001579,19.9996886 L11.7001579,12.000218 C11.7001579,7.44765731 15.0612741,3.99993772 19.5,3.99993772 C23.9387259,3.99993772 27.2998421,7.44765731 27.2998421,12.000218 L27.2998421,19.9996886 L31.2001579,19.9996886 L31.2001579,12.000218 C31.2001579,5.35254823 25.9814477,0 19.5,0 M19.5,29.9999377 C21.6449566,29.9999377 23.3999211,31.7999097 23.3999211,33.9998754 C23.3999211,35.3998536 22.6199368,36.7751359 21.4499605,37.3747217 L21.4499605,42.0001557 C21.4499605,43.200137 20.6699763,44.0001246 19.5,44.0001246 C18.3300237,44.0001246 17.5500395,43.200137 17.5500395,42.0001557 L17.5500395,37.3747217 C16.3800632,36.7751359 15.6000789,35.3998536 15.6000789,33.9998754 C15.6000789,31.7999097 17.3550434,29.9999377 19.5,29.9999377" mask="url(#114-f)"/>
    </g>
    <g transform="translate(806 438)">
      <mask id="114-h" fill="#fff">
        <use xlink:href="#114-g"/>
      </mask>
      <path fill="#FFF" d="M19.5,0 C13.0185523,0 7.79984211,5.35254823 7.79984211,12.000218 L7.79984211,19.9996886 C3.50992895,19.9996886 0,23.6000374 0,27.9999689 L0,44.0001246 C0,48.4000561 3.50992895,52 7.79984211,52 L31.2001579,52 C35.4900711,52 39,48.4000561 39,44.0001246 L39,27.9999689 C39,23.6000374 35.4900711,19.9996886 31.2001579,19.9996886 L11.7001579,19.9996886 L11.7001579,12.000218 C11.7001579,7.44765731 15.0612741,3.99993772 19.5,3.99993772 C23.9387259,3.99993772 27.2998421,7.44765731 27.2998421,12.000218 L27.2998421,19.9996886 L31.2001579,19.9996886 L31.2001579,12.000218 C31.2001579,5.35254823 25.9814477,0 19.5,0 M19.5,29.9999377 C21.6449566,29.9999377 23.3999211,31.7999097 23.3999211,33.9998754 C23.3999211,35.3998536 22.6199368,36.7751359 21.4499605,37.3747217 L21.4499605,42.0001557 C21.4499605,43.200137 20.6699763,44.0001246 19.5,44.0001246 C18.3300237,44.0001246 17.5500395,43.200137 17.5500395,42.0001557 L17.5500395,37.3747217 C16.3800632,36.7751359 15.6000789,35.3998536 15.6000789,33.9998754 C15.6000789,31.7999097 17.3550434,29.9999377 19.5,29.9999377" mask="url(#114-h)"/>
    </g>
    <g transform="translate(913 68)">
      <path fill="#FFF" d="M111.274611,80.5656251 C111.271857,79.0483958 110.035289,77.8188578 108.510234,77.8168028 L9.49389675,77.8168028 C7.96815339,77.8188578 6.73227372,79.0483958 6.7308967,80.5656251 L6.7308967,88.6572866 C6.73227372,90.1752009 7.96815339,91.4054239 9.49389675,91.4074788 L108.515742,91.4074788 C109.254516,91.4088488 109.963684,91.1156776 110.483511,90.5937233 C111.000583,90.0813587 111.28907,89.3840497 111.286316,88.6572866 L111.274611,80.5656251 Z M118,80.5656251 L118,88.6572866 C117.999311,93.8720346 113.75119,98.0983574 108.510234,98.0990424 L108.467547,98.0990424 C108.753968,99.9471168 107.478843,101.676005 105.621237,101.960271 C105.450485,101.986985 105.277669,102 105.104852,102 L101.394459,102 C99.5148205,101.999315 97.9918312,100.482771 97.9925197,98.6127769 C97.9925197,98.4408471 98.00629,98.2689173 98.0324534,98.0990424 L18.4459343,98.0990424 C18.7316669,99.9471168 17.4572305,101.676005 15.5989357,101.960271 C15.4281847,101.986985 15.2560566,102 15.08324,102 L11.3687159,102 C9.48838865,102 7.96471082,100.483456 7.96539934,98.6134619 C7.96539934,98.4024883 7.98467768,98.1921996 8.02392289,97.9860208 C3.4074476,97.2626826 0.00481958643,93.3076116 0,88.6572866 L0,80.5656251 C0.00688512347,75.3549869 4.25156374,71.132089 9.48907716,71.1252392 L15.587231,71.1252392 L15.5734608,29.2956032 L25.0618494,29.2956032 L25.0763082,71.1293491 L36.3782383,71.1293491 L36.3637796,28.9955822 L45.8521682,28.9955822 L45.866627,71.132774 L108.515742,71.132774 C113.748436,71.1430487 117.988295,75.3597818 118,80.5656251 Z M45.8487272,24.1267487 L45.8487257,9.71135757 C45.8507912,7.11186081 43.7336157,5.00280928 41.1207114,5.00006936 L41.0993675,5.00006936 C39.8393899,4.99321957 38.6303622,5.4939395 37.7483779,6.38989254 C36.8540004,7.2748859 36.3548289,8.48044962 36.3610255,9.73533185 L36.3609685,24.1267487 L45.8487272,24.1267487 Z M15.5706365,24.4349894 L15.5707067,10.0428876 C15.5638216,8.78800536 16.0636816,7.58244164 16.9580591,6.69744828 C17.8400434,5.80218022 19.0490711,5.30077531 20.3090487,5.30762511 C22.9226416,5.2980354 25.0487677,7.39818219 25.0577183,9.99767895 L25.0577183,10.0189133 L25.0577183,24.4349894 L15.5706365,24.4349894 Z"/>
      <path fill="#FF9A20" d="M79.6527371,6.87254453 C81.3694075,8.61808313 82.5352162,10.0291801 83.7426123,11.8788891 C84.3705128,12.8417794 84.9520536,13.8327683 85.4865531,14.8518559 C85.7510758,15.3562596 86.0040085,15.8668314 86.2453514,16.3835711 C86.3653411,16.6412557 86.4819219,16.9003109 86.5964575,17.1600514 C86.4723773,16.8523377 86.5023747,16.9249828 86.6844045,17.3773014 C87.50797,19.4716736 88.1426881,21.6359496 88.5803777,23.8447721 C88.6880957,24.393037 88.7821785,24.9447287 88.8612626,25.4991616 C88.7644527,24.8474116 88.9539819,26.3667909 88.9682988,26.5113958 C89.0691992,27.6223177 89.1196494,28.7373516 89.1196494,29.8558122 C89.1196494,30.9735874 89.0691992,32.0886212 88.9682988,33.2002285 C88.9553454,33.3414067 88.7658163,34.864898 88.8612626,34.2124627 C88.7801332,34.765525 88.6860504,35.3172166 88.5803777,35.8668522 C88.1426881,38.0749894 87.50797,40.2399507 86.6844045,42.3336376 C86.5023747,42.7866415 86.4723773,42.8592866 86.5964575,42.5515729 C86.4819219,42.8106281 86.3653411,43.0696833 86.2453514,43.3273678 C86.0040085,43.8441076 85.7510758,44.3546793 85.4865531,44.8597684 C84.9527354,45.8774853 84.3718763,46.8684742 83.7426123,47.8327352 C82.5352162,49.6831295 81.368044,51.0935412 79.6527371,52.8383944 C76.0332759,56.5199937 81.6823351,62.2034455 85.3038415,58.5191049 C97.1944089,46.4209529 100.299823,28.1589321 93.324742,12.7184198 C91.3892268,8.43372904 88.5885588,4.53076777 85.3038415,1.19389008 C81.6836986,-2.48976519 76.0353212,3.19094524 79.6527371,6.87460052 L79.6527371,6.87254453 Z M63.0055338,84.6247415 C63.0055338,82.7599553 61.5022541,81.2487999 59.6478683,81.2487999 C57.7934824,81.2487999 56.289521,82.7599553 56.289521,84.6247415 C56.289521,86.4888424 57.7934824,87.9999977 59.6478683,87.9999977 C61.4968,87.9897178 62.9925803,86.4840451 63.0000797,84.6247415 L63.0055338,84.6247415 Z M36.4625914,87.5469938 C38.0674532,86.614258 38.6155879,84.5514111 37.6870314,82.9388267 C36.7598385,81.3269277 34.7070607,80.7759214 33.1035624,81.7079719 C31.4993823,82.6407076 30.9512476,84.7035546 31.8791223,86.316139 C32.4777071,87.3564717 33.5821575,87.9979418 34.7779637,87.9999977 C35.3697309,88.0006831 35.9499082,87.8451129 36.4625914,87.5483645 L36.4625914,87.5469938 Z M22.3549422,87.9999977 C20.4991928,87.9979418 18.9972767,86.4840451 19.0000037,84.6185735 C19.002049,82.7544726 20.5080557,81.244688 22.3638051,81.2460586 C24.2181909,81.2487999 25.7207888,82.7626966 25.7187435,84.6274828 C25.71738,85.8322951 25.0772078,86.9445877 24.0402516,87.5469938 C23.5282503,87.8444276 22.9460277,88.0006831 22.3549422,87.9999977 Z"/>
      <path fill="#FF9A20" d="M70.1910291,15.9171917 C66.4794494,12.2022818 72.2937898,6.49042692 76.0067728,10.2074034 C86.6644091,20.8733899 86.6644091,38.1260572 76.0067728,48.7927326 C72.2923866,52.5103979 66.4808526,46.79441 70.1910291,43.0829442 C71.3129224,41.9608251 71.9394708,41.2210118 72.6677543,40.1202467 C73.0683804,39.5154459 73.4388367,38.8927352 73.7791233,38.2528036 C74.0317072,37.80988 74.2541213,37.3518019 74.4456641,36.8806358 C74.9634611,35.5635753 75.360579,34.2031178 75.6342116,32.8164844 C75.8299641,31.7212301 75.9218765,30.6108212 75.9085457,29.4997236 C75.9085457,28.7977964 75.8769727,28.0993134 75.8131252,27.4008304 C75.7941814,27.1934898 75.6959543,26.4529877 75.7801489,27.0116363 C75.7282289,26.6644613 75.6629781,26.3193529 75.5921143,25.9749332 C75.3212882,24.6592503 74.9382027,23.3690544 74.4456641,22.1181224 C73.6759849,20.1473534 71.9654308,17.6937081 70.1910291,15.9171917"/>
      <path fill="#FF9A20" d="M61.2628468,25.8965885 C63.5499415,28.2603601 63.5652073,31.5986571 61.2628468,33.9761159 C57.6448516,37.708603 63.3882628,43.3901409 67.0145848,39.6487572 C72.3284717,34.2348031 72.3284717,25.6379012 67.0145848,20.2239472 C63.393814,16.4839321 57.6434638,22.1641014 61.2628468,25.8965885 M47.417458,88 C45.5300497,88 44,86.4909912 44,84.6295381 C44,82.7680851 45.5300497,81.2583919 47.417458,81.2583919 C49.3055602,81.2583919 50.8356099,82.7680851 50.8356099,84.6295381 C50.8328343,86.4903068 49.3041724,87.9979469 47.417458,88"/>
    </g>
    <path fill="#FFF" d="M580.106882 489.57186L585.553249 489.57186 585.553249 464.341381 580.106882 464.341381 580.106882 489.57186zM589.077662 481.161827L593.082661 481.161827 593.082661 475.290457 589.077662 475.290457 589.077662 481.161827zM596.60669 491L596.60669 464.341381 601.73318 464.341381 601.73318 475.131648 607.179546 475.131648 596.60669 491zM624 472.592985C624 477.353453 620.155325 481.161827 615.349481 481.161827L607.500192 481.161827 611.504806 475.290457 615.509804 475.290457C616.951557 475.290457 618.232987 474.021126 618.232987 472.592985L618.232987 463.548097C618.232987 462.119957 616.951557 460.850245 615.509804 460.850245L566.650519 460.850245C565.208766 460.850245 563.926951 462.119957 563.926951 463.548097L563.926951 472.592985C563.926951 474.021126 565.208766 475.290457 566.650519 475.290457L576.582468 475.290457 576.582468 481.161827 566.650519 481.161827C561.844675 481.161827 558 477.353453 558 472.592985L558 463.548097C558 458.787629 561.844675 454.979255 566.650519 454.979255L580.106882 454.979255 580.106882 450.536025 574.660131 450.536025 585.39331 438 585.39331 455.137684 596.60669 455.137684 596.60669 438.158809 601.73318 438.158809 601.73318 454.979255 615.349481 454.979255C620.155325 454.979255 624 458.787629 624 463.548097L624 472.592985zM184.425995 82.2173833L231.318092 82.2173833 231.318092 50.2694636 184.425995 50.2694636 184.425995 82.2173833zM210.830839 86.4082518L205.169161 86.4082518C204.851639 86.4082518 204.595726 86.0339911 204.595726 85.5788091 204.595726 85.1151091 204.851639 84.7408483 205.169161 84.7408483L210.830839 84.7408483C211.148888 84.7408483 211.404274 85.1151091 211.404274 85.5788091 211.404274 86.0339911 211.148888 86.4082518 210.830839 86.4082518zM236.106718 85.3200741L236.106718 47.5586019C236.106718 46.1504658 235.066743 45 233.778753 45L181.965861 45C180.677871 45 179.637369 46.1414154 179.637369 47.5586019L179.637369 85.3200741 172 85.3200741 172 88.4408657C172 89.8500665 173.040502 91 174.327965 91L241.672035 91C242.959498 91 244 89.8585846 244 88.4408657L244 85.3200741 236.106718 85.3200741z"/>
    <g transform="translate(92 120)">
      <mask id="114-j" fill="#fff">
        <use xlink:href="#114-i"/>
      </mask>
      <path fill="#FFF" d="M3.44454842,43.8751146 L27.5549837,43.8751146 L27.5549837,8.43732808 L3.44454842,8.43732808 L3.44454842,43.8751146 Z M15.5131007,50.6340544 C14.5913729,50.6340544 13.7679003,49.8840289 13.7679003,48.938245 C13.7679003,47.9920026 14.5913729,47.2383095 15.5131007,47.2383095 C16.4853598,47.2383095 17.234907,47.9920026 17.234907,48.938245 C17.234907,49.8840289 16.4853598,50.6340544 15.5131007,50.6340544 Z M12.0559195,3.37511461 L20.6668226,3.37511461 C21.6184949,3.37511461 22.3699137,3.7515027 22.3699137,4.21958094 C22.3699137,4.68628383 21.4725157,5.06267192 20.6668226,5.06267192 L10.3331774,5.06267192 C9.46946692,5.06267192 8.6361688,4.68628383 8.6361688,4.21958094 C8.6361688,3.7515027 9.47835668,3.37511461 10.3331774,3.37511461 L12.0559195,3.37511461 Z M3.44454842,0.000458450776 C1.77280548,0.000458450776 0,1.72927633 0,3.37511461 L0,50.6253438 C0,52.2776004 1.80976817,54 3.44454842,54 L27.5549837,54 C29.0975912,54 31,52.2688899 31,50.6253438 L31,3.37511461 C31,1.72056576 29.2239193,0 27.5549837,0 L3.44454842,0.000458450776 Z" mask="url(#114-j)"/>
    </g>
    <g transform="translate(319 108)">
      <g transform="translate(0 19)">
        <mask id="114-l" fill="#fff">
          <use xlink:href="#114-k"/>
        </mask>
        <path fill="#FFF" d="M53.9107222,14.7924107 C51.9218333,14.7924107 49.9835,15.1521845 48.1473889,15.8711726 C47.6885,7.138125 40.4462778,0.152470238 31.6223889,0.152470238 C22.4923889,0.152470238 15.0462778,7.65176786 15.0462778,16.8469821 C15.0462778,17.8227917 15.1485,18.8506369 15.3012778,19.8264464 C14.6890556,19.7749702 14.1279444,19.723494 13.5157222,19.723494 C6.06961111,19.723494 0.000166666667,25.8362917 0.000166666667,33.3361488 C0.000166666667,40.8874821 6.06961111,47.0002798 13.5157222,47.0002798 L53.9107222,47.0002798 C62.7346111,47.0002798 69.9257222,39.757244 69.9257222,30.8703274 C69.9257222,21.9839702 62.7346111,14.7924107 53.9107222,14.7924107" mask="url(#114-l)"/>
      </g>
      <g transform="translate(30)">
        <mask id="114-n" fill="#fff">
          <use xlink:href="#114-m"/>
        </mask>
        <path fill="#FF9A20" d="M3.15227778,11.9981065 L3.15227778,3.53978387 C3.15227778,3.33852581 3.35616667,3.13726774 3.56005556,3.13726774 L36.4578333,3.13726774 C36.6617222,3.13726774 36.8661667,3.33852581 36.8661667,3.53978387 L36.8661667,11.9981065 L3.15227778,11.9981065 Z M36.4578333,0.116203226 L3.56005556,0.116203226 C1.67338889,0.116203226 0.0917222222,1.67746129 0.0917222222,3.53978387 L0.0917222222,13.5083645 C0.0917222222,14.3638484 0.755611111,15.0186226 1.62227778,15.0186226 L36.8661667,15.0186226 L36.8661667,23.3760419 L21.1056111,23.3760419 C20.2383889,23.3760419 19.5756111,24.0302677 19.5756111,24.8863 C19.5756111,25.7417839 20.2383889,26.3971065 21.1056111,26.3971065 L36.8661667,26.3971065 L36.8661667,32.0356226 C36.8661667,32.8916548 37.5289444,33.5458806 38.3956111,33.5458806 C39.2628333,33.5458806 39.9256111,32.8916548 39.9256111,32.0356226 L39.9256111,3.53978387 C39.9256111,1.67746129 38.3450556,0.116203226 36.4578333,0.116203226 Z" mask="url(#114-n)"/>
      </g>
      <path fill="#FF9A20" d="M63.5276664 7L58.4723336 7C57.6377974 7 57 7.64978214 57 8.5 57 9.3496732 57.6377974 10 58.4723336 10L63.5276664 10C64.3622026 10 65 9.3496732 65 8.5 65 7.64978214 64.3622026 7 63.5276664 7M63.5276664 21C64.3622026 21 65 20.3502179 65 19.5 65 18.6503268 64.3622026 18 63.5276664 18L58.4723336 18C57.6377974 18 57 18.6503268 57 19.5 57 20.3502179 57.6377974 21 58.4723336 21L63.5276664 21z"/>
    </g>
    <g fill="#FF9A20" transform="translate(458 381)">
      <path d="M22.9547488,9.7847229 C21.9011053,8.7384257 20.1922596,8.7384257 19.1380377,9.7847229 C10.9540838,17.911041 10.9540838,31.087954 19.1374594,39.2142722 C19.1380377,39.2148464 19.1380377,39.2148464 19.1380377,39.2148464 C20.1922596,40.2617179 21.9011053,40.2617179 22.9547488,39.2148464 C24.0083924,38.1685492 24.0083924,36.4716182 22.9547488,35.4247468 C16.8884913,29.4007854 16.8884913,19.5987839 22.9547488,13.5748225 C24.0083924,12.5279511 24.0089707,10.8315944 22.9547488,9.7847229 M34.4152914,27.6659535 C32.6543997,27.6659535 31.2271811,26.2486859 31.2271811,24.5000718 C31.2271811,22.7520319 32.6543997,21.3347643 34.4152914,21.3347643 C36.1756049,21.3347643 37.6028235,22.7520319 37.6028235,24.5000718 C37.6010886,26.2475374 36.1750266,27.6642307 34.4152914,27.6659535 M34.4152914,15.9752189 C29.6738953,15.9752189 25.8300046,19.7923087 25.8300046,24.5000718 C25.8300046,29.2084092 29.6738953,33.0254989 34.4152914,33.0254989 C39.1566876,33.0254989 43,29.2084092 43,24.5000718 C42.9942171,19.7946057 39.1543744,15.9803873 34.4152914,15.9752189"/>
      <path d="M49.5819333,9.83424235 C48.5191,8.78391294 46.79535,8.78391294 45.7319333,9.83424235 C44.6691,10.8845718 44.6691,12.5880424 45.7319333,13.6389482 C51.8616,19.6953482 51.8616,29.5161012 45.7325167,35.5730776 L45.7319333,35.5730776 C44.6691,36.6239835 44.6691,38.3274541 45.7319333,39.3777835 C46.79535,40.4286894 48.5191,40.4286894 49.5819333,39.3777835 C57.8372667,31.2201482 57.8372667,17.9930306 49.5825167,9.83481882 C49.5819333,9.83481882 49.5819333,9.83424235 49.5819333,9.83424235 M5.45451667,24.6063012 C5.45451667,17.1271718 8.4021,10.09596 13.7530167,4.80684235 C14.8164333,3.75651294 14.8170167,2.05304235 13.7541833,1.00156 C12.6907667,-0.0499223529 10.9670167,-0.0499223529 9.90301667,1.00098353 C-3.2879,14.0188424 -3.30306667,35.1389953 9.86976667,48.1753012 C9.88085,48.1862541 9.89193333,48.1972071 9.90301667,48.20816 C10.9664333,49.2590659 12.6896,49.2590659 13.7530167,48.20816 C14.81585,47.1578306 14.81585,45.45436 13.7530167,44.4040306 C8.4021,39.1172188 5.45451667,32.0860071 5.45451667,24.6063012"/>
      <path d="M66.1371346,12.0472553 C64.4600192,7.90877294 61.96425,4.15191412 58.79925,1.00092588 C57.7480962,-0.04998 56.0432885,-0.04998 54.9921346,1.00092588 C53.9404038,2.05125529 53.9404038,3.75472588 54.9921346,4.80505529 C60.28425,10.0959024 63.1994423,17.1276906 63.1994423,24.6062435 C63.1994423,32.0859494 60.28425,39.1171612 54.9921346,44.4057024 C53.9398269,45.4566082 53.93925,47.1600788 54.9909808,48.2109847 C56.0421346,49.2624671 57.7475192,49.2630435 58.79925,48.2121376 C68.2879038,38.7217024 71.1765577,24.4817259 66.1359808,12.0489847 L66.1371346,12.0472553 Z"/>
    </g>
    <g fill="#FF9A20" transform="translate(642 254)">
      <path d="M22.9547488,9.7847229 C21.9011053,8.7384257 20.1922596,8.7384257 19.1380377,9.7847229 C10.9540838,17.911041 10.9540838,31.087954 19.1374594,39.2142722 C19.1380377,39.2148464 19.1380377,39.2148464 19.1380377,39.2148464 C20.1922596,40.2617179 21.9011053,40.2617179 22.9547488,39.2148464 C24.0083924,38.1685492 24.0083924,36.4716182 22.9547488,35.4247468 C16.8884913,29.4007854 16.8884913,19.5987839 22.9547488,13.5748225 C24.0083924,12.5279511 24.0089707,10.8315944 22.9547488,9.7847229 M34.4152914,27.6659535 C32.6543997,27.6659535 31.2271811,26.2486859 31.2271811,24.5000718 C31.2271811,22.7520319 32.6543997,21.3347643 34.4152914,21.3347643 C36.1756049,21.3347643 37.6028235,22.7520319 37.6028235,24.5000718 C37.6010886,26.2475374 36.1750266,27.6642307 34.4152914,27.6659535 M34.4152914,15.9752189 C29.6738953,15.9752189 25.8300046,19.7923087 25.8300046,24.5000718 C25.8300046,29.2084092 29.6738953,33.0254989 34.4152914,33.0254989 C39.1566876,33.0254989 43,29.2084092 43,24.5000718 C42.9942171,19.7946057 39.1543744,15.9803873 34.4152914,15.9752189"/>
      <path d="M49.5819333,9.83424235 C48.5191,8.78391294 46.79535,8.78391294 45.7319333,9.83424235 C44.6691,10.8845718 44.6691,12.5880424 45.7319333,13.6389482 C51.8616,19.6953482 51.8616,29.5161012 45.7325167,35.5730776 L45.7319333,35.5730776 C44.6691,36.6239835 44.6691,38.3274541 45.7319333,39.3777835 C46.79535,40.4286894 48.5191,40.4286894 49.5819333,39.3777835 C57.8372667,31.2201482 57.8372667,17.9930306 49.5825167,9.83481882 C49.5819333,9.83481882 49.5819333,9.83424235 49.5819333,9.83424235 M5.45451667,24.6063012 C5.45451667,17.1271718 8.4021,10.09596 13.7530167,4.80684235 C14.8164333,3.75651294 14.8170167,2.05304235 13.7541833,1.00156 C12.6907667,-0.0499223529 10.9670167,-0.0499223529 9.90301667,1.00098353 C-3.2879,14.0188424 -3.30306667,35.1389953 9.86976667,48.1753012 C9.88085,48.1862541 9.89193333,48.1972071 9.90301667,48.20816 C10.9664333,49.2590659 12.6896,49.2590659 13.7530167,48.20816 C14.81585,47.1578306 14.81585,45.45436 13.7530167,44.4040306 C8.4021,39.1172188 5.45451667,32.0860071 5.45451667,24.6063012"/>
      <path d="M66.1371346,12.0472553 C64.4600192,7.90877294 61.96425,4.15191412 58.79925,1.00092588 C57.7480962,-0.04998 56.0432885,-0.04998 54.9921346,1.00092588 C53.9404038,2.05125529 53.9404038,3.75472588 54.9921346,4.80505529 C60.28425,10.0959024 63.1994423,17.1276906 63.1994423,24.6062435 C63.1994423,32.0859494 60.28425,39.1171612 54.9921346,44.4057024 C53.9398269,45.4566082 53.93925,47.1600788 54.9909808,48.2109847 C56.0421346,49.2624671 57.7475192,49.2630435 58.79925,48.2121376 C68.2879038,38.7217024 71.1765577,24.4817259 66.1359808,12.0489847 L66.1371346,12.0472553 Z"/>
    </g>
    <g fill="#FF9A20" transform="translate(137 400.678)">
      <path d="M14.1003,6.372 C13.4393,5.712 12.3683,5.712 11.7073,6.372 C6.5783,11.502 6.5783,19.819 11.7073,24.949 C12.3683,25.61 13.4393,25.61 14.1003,24.949 C14.7603,24.289 14.7603,23.218 14.1003,22.558 C10.2973,18.755 10.2973,12.567 14.1003,8.765 C14.7603,8.104 14.7613,7.033 14.1003,6.373 L14.1003,6.372 Z M21.2843,17.659 C20.1803,17.659 19.2853,16.765 19.2853,15.661 C19.2853,14.558 20.1803,13.663 21.2843,13.663 C22.3873,13.663 23.2823,14.558 23.2823,15.661 C23.2803,16.765 22.3873,17.658 21.2843,17.659 Z M21.2843,10.28 C18.3113,10.28 15.9023,12.689 15.9023,15.661 C15.9023,18.634 18.3113,21.043 21.2843,21.043 C24.2553,21.043 26.6653,18.634 26.6653,15.661 C26.6613,12.69 24.2543,10.283 21.2843,10.28 Z"/>
      <path d="M30.8107,6.372 C30.1497,5.712 29.0787,5.712 28.4177,6.372 C27.7577,7.033 27.7577,8.104 28.4177,8.765 C32.2277,12.573 32.2277,18.748 28.4187,22.558 L28.4177,22.558 C27.7577,23.218 27.7577,24.289 28.4177,24.949 C29.0787,25.61 30.1497,25.61 30.8107,24.949 C35.9407,19.82 35.9407,11.503 30.8107,6.373 L30.8107,6.372 Z M3.3897,15.661 C3.3897,10.958 5.2207,6.537 8.5457,3.211 C9.2067,2.551 9.2077,1.479 8.5467,0.818 C7.8867,0.157 6.8147,0.157 6.1537,0.817 C-2.0433,9.004 -2.0523,22.284 6.1327,30.481 C6.1407,30.488 6.1467,30.495 6.1537,30.502 C6.8147,31.163 7.8857,31.163 8.5457,30.502 C9.2067,29.842 9.2067,28.77 8.5457,28.11 C5.2207,24.785 3.3897,20.364 3.3897,15.661 Z"/>
      <path d="M40.9748,7.7636 C39.9208,5.1616 38.3528,2.7996 36.3648,0.8176 C35.7038,0.1576 34.6328,0.1576 33.9728,0.8176 C33.3118,1.4786 33.3118,2.5496 33.9728,3.2096 C37.2978,6.5366 39.1288,10.9576 39.1288,15.6606 C39.1288,20.3646 37.2978,24.7846 33.9728,28.1116 C33.3108,28.7716 33.3108,29.8426 33.9718,30.5036 C34.6318,31.1646 35.7038,31.1646 36.3648,30.5046 C42.3258,24.5366 44.1418,15.5826 40.9738,7.7646 L40.9748,7.7636 Z"/>
    </g>
    <g fill="#FF9A20" transform="translate(370 568.678)">
      <path d="M14.1003,6.372 C13.4393,5.712 12.3683,5.712 11.7073,6.372 C6.5783,11.502 6.5783,19.819 11.7073,24.949 C12.3683,25.61 13.4393,25.61 14.1003,24.949 C14.7603,24.289 14.7603,23.218 14.1003,22.558 C10.2973,18.755 10.2973,12.567 14.1003,8.765 C14.7603,8.104 14.7613,7.033 14.1003,6.373 L14.1003,6.372 Z M21.2843,17.659 C20.1803,17.659 19.2853,16.765 19.2853,15.661 C19.2853,14.558 20.1803,13.663 21.2843,13.663 C22.3873,13.663 23.2823,14.558 23.2823,15.661 C23.2803,16.765 22.3873,17.658 21.2843,17.659 Z M21.2843,10.28 C18.3113,10.28 15.9023,12.689 15.9023,15.661 C15.9023,18.634 18.3113,21.043 21.2843,21.043 C24.2553,21.043 26.6653,18.634 26.6653,15.661 C26.6613,12.69 24.2543,10.283 21.2843,10.28 Z"/>
      <path d="M30.8107,6.372 C30.1497,5.712 29.0787,5.712 28.4177,6.372 C27.7577,7.033 27.7577,8.104 28.4177,8.765 C32.2277,12.573 32.2277,18.748 28.4187,22.558 L28.4177,22.558 C27.7577,23.218 27.7577,24.289 28.4177,24.949 C29.0787,25.61 30.1497,25.61 30.8107,24.949 C35.9407,19.82 35.9407,11.503 30.8107,6.373 L30.8107,6.372 Z M3.3897,15.661 C3.3897,10.958 5.2207,6.537 8.5457,3.211 C9.2067,2.551 9.2077,1.479 8.5467,0.818 C7.8867,0.157 6.8147,0.157 6.1537,0.817 C-2.0433,9.004 -2.0523,22.284 6.1327,30.481 C6.1407,30.488 6.1467,30.495 6.1537,30.502 C6.8147,31.163 7.8857,31.163 8.5457,30.502 C9.2067,29.842 9.2067,28.77 8.5457,28.11 C5.2207,24.785 3.3897,20.364 3.3897,15.661 Z"/>
      <path d="M40.9748,7.7636 C39.9208,5.1616 38.3528,2.7996 36.3648,0.8176 C35.7038,0.1576 34.6328,0.1576 33.9728,0.8176 C33.3118,1.4786 33.3118,2.5496 33.9728,3.2096 C37.2978,6.5366 39.1288,10.9576 39.1288,15.6606 C39.1288,20.3646 37.2978,24.7846 33.9728,28.1116 C33.3108,28.7716 33.3108,29.8426 33.9718,30.5036 C34.6318,31.1646 35.7038,31.1646 36.3648,30.5046 C42.3258,24.5366 44.1418,15.5826 40.9738,7.7646 L40.9748,7.7636 Z"/>
    </g>
    <g fill="#FF9A20" transform="translate(569 568.678)">
      <path d="M14.1003,6.372 C13.4393,5.712 12.3683,5.712 11.7073,6.372 C6.5783,11.502 6.5783,19.819 11.7073,24.949 C12.3683,25.61 13.4393,25.61 14.1003,24.949 C14.7603,24.289 14.7603,23.218 14.1003,22.558 C10.2973,18.755 10.2973,12.567 14.1003,8.765 C14.7603,8.104 14.7613,7.033 14.1003,6.373 L14.1003,6.372 Z M21.2843,17.659 C20.1803,17.659 19.2853,16.765 19.2853,15.661 C19.2853,14.558 20.1803,13.663 21.2843,13.663 C22.3873,13.663 23.2823,14.558 23.2823,15.661 C23.2803,16.765 22.3873,17.658 21.2843,17.659 Z M21.2843,10.28 C18.3113,10.28 15.9023,12.689 15.9023,15.661 C15.9023,18.634 18.3113,21.043 21.2843,21.043 C24.2553,21.043 26.6653,18.634 26.6653,15.661 C26.6613,12.69 24.2543,10.283 21.2843,10.28 Z"/>
      <path d="M30.8107,6.372 C30.1497,5.712 29.0787,5.712 28.4177,6.372 C27.7577,7.033 27.7577,8.104 28.4177,8.765 C32.2277,12.573 32.2277,18.748 28.4187,22.558 L28.4177,22.558 C27.7577,23.218 27.7577,24.289 28.4177,24.949 C29.0787,25.61 30.1497,25.61 30.8107,24.949 C35.9407,19.82 35.9407,11.503 30.8107,6.373 L30.8107,6.372 Z M3.3897,15.661 C3.3897,10.958 5.2207,6.537 8.5457,3.211 C9.2067,2.551 9.2077,1.479 8.5467,0.818 C7.8867,0.157 6.8147,0.157 6.1537,0.817 C-2.0433,9.004 -2.0523,22.284 6.1327,30.481 C6.1407,30.488 6.1467,30.495 6.1537,30.502 C6.8147,31.163 7.8857,31.163 8.5457,30.502 C9.2067,29.842 9.2067,28.77 8.5457,28.11 C5.2207,24.785 3.3897,20.364 3.3897,15.661 Z"/>
      <path d="M40.9748,7.7636 C39.9208,5.1616 38.3528,2.7996 36.3648,0.8176 C35.7038,0.1576 34.6328,0.1576 33.9728,0.8176 C33.3118,1.4786 33.3118,2.5496 33.9728,3.2096 C37.2978,6.5366 39.1288,10.9576 39.1288,15.6606 C39.1288,20.3646 37.2978,24.7846 33.9728,28.1116 C33.3108,28.7716 33.3108,29.8426 33.9718,30.5036 C34.6318,31.1646 35.7038,31.1646 36.3648,30.5046 C42.3258,24.5366 44.1418,15.5826 40.9738,7.7646 L40.9748,7.7636 Z"/>
    </g>
    <g fill="#FF9A20" transform="translate(804 398.678)">
      <path d="M14.1003,6.372 C13.4393,5.712 12.3683,5.712 11.7073,6.372 C6.5783,11.502 6.5783,19.819 11.7073,24.949 C12.3683,25.61 13.4393,25.61 14.1003,24.949 C14.7603,24.289 14.7603,23.218 14.1003,22.558 C10.2973,18.755 10.2973,12.567 14.1003,8.765 C14.7603,8.104 14.7613,7.033 14.1003,6.373 L14.1003,6.372 Z M21.2843,17.659 C20.1803,17.659 19.2853,16.765 19.2853,15.661 C19.2853,14.558 20.1803,13.663 21.2843,13.663 C22.3873,13.663 23.2823,14.558 23.2823,15.661 C23.2803,16.765 22.3873,17.658 21.2843,17.659 Z M21.2843,10.28 C18.3113,10.28 15.9023,12.689 15.9023,15.661 C15.9023,18.634 18.3113,21.043 21.2843,21.043 C24.2553,21.043 26.6653,18.634 26.6653,15.661 C26.6613,12.69 24.2543,10.283 21.2843,10.28 Z"/>
      <path d="M30.8107,6.372 C30.1497,5.712 29.0787,5.712 28.4177,6.372 C27.7577,7.033 27.7577,8.104 28.4177,8.765 C32.2277,12.573 32.2277,18.748 28.4187,22.558 L28.4177,22.558 C27.7577,23.218 27.7577,24.289 28.4177,24.949 C29.0787,25.61 30.1497,25.61 30.8107,24.949 C35.9407,19.82 35.9407,11.503 30.8107,6.373 L30.8107,6.372 Z M3.3897,15.661 C3.3897,10.958 5.2207,6.537 8.5457,3.211 C9.2067,2.551 9.2077,1.479 8.5467,0.818 C7.8867,0.157 6.8147,0.157 6.1537,0.817 C-2.0433,9.004 -2.0523,22.284 6.1327,30.481 C6.1407,30.488 6.1467,30.495 6.1537,30.502 C6.8147,31.163 7.8857,31.163 8.5457,30.502 C9.2067,29.842 9.2067,28.77 8.5457,28.11 C5.2207,24.785 3.3897,20.364 3.3897,15.661 Z"/>
      <path d="M40.9748,7.7636 C39.9208,5.1616 38.3528,2.7996 36.3648,0.8176 C35.7038,0.1576 34.6328,0.1576 33.9728,0.8176 C33.3118,1.4786 33.3118,2.5496 33.9728,3.2096 C37.2978,6.5366 39.1288,10.9576 39.1288,15.6606 C39.1288,20.3646 37.2978,24.7846 33.9728,28.1116 C33.3108,28.7716 33.3108,29.8426 33.9718,30.5036 C34.6318,31.1646 35.7038,31.1646 36.3648,30.5046 C42.3258,24.5366 44.1418,15.5826 40.9738,7.7646 L40.9748,7.7636 Z"/>
    </g>
  </g>
</svg>
