<svg xmlns="http://www.w3.org/2000/svg" width="541" height="527" viewBox="0 0 541 527">
  <g fill="none" fill-rule="evenodd">
    <g transform="translate(163)">
      <path fill="#0B1B33" d="M188.421,120.719743 C188.421,117.055743 185.451,114.085743 181.787,114.085743 L159.843,114.085743 C152.839,106.547743 144.579,100.209743 135.392,95.3807426 C139.914,85.8357426 140.572,73.6487426 138.292,60.0627426 C140.617,62.2177426 140.841,66.6857426 140.841,66.6857426 C144.448,57.3417426 138.416,52.9067426 138.416,52.9067426 C141.362,53.9517426 142.665,57.0227426 142.665,57.0227426 C142.155,48.9967426 137.324,45.7567426 134.881,44.6207426 C134.104,41.8507426 133.257,39.2027426 132.336,36.6847426 C134.306,35.1327426 135.65,32.2277426 135.65,28.8577426 C135.65,23.8687426 132.737,19.8247426 129.146,19.8247426 C127.606,19.8247426 126.21,20.5987426 125.096,21.8417426 C120.069,14.1567426 113.802,8.75074256 106.199,5.95374256 C105.951,5.84374256 105.661,5.74274256 105.377,5.64674256 C103.094,4.88974256 101.583,4.58374256 100.949,4.47274256 C101.724,2.62174256 103.945,2.14274256 103.945,2.14274256 C100.374,1.32974256 96.817,2.73874256 96.817,2.73874256 C97.672,0.867742558 99.889,0.221742558 99.889,0.221742558 C95.155,-0.863257442 83.42,2.03574256 75.251,8.86874256 C69.993,12.1127426 65.428,16.7827426 61.592,22.5467426 C60.411,20.8707426 58.77,19.8247426 56.948,19.8247426 C53.357,19.8247426 50.444,23.8687426 50.444,28.8577426 C50.444,32.5117426 52.014,35.6397426 54.26,37.0637426 C53.158,39.9807426 52.196,43.0467426 51.346,46.2207426 C49.768,46.8727426 44.155,49.7687426 44.147,58.1497426 C44.147,58.1497426 45.158,55.3217426 47.781,54.2367426 C47.781,54.2367426 42.541,58.5237426 46.357,66.7567426 C46.357,66.7567426 46.289,62.4837426 48.459,60.4917426 C46.695,73.2447426 47.603,85.1577426 52.102,94.6957426 C42.359,99.6057426 33.605,106.171743 26.251,114.085743 L6.639,114.085743 C2.975,114.085743 0.005,117.055743 0.004,120.719743 L188.421,120.719743 Z"/>
      <path fill="#FF9A20" d="M122.383856 105.113084L122.383856 118.221084C122.383856 118.946084 121.701856 119.477084 120.998856 119.299084L100.839856 114.207084C99.7938556 113.943084 99.6988556 112.494084 100.701856 112.095084L120.861856 104.080084C121.590856 103.789084 122.383856 104.327084 122.383856 105.113084M65 105.113084L65 118.221084C65 118.946084 65.682 119.477084 66.385 119.299084L86.544 114.207084C87.59 113.943084 87.685 112.494084 86.682 112.095084L66.522 104.080084C65.793 103.789084 65 104.327084 65 105.113084M91.539 118.094C90.137 118.094 89 116.957 89 115.555L89 111.539C89 110.137 90.137 109 91.539 109L96.123 109C97.525 109 98.662 110.137 98.662 111.539L98.662 115.555C98.662 116.957 97.525 118.094 96.123 118.094L91.539 118.094z"/>
      <path fill="#FEFEFE" d="M77.1125822,68.866 C77.1125822,68.866 71.0945822,72.292 71.0945822,82.871 C71.0945822,82.882 71.0965822,82.891 71.0965822,82.902 C71.6725822,83.163 72.7325822,83.19 74.7665822,82.487 C80.9125822,80.363 86.4685822,79.895 93.5055822,79.673 C100.541582,79.895 106.030582,80.541 112.242582,82.487 C114.160582,83.088 115.235582,83.111 115.838582,82.911 C115.838582,82.897 115.841582,82.885 115.841582,82.871 C115.841582,72.292 109.823582,68.866 109.823582,68.866 L122.198582,58.135 C122.198582,58.135 126.913582,52.768 123.966582,44.385 C121.019582,36 113.653582,36 113.653582,36 L93.6125822,36 L93.3225822,36 L73.2815822,36 C73.2815822,36 65.9155822,36 62.9685822,44.385 C60.0225822,52.768 64.7365822,58.135 64.7365822,58.135 L77.1125822,68.866 Z"/>
      <path fill="#FEFEFE" d="M93.0669108,81.0061161 C93.0669108,81.0061161 83.8969108,80.7341161 74.6109108,85.4901161 C74.6109108,85.4901161 71.8039108,86.9301161 72.0109108,89.5071161 C76.4519108,99.7381161 90.7059108,100.565116 92.8839108,100.626116 C92.8839108,100.632116 92.9739108,100.630116 93.0299108,100.630116 C93.0849108,100.630116 93.1739108,100.632116 93.1739108,100.632116 C95.3689108,100.565116 109.815911,99.7281161 114.143911,89.2841161 C114.179911,86.8441161 111.521911,85.4901161 111.521911,85.4901161 C102.763911,80.6441161 93.0669108,81.0061161 93.0669108,81.0061161 Z"/>
      <path fill="#0B1B33" d="M120.28,43 L115.209,43 L110.125,43 L102.259,43 L98.892,43 L87.387,43 L85.038,43 L76.155,43 L71.071,43 L66,43 C66,43 66.32,50.104 67.748,54.265 C67.958,55.003 68.259,55.713 68.664,56.377 C71.442,60.946 77.871,61.627 83.022,57.898 C86.939,55.063 88.985,50.496 88.519,46.46 L90.782,46.46 L92.756,50.469 C92.89,50.743 93.25,50.743 93.384,50.469 L95.358,46.46 L97.76,46.46 C97.295,50.496 99.341,55.063 103.258,57.898 C108.409,61.627 114.838,60.946 117.616,56.377 C118.02,55.713 118.322,55.003 118.532,54.265 C119.96,50.104 120.28,43 120.28,43"/>
      <polygon fill="#0B1B33" points="88 66.771 91.003 64 93.742 66.771 96.479 64 99.485 66.771 93.742 70.665"/>
    </g>
    <rect width="502" height="367" x="1.5" y="121.5" stroke="#0B1B33" stroke-width="3"/>
    <rect width="512" height="378" x="29" y="149" fill="#FF9A20" opacity=".1"/>
  </g>
</svg>
