<?xml version="1.0" encoding="UTF-8"?>
<svg width="95px" height="95px" viewBox="0 0 95 95" version="1.1" xmlns="http://www.w3.org/2000/svg" xmlns:xlink="http://www.w3.org/1999/xlink">
    <!-- Generator: Sketch 49.2 (51160) - http://www.bohemiancoding.com/sketch -->
    <title>13</title>
    <desc>Created with Sketch.</desc>
    <defs></defs>
    <g id="Page-1" stroke="none" stroke-width="1" fill="none" fill-rule="evenodd">
        <g id="猩租客-copy" transform="translate(-1074.000000, -2416.000000)">
            <g id="Group-20" transform="translate(1074.000000, 2416.000000)">
                <g id="Group-21">
                    <circle id="Oval-2" fill="#000000" cx="47.5" cy="47.5" r="47.5"></circle>
                    <g id="912菜单_合同" transform="translate(25.000000, 24.000000)" fill="#FFFFFF" fill-rule="nonzero" stroke="#FFFFFF">
                        <path d="M39.465478,20.6239859 L39.465478,2.18972193 C39.4643977,0.980163837 38.5340094,0 37.3881059,0 L2.07629178,0 C0.929037947,0 0,0.979619604 0,2.18972193 L0,45.8102781 C0,47.0198362 0.929037947,48 2.07629178,48 L27.2116295,48 C27.5945876,47.918365 28.2724612,47.6813515 28.9843635,46.9768417 L29.3108772,46.6445874 C31.1533087,47.5386078 33.1723352,48.0018441 35.2172899,47.9997279 C42.8167663,47.9997279 49,41.7051277 49,33.9707588 C49.0002701,27.7425551 44.9927136,22.4512486 39.465478,20.6239859 Z M26.4859536,45.3697214 L3.7458594,45.3697214 C3.11578802,45.3697214 2.60400694,44.8314748 2.60400694,44.1669662 L2.60400694,3.83303382 C2.60400694,3.1687973 3.11578802,2.63163922 3.7458594,2.63163922 L35.7185383,2.63163922 C36.34996,2.63163922 36.8603908,3.1687973 36.8603908,3.83303382 L36.8603908,20.0413844 C36.3152523,19.9750571 35.7666586,19.9417084 35.21756,19.9415176 C32.5807403,19.9390558 30.0000598,20.7088999 27.7895775,22.1573627 L10.8532698,22.1573627 C10.3080001,22.1573627 9.86697715,22.6281244 9.86697715,23.2099096 L9.86697715,23.7334618 C9.86697715,24.315247 10.3082702,24.7879135 10.8532698,24.7879135 L24.8058533,24.7879135 C22.6260364,27.3429446 21.4298036,30.6020192 21.43512,33.971303 C21.43512,38.3360526 23.4044644,42.2422858 26.4862237,44.8173248 L26.4862237,45.3697214 L26.4859536,45.3697214 Z M35.2172899,45.8412994 C28.7866729,45.8412994 23.5548929,40.5159783 23.5548929,33.9707588 C23.5548929,27.4230902 28.7866729,22.0988577 35.2172899,22.0988577 C41.6468267,22.0988577 46.879957,27.4244508 46.879957,33.9707588 C46.879957,40.5159783 41.648177,45.8412994 35.2172899,45.8412994 Z M41.5976741,28.363525 C41.3820684,28.1804616 41.10262,28.0921394 40.8218706,28.1183251 C40.5411212,28.1445109 40.2825123,28.2830182 40.1039215,28.5028487 L32.5630501,37.7276 L28.6470472,34.0235494 C28.4414462,33.8293693 28.1673436,33.726047 27.8857353,33.736575 C27.604127,33.7471029 27.3383772,33.8706075 27.1476231,34.0796054 C26.7489311,34.5182947 26.7738329,35.1982879 27.2035274,35.6061793 L31.9397305,40.0822246 C32.1516202,40.2837086 32.437036,40.3874856 32.7277923,40.3687633 C33.0192132,40.3495007 33.2896769,40.2094013 33.4748036,39.9818135 L41.7345992,29.8835681 C42.1094363,29.4244912 42.0484173,28.7471021 41.5976741,28.363525 Z M19.3083253,31.6444344 L10.8105988,31.6444344 C10.2882851,31.6444344 9.86670709,32.1184614 9.86670709,32.7026957 L9.86670709,33.2344114 C9.86670709,33.817013 10.2893653,34.2913121 10.8105988,34.2913121 L19.3083253,34.2913121 C19.8292887,34.2913121 20.251947,33.8186457 20.251947,33.2344114 L20.251947,32.7026957 C20.251947,32.1184614 19.8290187,31.6444344 19.3083253,31.6444344 Z M10.8532698,14.7715752 L28.611398,14.7715752 C29.1563976,14.7715752 29.5976906,14.2989087 29.5976906,13.7149466 L29.5976906,13.1826866 C29.599041,12.5992687 29.1561275,12.1252416 28.611398,12.1252416 L10.8532698,12.1252416 C10.3080001,12.1252416 9.86697715,12.5987245 9.86697715,13.1826866 L9.86697715,13.7149466 C9.86670709,14.297276 10.3080001,14.7715752 10.8532698,14.7715752 Z" id="Shape"></path>
                    </g>
                </g>
            </g>
        </g>
    </g>
</svg>