<?xml version="1.0" encoding="UTF-8"?>
<svg width="95px" height="95px" viewBox="0 0 95 95" version="1.1" xmlns="http://www.w3.org/2000/svg" xmlns:xlink="http://www.w3.org/1999/xlink">
    <!-- Generator: Sketch 49.2 (51160) - http://www.bohemiancoding.com/sketch -->
    <title>14</title>
    <desc>Created with Sketch.</desc>
    <defs></defs>
    <g id="Page-1" stroke="none" stroke-width="1" fill="none" fill-rule="evenodd">
        <g id="猩租客-copy" transform="translate(-1481.000000, -2416.000000)">
            <g id="Group-22" transform="translate(1481.000000, 2416.000000)">
                <g id="Group-23">
                    <circle id="Oval-2-Copy" fill="#FFFFFF" cx="47.5" cy="47.5" r="47.5"></circle>
                    <g id="房屋" transform="translate(21.000000, 21.000000)" fill="#000000" fill-rule="nonzero" stroke="#000000">
                        <path d="M55.5751705,46.8747367 L49.241823,46.8747367 L49.241823,21.4060572 C49.241823,19.062377 47.3418378,17.1874705 44.9668883,17.1874705 L36.4168915,17.1874705 L36.4168915,4.53127024 C36.4168915,2.03118534 34.2001147,0 31.508501,0 L10.291618,0 C7.75843193,0 6.33341122,2.03118534 6.33341122,4.53127024 L6.33341122,46.8747995 L1.58319349,46.8747995 C0.633328377,46.8747995 0,47.6558795 0,48.4372111 C0,49.2185427 0.633328377,50 1.42502071,50 L55.5751705,50 C56.3669265,50 57,49.2185427 57,48.4372111 C57,47.6558795 56.3669265,46.8747367 55.5751705,46.8747367 Z M44.8082694,20.3122308 C45.4419802,20.3122308 45.9166897,20.7810674 45.9166897,21.4060572 L45.9166897,46.8747367 L36.4168915,46.8747367 L36.4168915,20.3122308 L44.8082694,20.3122308 Z M9.50018056,4.53127024 C9.50018056,3.74993868 9.50018056,3.12507468 10.291618,3.12507468 L31.508501,3.12507468 C32.4583024,3.12507468 33.2500584,3.75000157 33.2500584,4.53127024 L33.2500584,46.8747995 L9.50018056,46.8747995 L9.50018056,4.53127024 Z" id="Shape"></path>
                        <path d="M19.0159776,13.4545455 L16.6349359,13.4545455 C16.317468,13.4545455 16,13.1666763 16,12.8788072 L16,10.5757383 C16,10.2879271 16.3174041,10 16.6349359,10 L19.0159776,10 C19.3333817,10 19.6511052,10.2879271 19.6511052,10.5757383 L19.6511052,12.7347857 C19.8096156,13.1666763 19.4922754,13.4545455 19.0159776,13.4545455 Z M19.0159776,21.2272727 L16.6349359,21.2272727 C16.317468,21.2272727 16,20.9268854 16,20.6265584 L16,18.3734416 C16,18.0730542 16.3174041,17.7727273 16.6349359,17.7727273 L19.0159776,17.7727273 C19.3333817,17.7727273 19.6511052,18.0730542 19.6511052,18.3734416 L19.6511052,20.6265584 C19.8096156,20.9269458 19.4922754,21.2272727 19.0159776,21.2272727 Z M19.0159776,29 L16.6349359,29 C16.317468,29 16,28.6997992 16,28.3994171 L16,26.1462188 C16,25.8458367 16.3174041,25.5454545 16.6349359,25.5454545 L19.0159776,25.5454545 C19.3333817,25.5454545 19.6511052,25.8458367 19.6511052,26.1462188 L19.6511052,28.3994171 C19.8096156,28.6997992 19.4922754,29 19.0159776,29 Z M27.3235799,13.4545455 L24.9425084,13.4545455 C24.6251004,13.4545455 24.3076923,13.1666763 24.3076923,12.8788072 L24.3076923,10.5757383 C24.3076923,10.2879271 24.6250365,10 24.9425084,10 L27.3235799,10 C27.6410518,10 27.9587793,10.2879271 27.9587793,10.5757383 L27.9587793,12.7347857 C28.1173556,13.1666763 27.7998836,13.4545455 27.3235799,13.4545455 Z M27.3235799,21.2272727 L24.9425084,21.2272727 C24.6251004,21.2272727 24.3076923,20.9268854 24.3076923,20.6265584 L24.3076923,18.3734416 C24.3076923,18.0730542 24.6250365,17.7727273 24.9425084,17.7727273 L27.3235799,17.7727273 C27.6410518,17.7727273 27.9587793,18.0730542 27.9587793,18.3734416 L27.9587793,20.6265584 C28.1173556,20.9269458 27.7998836,21.2272727 27.3235799,21.2272727 Z M27.3235799,29 L24.9425084,29 C24.6251004,29 24.3076923,28.6997992 24.3076923,28.3994171 L24.3076923,26.1462188 C24.3076923,25.8458367 24.6250365,25.5454545 24.9425084,25.5454545 L27.3235799,25.5454545 C27.6410518,25.5454545 27.9587793,25.8458367 27.9587793,26.1462188 L27.9587793,28.3994171 C28.1173556,28.6997992 27.7998836,29 27.3235799,29 Z" id="Shape"></path>
                    </g>
                </g>
            </g>
        </g>
    </g>
</svg>