<?xml version="1.0" encoding="UTF-8"?>
<svg width="95px" height="95px" viewBox="0 0 95 95" version="1.1" xmlns="http://www.w3.org/2000/svg" xmlns:xlink="http://www.w3.org/1999/xlink">
    <!-- Generator: Sketch 49.2 (51160) - http://www.bohemiancoding.com/sketch -->
    <title>15</title>
    <desc>Created with Sketch.</desc>
    <defs></defs>
    <g id="Page-1" stroke="none" stroke-width="1" fill="none" fill-rule="evenodd">
        <g id="猩租客-copy" transform="translate(-1074.000000, -2780.000000)">
            <g id="Group-24" transform="translate(1074.000000, 2780.000000)">
                <g id="Group-25">
                    <circle id="Oval-2-Copy-2" fill="#000000" cx="47.5" cy="47.5" r="47.5"></circle>
                    <g id="提醒" transform="translate(18.000000, 19.000000)" fill="#FFFFFF" fill-rule="nonzero">
                        <path d="M28.9978002,11.39956 C38.7032296,11.39956 46.5960403,19.2923707 46.5960403,28.9978002 C46.5960403,38.7032297 38.7032296,46.5960404 28.9978002,46.5960404 C19.2923707,46.5960404 11.39956,38.7032297 11.39956,28.9978002 C11.39956,19.2923707 19.2923707,11.39956 28.9978002,11.39956 Z M28.9978002,7 C16.8475357,7.0012149 6.9987851,16.8519353 7,29.0021998 C7.0012149,41.1524643 16.8519352,51.0012149 29.0021997,51 C36.8620427,50.9992141 44.1244178,46.8053116 48.0536587,39.9980949 C51.9828995,33.1908783 51.982061,24.8045257 48.0514589,17.9980949 C44.1208568,11.1916642 36.8576431,6.9992141 28.9978002,7 Z" id="Shape"></path>
                        <path d="M36.0823472,47.2024112 C35.178953,47.2026021 34.3644792,47.7454279 34.018201,48.5781111 C33.6719229,49.4107944 33.8619198,50.3696269 34.4997161,51.00811 L40.8212992,57.3167362 C41.3817292,57.8973784 42.2124853,58.1310815 42.9942864,57.9280275 C43.7760875,57.7249735 44.3872768,57.1167599 44.5929586,56.3371387 C44.7986404,55.5575175 44.5668083,54.7278064 43.9865614,54.1668847 L37.6649783,47.8582585 C37.2456847,47.4385132 36.6762476,47.2025367 36.0823472,47.2024112 Z M21.901257,47.2024112 C21.3081925,47.2023312 20.7392054,47.4365172 20.3186258,47.8537969 L13.9970428,54.1624232 C13.1229798,55.0346947 13.1229798,56.4489262 13.9970428,57.3211977 C14.8711058,58.1934692 16.288242,58.1934692 17.162305,57.3211978 L23.4838881,51.0125715 C24.1248842,50.3745071 24.3169159,49.4136005 23.9702311,48.578962 C23.6235462,47.7443234 22.8066153,47.2007947 21.901257,47.2024112 Z M4.19724778,15.886819 C3.60418326,15.8868989 3.03519623,15.6527129 2.61461662,15.2354332 C-0.871538873,11.7474029 -0.871538873,6.10174953 2.61461662,2.61371925 C6.10827839,-0.864777652 11.764121,-0.864777652 15.2577828,2.61371925 C16.104919,3.48902766 16.0928033,4.88037309 15.2305519,5.74085722 C14.3683005,6.60134134 12.9740974,6.61343226 12.0969913,5.76803233 C10.3500998,4.0259533 7.51882979,4.02695206 5.77317282,5.77026312 C4.02751585,7.51357418 4.02851666,10.3390411 5.77540819,12.0811201 C6.41263401,12.7190278 6.60291787,13.676782 6.25778485,14.5090626 C5.91265182,15.3413432 5.0998286,15.8848289 4.19724778,15.886819 Z M53.8131806,15.886819 C52.9097865,15.886628 52.0953126,15.3438023 51.7490345,14.511119 C51.4027563,13.6784358 51.5927532,12.7196032 52.2305495,12.0811201 C53.9695074,10.3327972 53.9695074,7.51189375 52.2305495,5.76357081 C50.4791612,4.03112746 47.655884,4.03112746 45.9044957,5.76357081 C45.0273898,6.60897227 43.6331855,6.59688206 42.7709335,5.7363973 C41.9086814,4.87591253 41.8965664,3.48456585 42.7437041,2.60925767 C46.2388983,-0.869752556 51.8961469,-0.869752556 55.3913411,2.60925767 C58.869553,6.08926366 58.869553,11.7509657 55.3913411,15.2265101 C54.9761644,15.6501739 54.4069806,15.8883228 53.8131806,15.886819 Z M22.4958613,22.6639075 C21.5924672,22.6640985 20.7779933,23.2069242 20.4317151,24.0396074 C20.085437,24.8722907 20.2754339,25.8311233 20.9132302,26.4696064 L27.2348133,32.7782326 C27.7952434,33.3588742 28.6259992,33.592577 29.4078,33.3895229 C30.1896009,33.1864689 30.80079,32.5782555 31.0064718,31.7986346 C31.2121537,31.0190137 30.980322,30.1893029 30.4000755,29.628381 L24.0740217,23.3152932 C23.6556478,22.8974455 23.0877656,22.6630521 22.4958613,22.6639075 Z" id="Shape"></path>
                        <path d="M38.7541588,20.0000036 C38.1593939,19.9999233 37.5887754,20.2353316 37.1669899,20.6547893 L27.6574269,30.16712 C26.7808577,31.0439443 26.7808577,32.4655574 27.6574269,33.3423818 C28.5339961,34.2192061 29.9551955,34.2192061 30.8317648,33.3423818 L40.3413278,23.830051 C40.9841619,23.1886563 41.1767443,22.2227342 40.8290653,21.3837393 C40.4813864,20.5447443 39.6621131,19.9983786 38.7541588,20.0000036 Z" id="Shape"></path>
                    </g>
                </g>
            </g>
        </g>
    </g>
</svg>