<?xml version="1.0" encoding="UTF-8"?>
<svg width="95px" height="95px" viewBox="0 0 95 95" version="1.1" xmlns="http://www.w3.org/2000/svg" xmlns:xlink="http://www.w3.org/1999/xlink">
    <!-- Generator: Sketch 49.2 (51160) - http://www.bohemiancoding.com/sketch -->
    <title>16</title>
    <desc>Created with Sketch.</desc>
    <defs></defs>
    <g id="Page-1" stroke="none" stroke-width="1" fill="none" fill-rule="evenodd">
        <g id="猩租客-copy" transform="translate(-1481.000000, -2780.000000)">
            <g id="Group-26" transform="translate(1481.000000, 2780.000000)">
                <g id="Group-27">
                    <circle id="Oval-2-Copy-3" fill="#000000" cx="47.5" cy="47.5" r="47.5"></circle>
                    <g id="支出" transform="translate(23.000000, 21.000000)" fill="#FFFFFF" fill-rule="nonzero">
                        <path d="M17,43 C16.5545857,41.569512 16.2474776,40.0930434 16.2474776,38.5477658 C16.2474776,37.8296007 16.4101575,37.1402141 16.5064051,36.4393595 C6.92891951,35.3707671 0,32.3546467 0,28 L0,33.5840095 C0.000113331909,38.0134156 7.16982194,41.7246564 17,43 Z" id="Shape"></path>
                        <path d="M41.241176,19.9767261 C45.409084,18.2083961 48,15.8010995 48,13.1428571 L48,9.85714287 C48,4.41518533 37.2569376,0 24,0 C10.74898,0 0,4.41518533 0,9.85714287 L0,13.1428571 C0,18.5905083 10.74898,23 24,23 C24.5099208,23 24.9901419,22.9543442 25.5000628,22.93157 C29.0515327,20.9121867 33.3499635,19.7142857 38.0040102,19.7142857 C39.1126165,19.7142857 40.1738817,19.8511457 41.241176,19.9767261 Z" id="Shape"></path>
                        <path d="M16.9103004,33 C17.7773877,30.5257353 19.171922,28.2959516 21,26.3593154 C9.1993138,25.8827785 0,22.4127561 0,17 L0,22.9381894 C0.00011031152,27.7033292 7.15440877,31.6926871 16.9103004,33 Z" id="Shape"></path>
                        <path d="M18.7733089,47.9852829 C18.5451805,47.6415593 18.3226728,47.2800915 18.1179083,46.9245385 C7.730575,46.0652294 0,42.823737 0,38 L0,43.7600491 C0,45.2710939 0.749076444,46.6993325 2.10671555,47.9851714 C5.82862382,51.5288727 14.0976698,54 23.6890887,54 C24.1397248,54 24.5610459,53.9524591 25,53.9465442 C22.4425383,52.3823785 20.3359329,50.3438073 18.7733089,47.9852829 Z" id="Shape"></path>
                        <polygon id="Shape" points="38 36 38 40 24 40 24 36"></polygon>
                        <polygon id="Shape-Copy-4" transform="translate(31.000000, 38.000000) rotate(-270.000000) translate(-31.000000, -38.000000) " points="38 36 38 40 24 40 24 36"></polygon>
                        <polygon id="Shape-Copy-5" points="57 36 57 40 43 40 43 36"></polygon>
                    </g>
                </g>
            </g>
        </g>
    </g>
</svg>