<?xml version="1.0" encoding="UTF-8"?>
<svg width="52px" height="51px" viewBox="0 0 52 51" version="1.1" xmlns="http://www.w3.org/2000/svg" xmlns:xlink="http://www.w3.org/1999/xlink">
    <!-- Generator: Sketch 49.2 (51160) - http://www.bohemiancoding.com/sketch -->
    <title>18</title>
    <desc>Created with Sketch.</desc>
    <defs></defs>
    <g id="Page-1" stroke="none" stroke-width="1" fill="none" fill-rule="evenodd">
        <g id="猩租客PC端官网" transform="translate(-269.000000, -4006.000000)">
            <g id="Group-3" transform="translate(270.000000, 4007.000000)">
                <g id="Group-30">
                    <g id="Group-11" transform="translate(13.000000, 15.000000)" fill="#000000" fill-rule="nonzero">
                        <path d="M21.2896552,0 L2.36551724,0 C1.06110345,0 1.87589408e-16,1.08075351 1.87589408e-16,2.40932312 L1.87589408e-16,4.851 C1.87589408e-16,5.23786845 0.211544828,5.59169476 0.5488,5.76860792 L11.3625931,11.4435964 C11.6539404,11.5964822 11.9998803,11.5964822 12.2912276,11.4435964 L19.0802621,7.8812401 C19.5780154,7.62005597 19.7736422,6.99734324 19.5172069,6.49037229 C19.2607716,5.98340134 18.6493809,5.78415175 18.1516276,6.04533589 L11.8275862,9.36400639 L2.02758621,4.2211341 L2.02758621,2.40932312 C2.02758621,2.22277267 2.18235862,2.0651341 2.36551724,2.0651341 L21.2896552,2.0651341 C21.4728138,2.0651341 21.6275862,2.22277267 21.6275862,2.40932312 L21.6275862,16.1768838 C21.6275862,16.3634342 21.4728138,16.5210728 21.2896552,16.5210728 L2.36551724,16.5210728 C2.17994744,16.5184808 2.03013111,16.3658901 2.02758621,16.1768838 L2.02758621,9.88786207 C2.02758621,9.31759103 1.57369557,8.85529502 1.0137931,8.85529502 C0.453890633,8.85529502 0,9.31759103 0,9.88786207 L0,16.1768838 C0,17.5054534 1.06110345,18.5862069 2.36551724,18.5862069 L21.2896552,18.5862069 C22.594069,18.5862069 23.6551724,17.5054534 23.6551724,16.1768838 L23.6551724,2.40932312 C23.6551724,1.08075351 22.594069,0 21.2896552,0 Z" id="Shape"></path>
                    </g>
                    <ellipse id="Oval-6" stroke="#000000" stroke-width="2" cx="24.9224138" cy="24.5" rx="24.9224138" ry="24.5"></ellipse>
                </g>
            </g>
        </g>
    </g>
</svg>