<?xml version="1.0" encoding="UTF-8"?>
<svg width="67px" height="67px" viewBox="0 0 67 67" version="1.1" xmlns="http://www.w3.org/2000/svg" xmlns:xlink="http://www.w3.org/1999/xlink">
    <!-- Generator: Sketch 49.2 (51160) - http://www.bohemiancoding.com/sketch -->
    <title>3</title>
    <desc>Created with Sketch.</desc>
    <defs></defs>
    <g id="Page-1" stroke="none" stroke-width="1" fill="none" fill-rule="evenodd">
        <g id="猩租客PC端官网" transform="translate(-206.000000, -1348.000000)">
            <g id="成本统计分析" transform="translate(206.000000, 1348.000000)">
                <g id="Group-13" transform="translate(8.000000, 5.000000)">
                    <path d="M45.6607876,39.1595371 C45.4863466,39.029239 45.2691751,38.9763391 45.0571453,39.0124986 C44.8451154,39.048658 44.6556349,39.170908 44.5304717,39.3523004 L40.9973985,44.4874435 L37.4676694,39.3523004 C37.3430751,39.1701347 37.1535243,39.0472705 36.9412225,39.0110647 C36.7289207,38.9748589 36.5114935,39.0283174 36.3373534,39.1595371 C36.1631408,39.2882538 36.045576,39.4838423 36.0107334,39.7029237 C35.9758907,39.9220052 36.0266503,40.1464705 36.1517542,40.3265362 L39.2216655,44.7896129 L37.226892,44.7896129 C36.7787786,44.7896129 36.4209567,45.1699296 36.4209567,45.6336033 C36.4209567,46.0972771 36.7804507,46.4741205 37.226892,46.4741205 L40.188119,46.4741205 L40.188119,47.4032046 L37.226892,47.4032046 C36.7787786,47.4032046 36.4209567,47.780048 36.4209567,48.2437218 C36.4209567,48.7073955 36.7787786,49.084239 37.2252199,49.084239 L40.186447,49.084239 L40.186447,51.1594828 C40.186447,51.6236876 40.5487737,52 40.9957264,52 C41.4426791,52 41.8050058,51.6236876 41.8050058,51.1594828 L41.8050058,49.084239 L44.769577,49.084239 C45.2156062,49.084239 45.5771844,48.7087041 45.5771844,48.2454584 C45.5771844,47.7822127 45.2156062,47.4066778 44.769577,47.4066778 L41.8050058,47.4066778 L41.8050058,46.4775937 L44.769577,46.4775937 C45.2174531,46.4775937 45.5805284,46.1005038 45.5805284,45.6353399 C45.5805284,45.170176 45.2174531,44.7930862 44.769577,44.7930862 L42.7748035,44.7930862 L45.8447148,40.3300094 C45.971957,40.1502396 46.0241629,39.924838 45.9895601,39.7046331 C45.9549572,39.4844282 45.8364593,39.2879617 45.6607876,39.1595371 Z" id="Shape" fill="#FF9A20" fill-rule="nonzero"></path>
                    <path d="M27.6795761,48.3865896 C26.9137236,47.6385773 26.051686,47.1356662 25.0299445,47.1175105 L24.9718703,47.1175105 C22.7704983,47.1175105 21.224275,49.3488384 19.7324961,51.5075437 C19.1916809,52.2954983 18.6309027,53.1034242 18.1100505,53.6916669 C17.6291242,54.2381516 17.4258648,54.4542037 17.2534572,54.4433103 C17.1427534,54.4396791 16.9068273,54.2127337 16.4876048,53.6880357 C16.0266415,53.1106865 15.5620486,52.3626742 15.0666038,51.5710884 C13.7091213,49.3978586 12.3044536,47.144744 10.1139705,47.1175105 L10.088563,47.1175105 C9.34993285,47.1175105 8.60585823,47.4933322 7.43348699,48.4501343 C6.74748648,49.0111435 5.89270807,49.7863892 4.89818881,50.7686092 C4.3682625,51.289676 3.83833618,51.8288985 3.33381728,52.342703 L3.33381728,3.59481623 C3.33381728,3.45501782 3.44996552,3.33882174 3.593336,3.33882174 L46.4048492,3.33882174 C46.5500345,3.33882174 46.6679975,3.45320226 46.6679975,3.59481623 L46.6679975,32.8617039 C47.8839244,33.431791 49.0109252,34.1707254 50,35.0603516 L50,3.59481623 C50,1.61222061 48.3902581,0 46.406664,0 L3.59152118,0 C1.60851459,0.00300175575 0.00199874795,1.6109915 0,3.59481623 L0,56.1227067 C0.000166276418,56.881204 0.46576808,57.5618016 1.17246023,57.836561 C1.87915237,58.1113204 2.68196695,57.9238786 3.19407644,57.3645523 C4.40065517,56.0458617 5.63438947,54.7522981 6.89448659,53.4846926 C8.83089543,51.5547483 9.90163696,50.5416638 10.1793038,50.548926 C10.4116003,50.5561883 10.5241189,50.8466785 10.8235636,51.2225002 C11.2845269,51.7998494 11.747305,52.5478617 12.240935,53.3430786 C13.5947878,55.5054151 14.9940111,57.7476363 17.1717905,57.7966565 C17.1953831,57.7966565 17.2171609,57.8002876 17.2425683,57.7966565 C19.4421255,57.7966565 20.9865341,55.5653287 22.4783129,53.4066234 C23.020943,52.6222998 23.583536,51.8071117 24.1025734,51.218869 C24.5925738,50.6651221 24.8593517,50.44907 24.9646111,50.4635945 C25.1406483,50.4890124 25.3130558,50.6796466 25.7522413,51.2079757 C26.2222787,51.7816938 26.7013901,52.5278905 27.2095387,53.3140296 C28.5633915,55.4091902 29.9626148,57.5769733 32.0714312,57.7076939 L32.260172,57.711325 C32.9788392,57.711325 33.6466916,57.4843796 34.2764328,57.112189 C30.9568095,55.2519162 28.5652047,52.0885634 27.6795761,48.3865896 Z M47.7677761,57.9999997 C49.0018511,57.9999997 49.9981852,56.999624 49.9981852,55.7723029 L49.9981852,55.3855879 C48.9732752,56.3069704 47.8127274,57.0650664 46.5572937,57.6332558 C46.915638,57.8726086 47.3369012,58.0002401 47.7677761,57.9999997 Z" id="Shape" fill="#FFFFFF" fill-rule="nonzero"></path>
                    <path d="M12.2909432,8.67902923 C12.2909432,7.75109668 11.5520502,7 10.6445749,7 C9.73709954,7 9,7.75109668 9,8.67902923 L9,39 L28.6434336,39 C29.2599187,37.7708061 30.0542761,36.6425503 31,35.6528798 L12.2909432,35.6528798 L12.2909432,8.67902923 Z" id="Shape" fill="#FFFFFF" fill-rule="nonzero"></path>
                    <path d="M38.9693652,12.0000079 C38.3637613,11.9998353 37.8044574,12.320965 37.5036346,12.8415711 L37.4962784,12.8415711 L30.8076183,24.6781034 L22.5575965,23.011371 L22.5557575,23.011371 L13.7356272,29.2884855 C13.2745846,29.5978916 12.9988966,30.1139855 13.0000033,30.665589 C12.9999468,31.2954057 13.357172,31.8718327 13.9241884,32.1568754 C14.4912047,32.4419181 15.171823,32.3872216 15.6850305,32.015369 L23.3263235,26.5779961 L32.5418516,28.4414576 L32.5492078,28.4432791 L32.5492078,28.4414576 L40.3836021,14.5829877 C40.7232656,14.0695035 40.7508302,13.4127534 40.4553677,12.8731169 C40.1599051,12.3334804 39.5891413,11.9981249 38.9693652,12.0000079 Z" id="Shape" fill="#FFFFFF" fill-rule="nonzero"></path>
                    <path d="M41.1688806,34.7909379 C35.3141974,34.7909379 30.568039,39.491948 30.568039,45.2909379 C30.568039,51.0899278 35.3141974,55.7909379 41.1688806,55.7909379 C47.0235637,55.7909379 51.7697222,51.0899278 51.7697222,45.2909379 C51.7697222,39.491948 47.0235637,34.7909379 41.1688806,34.7909379 Z" id="Path" stroke="#FF9A20" stroke-width="2.5"></path>
                </g>
            </g>
        </g>
    </g>
</svg>