<?xml version="1.0" encoding="UTF-8"?>
<svg width="107px" height="107px" viewBox="0 0 107 107" version="1.1" xmlns="http://www.w3.org/2000/svg" xmlns:xlink="http://www.w3.org/1999/xlink">
    <!-- Generator: Sketch 49.2 (51160) - http://www.bohemiancoding.com/sketch -->
    <title>30</title>
    <desc>Created with Sketch.</desc>
    <defs></defs>
    <g id="Page-1" stroke="none" stroke-width="1" fill="none" fill-rule="evenodd">
        <g id="猩租客PC端官网" transform="translate(-335.000000, -5938.000000)">
            <g id="Group-7" transform="translate(335.000000, 5938.000000)">
                <g id="Group-51">
                    <circle id="Oval-4" fill="#F4F4F4" cx="53.5" cy="53.5" r="53.5"></circle>
                    <g id="Page-1" transform="translate(27.137681, 24.811594)" fill="#FF9A20">
                        <path d="M6.48389289,53.4154855 C5.56826416,53.4154855 4.82606173,52.6738514 4.82606173,51.7593116 L4.82606173,6.25213406 C4.82606173,5.33177899 5.57253192,4.58588043 6.49359234,4.58588043 L42.0040797,4.58588043 C42.9247521,4.58588043 43.6716103,5.33177899 43.6716103,6.25213406 L43.6716103,27.8766014 C43.6716103,29.2078986 44.7517418,30.2875906 46.0840592,30.2875906 C47.4171525,30.2875906 48.497284,29.2078986 48.497284,27.8766014 L48.497284,4.84601449 C48.497284,2.16946377 46.3257696,0 43.6475556,0 L4.8497284,0 C2.17151439,0 0,2.16946377 0,4.84601449 L0,53.3061594 C0,55.9823225 2.17151439,58.1521739 4.8497284,58.1521739 L24.7887078,58.1521739 C26.0973585,58.1521739 27.1584791,57.0914783 27.1584791,55.7838297 C27.1584791,54.4757935 26.0973585,53.4154855 24.7887078,53.4154855 L6.48389289,53.4154855 Z M40.7978552,49.9379855 C38.1530073,49.9379855 36.0078755,47.7952717 36.0078755,45.1516739 C36.0078755,42.5076884 38.1526194,40.3641993 40.7978552,40.3641993 C43.4434791,40.3641993 45.5889989,42.5073007 45.5889989,45.1516739 C45.5889989,47.7956594 43.4434791,49.9379855 40.7978552,49.9379855 Z M52.3425367,38.7173297 C52.3072307,38.6572391 52.2730886,38.599087 52.2404984,38.5432609 C51.7128479,37.645779 50.7231154,37.1421812 49.6837216,37.2065362 C47.7911636,37.3240036 44.7885997,36.9560942 43.4337796,33.7941667 C43.0062275,32.7951123 42.016107,32.1515616 40.9286039,32.1515616 L40.8215219,32.1515616 C39.7320789,32.1515616 38.7559256,32.76875 38.3175101,33.7418297 C37.5780235,35.3832717 35.8701432,37.6550833 32.1467157,37.2670145 C31.0801634,37.15575 30.0403817,37.63725 29.4882886,38.5548913 L29.3947858,38.7111268 C28.8073867,39.687308 28.892354,40.9197464 29.5961465,41.8152899 C30.6805458,43.1942717 31.7218795,45.5909167 29.5041957,48.5260507 C28.820966,49.4305109 28.7825561,50.6687645 29.3715071,51.6368043 L29.4397913,51.7488442 C30.016715,52.6967246 31.0724039,53.2010978 32.1471037,53.0588188 C33.9015414,52.8262101 36.6321325,53.1111558 38.2081002,56.5122826 C38.6647507,57.4981558 39.6273248,58.1521739 40.7148279,58.1521739 L41.0279263,58.1521739 C42.0789595,58.1521739 43.0481292,57.5566957 43.4919763,56.604163 C44.2531897,54.9696993 45.9835728,52.6769529 49.6313445,53.0522283 C50.7134159,53.1634928 51.7551376,52.6025181 52.3060667,51.6658804 L52.3347771,51.6170326 C52.890362,50.673029 52.8201379,49.5123116 52.1989847,48.622971 C51.1619188,47.1393152 50.0848911,44.5542572 52.193553,41.7249601 C52.8472964,40.8480254 52.8981216,39.6590072 52.3425367,38.7173297 Z M13.355764,34.8459457 L23.462598,34.8459457 C24.8294455,34.8459457 25.9378994,35.9527754 25.9378994,37.3185761 C25.9378994,38.6847645 24.8294455,39.7915942 23.462598,39.7915942 L13.355764,39.7915942 C11.9885286,39.7915942 10.8808506,38.6847645 10.8808506,37.3185761 C10.8808506,35.9527754 11.9885286,34.8459457 13.355764,34.8459457 Z M13.355764,11.7820181 L35.1962249,11.7820181 C36.5630724,11.7820181 37.6711383,12.8892355 37.6711383,14.2550362 C37.6711383,15.6212246 36.5630724,16.728442 35.1962249,16.728442 L13.355764,16.728442 C11.9885286,16.728442 10.8808506,15.6212246 10.8808506,14.2550362 C10.8808506,12.8892355 11.9885286,11.7820181 13.355764,11.7820181 Z M13.355764,23.1790688 L35.1962249,23.1790688 C36.5630724,23.1790688 37.6711383,24.2862862 37.6711383,25.652087 C37.6711383,27.0178877 36.5630724,28.1251051 35.1962249,28.1251051 L13.355764,28.1251051 C11.9885286,28.1251051 10.8808506,27.0178877 10.8808506,25.652087 C10.8808506,24.2862862 11.9885286,23.1790688 13.355764,23.1790688 Z" id="Fill-1"></path>
                    </g>
                </g>
            </g>
        </g>
    </g>
</svg>