<?xml version="1.0" encoding="UTF-8"?>
<svg width="316px" height="396px" viewBox="0 0 316 396" version="1.1" xmlns="http://www.w3.org/2000/svg" xmlns:xlink="http://www.w3.org/1999/xlink">
    <!-- Generator: Sketch 49.2 (51160) - http://www.bohemiancoding.com/sketch -->
    <title>300</title>
    <desc>Created with Sketch.</desc>
    <defs>
        <polygon id="path-1" points="0 0 19 0 19 25 0 25"></polygon>
        <polygon id="path-3" points="0 0 19 0 19 25 0 25"></polygon>
        <polygon id="path-5" points="0 0 19 0 19 25 0 25"></polygon>
        <polygon id="path-7" points="0 0 19 0 19 25 0 25"></polygon>
        <polygon id="path-9" points="0 0 15 0 15 26 0 26"></polygon>
        <polygon id="path-11" points="8.33333333e-05 0.0739249639 34.9628611 0.0739249639 34.9628611 22.7878788 8.33333333e-05 22.7878788"></polygon>
        <polygon id="path-13" points="0.0458611111 0.0563675464 19.9628056 0.0563675464 19.9628056 16.2646694 0.0458611111 16.2646694"></polygon>
    </defs>
    <g id="Page-1" stroke="none" stroke-width="1" fill="none" fill-rule="evenodd">
        <g id="猩租客移动端" transform="translate(-29.000000, -7977.000000)">
            <g id="Group-17" transform="translate(30.000000, 7978.000000)">
                <g id="Group-19">
                    <path d="M206.89246,34.4958819 C214.51136,36.3264621 220.202429,43.5917142 220.202429,52.2755102 C220.202429,58.9287044 216.861748,64.7492074 211.872865,67.9308048 C217.941338,71.8331657 222,78.9337152 222,87.0459184 C222,99.3624318 212.644201,109.346939 201.103239,109.346939 C199.343554,109.346939 197.634669,109.114819 196.002003,108.677705 C189.221126,120.308732 177.134909,128.05102 163.354251,128.05102 C160.672932,128.05102 158.055761,127.757913 155.529336,127.200085 C148.296062,135.678552 137.870021,141 126.279352,141 C111.531303,141 98.66881,132.38447 91.8699432,119.612247 C87.2478317,123.114508 81.5982111,125.173469 75.4979757,125.173469 C63.8370362,125.173469 53.8226638,117.649933 49.4844122,106.903198 C44.3505079,110.8552 38.0464502,113.183673 31.2327935,113.183673 C13.983398,113.183673 0,98.2605932 0,79.8520408 C0,66.2992097 7.57937672,54.635598 18.4613136,49.4254236 C15.9101167,46.0823466 14.3805668,41.8159831 14.3805668,37.1683673 C14.3805668,26.4410814 22.5291656,17.744898 32.5809717,17.744898 C35.3518094,17.744898 37.97803,18.4056868 40.3288173,19.5876577 C44.1296644,10.5840758 52.6117601,4.31632653 62.465587,4.31632653 C67.9958174,4.31632653 73.0939863,6.29051317 77.1750617,9.61454043 C81.0424528,3.7966418 87.4043515,0 94.597166,0 C102.30348,0 109.056004,4.35808116 112.808811,10.8908296 C117.763848,5.64123053 124.587749,2.39795918 132.121457,2.39795918 C140.305345,2.39795918 147.651622,6.22519322 152.6745,12.2940289 C158.447687,7.02130178 165.945202,3.83673469 174.139676,3.83673469 C190.923928,3.83673469 204.784233,17.1969101 206.89246,34.4958819 Z" id="Combined-Shape" fill-opacity="0.194802989" fill="#FFFFFF"></path>
                    <path d="M206.89246,34.4958819 C214.51136,36.3264621 220.202429,43.5917142 220.202429,52.2755102 C220.202429,58.9287044 216.861748,64.7492074 211.872865,67.9308048 C217.941338,71.8331657 222,78.9337152 222,87.0459184 C222,99.3624318 212.644201,109.346939 201.103239,109.346939 C199.343554,109.346939 197.634669,109.114819 196.002003,108.677705 C189.221126,120.308732 177.134909,128.05102 163.354251,128.05102 C160.672932,128.05102 158.055761,127.757913 155.529336,127.200085 C148.296062,135.678552 137.870021,141 126.279352,141 C111.531303,141 98.66881,132.38447 91.8699432,119.612247 C87.2478317,123.114508 81.5982111,125.173469 75.4979757,125.173469 C63.8370362,125.173469 53.8226638,117.649933 49.4844122,106.903198 C44.3505079,110.8552 38.0464502,113.183673 31.2327935,113.183673 C13.983398,113.183673 0,98.2605932 0,79.8520408 C0,66.2992097 7.57937672,54.635598 18.4613136,49.4254236 C15.9101167,46.0823466 14.3805668,41.8159831 14.3805668,37.1683673 C14.3805668,26.4410814 22.5291656,17.744898 32.5809717,17.744898 C35.3518094,17.744898 37.97803,18.4056868 40.3288173,19.5876577 C44.1296644,10.5840758 52.6117601,4.31632653 62.465587,4.31632653 C67.9958174,4.31632653 73.0939863,6.29051317 77.1750617,9.61454043 C81.0424528,3.7966418 87.4043515,0 94.597166,0 C102.30348,0 109.056004,4.35808116 112.808811,10.8908296 C117.763848,5.64123053 124.587749,2.39795918 132.121457,2.39795918 C140.305345,2.39795918 147.651622,6.22519322 152.6745,12.2940289 C158.447687,7.02130178 165.945202,3.83673469 174.139676,3.83673469 C190.923928,3.83673469 204.784233,17.1969101 206.89246,34.4958819 Z" id="Combined-Shape-Copy" stroke="#FFFFFF"></path>
                    <text id="PC" font-family="PingFangSC-Light, PingFang SC" font-size="10" font-weight="300" letter-spacing="-0.241176456" fill="#FFFFFF">
                        <tspan x="85" y="55">PC</tspan>
                    </text>
                    <text id="Mobile" font-family="PingFangSC-Light, PingFang SC" font-size="10" font-weight="300" letter-spacing="-0.241176456" fill="#FFFFFF">
                        <tspan x="27" y="94">Mobile</tspan>
                    </text>
                    <text id="门锁zigbee" font-family="PingFangSC-Light, PingFang SC" font-size="10" font-weight="300" letter-spacing="-0.241176456" fill="#FFFFFF">
                        <tspan x="7" y="309">门锁zigbee</tspan>
                    </text>
                    <text id="门锁zigbee-copy" font-family="PingFangSC-Light, PingFang SC" font-size="10" font-weight="300" letter-spacing="-0.241176456" fill="#FFFFFF">
                        <tspan x="78" y="392">门锁zigbee</tspan>
                    </text>
                    <text id="门锁zigbee-copy-2" font-family="PingFangSC-Light, PingFang SC" font-size="10" font-weight="300" letter-spacing="-0.241176456" fill="#FFFFFF">
                        <tspan x="168" y="392">门锁zigbee</tspan>
                    </text>
                    <text id="门锁zigbee-copy-3" font-family="PingFangSC-Light, PingFang SC" font-size="10" font-weight="300" letter-spacing="-0.241176456" fill="#FFFFFF">
                        <tspan x="252" y="307">门锁zigbee</tspan>
                    </text>
                    <text id="Zigbee-wife网关" font-family="PingFangSC-Light, PingFang SC" font-size="10" font-weight="300" letter-spacing="-0.241176456" fill="#FFFFFF">
                        <tspan x="156" y="307">Zigbee-wife网关</tspan>
                    </text>
                    <text id="Clound-Server" font-family="PingFangSC-Light, PingFang SC" font-size="10" font-weight="300" letter-spacing="-0.241176456" fill="#FFFFFF">
                        <tspan x="133" y="95">Clound Server</tspan>
                    </text>
                    <text id="Wife路由器" font-family="PingFangSC-Light, PingFang SC" font-size="10" font-weight="300" letter-spacing="-0.241176456" fill="#FFFFFF">
                        <tspan x="260" y="117">Wife路由器</tspan>
                    </text>
                    <g id="Group-94" transform="translate(197.000000, 68.000000)">
                        <path d="M2.97142857,3 L48.7762675,3" id="Path-7" stroke="#FFFFFF" stroke-dasharray="3"></path>
                        <polygon id="Triangle-2" fill="#FFFFFF" points="52 3 46.0571429 6 46.0571429 0"></polygon>
                        <polygon id="Triangle-2-Copy" fill="#FFFFFF" transform="translate(2.971429, 3.000000) rotate(-180.000000) translate(-2.971429, -3.000000) " points="5.94285714 3 0 6 0 0"></polygon>
                    </g>
                    <g id="Group-94-Copy-2" transform="translate(61.000000, 69.000000)">
                        <path d="M2.97986577,3 L69.2823442,3" id="Path-7" stroke="#FFFFFF" stroke-dasharray="3"></path>
                        <polygon id="Triangle-2" fill="#FFFFFF" points="74 3 68.0402685 6 68.0402685 0"></polygon>
                        <polygon id="Triangle-2-Copy" fill="#FFFFFF" transform="translate(2.979866, 3.000000) rotate(-180.000000) translate(-2.979866, -3.000000) " points="5.95973154 3 0 6 0 0"></polygon>
                    </g>
                    <g id="Group-94-Copy-3" transform="translate(111.000000, 25.000000)">
                        <path d="M0,3 L52.3059839,3" id="Path-7" stroke="#FFFFFF" stroke-dasharray="3"></path>
                        <polygon id="Triangle-2" fill="#FFFFFF" points="57 3 51.0521739 6 51.0521739 0"></polygon>
                    </g>
                    <g id="Group-94-Copy" transform="translate(212.000000, 111.000000)">
                        <path d="M3,2.9068323 L35,2.9068323 L35,74.6086957" id="Path-7" stroke="#FFFFFF" stroke-dasharray="3" transform="translate(19.000000, 38.757764) scale(-1, 1) translate(-19.000000, -38.757764) "></path>
                        <polygon id="Triangle-2-Copy" fill="#FFFFFF" transform="translate(3.000000, 75.093168) rotate(-270.000000) translate(-3.000000, -75.093168) " points="6 75.0931677 0 78 0 72.1863354"></polygon>
                        <polygon id="Triangle-2" fill="#FFFFFF" points="38 2.9068323 32 5.8136646 32 0"></polygon>
                    </g>
                    <g id="Group-96" transform="translate(30.000000, 213.000000)">
                        <path d="M3,30.2054795 L3,0 L245.5,0 L245.5,30.2054795" id="Path-8" stroke="#FFFFFF" stroke-dasharray="3"></path>
                        <polygon id="Triangle-2-Copy" fill="#FFFFFF" transform="translate(3.250000, 32.602740) rotate(-270.000000) translate(-3.250000, -32.602740) " points="5.5 32.6027397 1 35.4794521 1 29.7260274"></polygon>
                        <polygon id="Triangle-2-Copy-2" fill="#FFFFFF" transform="translate(245.750000, 32.602740) rotate(-270.000000) translate(-245.750000, -32.602740) " points="248 32.6027397 243.5 35.4794521 243.5 29.7260274"></polygon>
                    </g>
                    <path d="M114,328 L114,253 L131,253" id="Path-10" stroke="#FFFFFF" stroke-dasharray="3"></path>
                    <path d="M175,265 L175,253 L192,253" id="Path-10-Copy-2" stroke="#FFFFFF" stroke-dasharray="3" transform="translate(183.500000, 259.000000) scale(-1, 1) translate(-183.500000, -259.000000) "></path>
                    <g id="Group-95" transform="translate(152.000000, 213.000000)">
                        <path d="M3,0 L3,21.9087301" id="Path-9" stroke="#FFFFFF" stroke-dasharray="3"></path>
                        <polygon id="Triangle-2-Copy" fill="#FFFFFF" transform="translate(3.000000, 23.111111) rotate(-270.000000) translate(-3.000000, -23.111111) " points="6 23.1111111 0 26 0 20.2222222"></polygon>
                    </g>
                    <polygon id="Triangle-2-Copy-3" fill="#FFFFFF" points="114 333 111 327 117 327"></polygon>
                    <g id="Group-130" transform="translate(188.000000, 313.000000)">
                        <path d="M3.16666667,0.277058314 L3.16666667,14.5447468" id="Path-11" stroke="#FFFFFF" stroke-dasharray="3"></path>
                        <polygon id="Triangle-2-Copy-4" fill="#FFFFFF" transform="translate(3.000000, 16.150000) rotate(-270.000000) translate(-3.000000, -16.150000) " points="6 16.15 0 19 0 13.3"></polygon>
                    </g>
                    <g id="Page-1" transform="translate(94.000000, 352.000000)">
                        <mask id="mask-2" fill="white">
                            <use xlink:href="#path-1"></use>
                        </mask>
                        <g id="Clip-2"></g>
                        <path d="M9.5,0 C6.34237161,0 3.79992308,2.5733405 3.79992308,5.76933558 L3.79992308,9.61523489 C1.70996539,9.61523489 0,11.3461718 0,13.4615235 L0,21.153906 C0,23.2692577 1.70996539,25 3.79992308,25 L15.2000769,25 C17.2900346,25 19,23.2692577 19,21.153906 L19,13.4615235 C19,11.3461718 17.2900346,9.61523489 15.2000769,9.61523489 L5.70007692,9.61523489 L5.70007692,5.76933558 C5.70007692,3.58060448 7.33754377,1.92304698 9.5,1.92304698 C11.6624562,1.92304698 13.2999231,3.58060448 13.2999231,5.76933558 L13.2999231,9.61523489 L15.2000769,9.61523489 L15.2000769,5.76933558 C15.2000769,2.5733405 12.6576284,0 9.5,0 M9.5,14.423047 C10.5449788,14.423047 11.3999615,15.2884181 11.3999615,16.346094 C11.3999615,17.0191604 11.0199692,17.6803538 10.4499808,17.9686162 L10.4499808,20.1923826 C10.4499808,20.7692966 10.0699885,21.153906 9.5,21.153906 C8.93001154,21.153906 8.55001923,20.7692966 8.55001923,20.1923826 L8.55001923,17.9686162 C7.98003077,17.6803538 7.60003846,17.0191604 7.60003846,16.346094 C7.60003846,15.2884181 8.45502115,14.423047 9.5,14.423047" id="Fill-1" fill="#FFFFFF" mask="url(#mask-2)"></path>
                    </g>
                    <g id="Page-1-Copy-3" transform="translate(23.000000, 269.000000)">
                        <mask id="mask-4" fill="white">
                            <use xlink:href="#path-3"></use>
                        </mask>
                        <g id="Clip-2"></g>
                        <path d="M9.5,0 C6.34237161,0 3.79992308,2.5733405 3.79992308,5.76933558 L3.79992308,9.61523489 C1.70996539,9.61523489 0,11.3461718 0,13.4615235 L0,21.153906 C0,23.2692577 1.70996539,25 3.79992308,25 L15.2000769,25 C17.2900346,25 19,23.2692577 19,21.153906 L19,13.4615235 C19,11.3461718 17.2900346,9.61523489 15.2000769,9.61523489 L5.70007692,9.61523489 L5.70007692,5.76933558 C5.70007692,3.58060448 7.33754377,1.92304698 9.5,1.92304698 C11.6624562,1.92304698 13.2999231,3.58060448 13.2999231,5.76933558 L13.2999231,9.61523489 L15.2000769,9.61523489 L15.2000769,5.76933558 C15.2000769,2.5733405 12.6576284,0 9.5,0 M9.5,14.423047 C10.5449788,14.423047 11.3999615,15.2884181 11.3999615,16.346094 C11.3999615,17.0191604 11.0199692,17.6803538 10.4499808,17.9686162 L10.4499808,20.1923826 C10.4499808,20.7692966 10.0699885,21.153906 9.5,21.153906 C8.93001154,21.153906 8.55001923,20.7692966 8.55001923,20.1923826 L8.55001923,17.9686162 C7.98003077,17.6803538 7.60003846,17.0191604 7.60003846,16.346094 C7.60003846,15.2884181 8.45502115,14.423047 9.5,14.423047" id="Fill-1" fill="#FFFFFF" mask="url(#mask-4)"></path>
                    </g>
                    <g id="Page-1-Copy" transform="translate(182.000000, 352.000000)">
                        <mask id="mask-6" fill="white">
                            <use xlink:href="#path-5"></use>
                        </mask>
                        <g id="Clip-2"></g>
                        <path d="M9.5,0 C6.34237161,0 3.79992308,2.5733405 3.79992308,5.76933558 L3.79992308,9.61523489 C1.70996539,9.61523489 0,11.3461718 0,13.4615235 L0,21.153906 C0,23.2692577 1.70996539,25 3.79992308,25 L15.2000769,25 C17.2900346,25 19,23.2692577 19,21.153906 L19,13.4615235 C19,11.3461718 17.2900346,9.61523489 15.2000769,9.61523489 L5.70007692,9.61523489 L5.70007692,5.76933558 C5.70007692,3.58060448 7.33754377,1.92304698 9.5,1.92304698 C11.6624562,1.92304698 13.2999231,3.58060448 13.2999231,5.76933558 L13.2999231,9.61523489 L15.2000769,9.61523489 L15.2000769,5.76933558 C15.2000769,2.5733405 12.6576284,0 9.5,0 M9.5,14.423047 C10.5449788,14.423047 11.3999615,15.2884181 11.3999615,16.346094 C11.3999615,17.0191604 11.0199692,17.6803538 10.4499808,17.9686162 L10.4499808,20.1923826 C10.4499808,20.7692966 10.0699885,21.153906 9.5,21.153906 C8.93001154,21.153906 8.55001923,20.7692966 8.55001923,20.1923826 L8.55001923,17.9686162 C7.98003077,17.6803538 7.60003846,17.0191604 7.60003846,16.346094 C7.60003846,15.2884181 8.45502115,14.423047 9.5,14.423047" id="Fill-1" fill="#FFFFFF" mask="url(#mask-6)"></path>
                    </g>
                    <g id="Page-1-Copy-2" transform="translate(265.000000, 269.000000)">
                        <mask id="mask-8" fill="white">
                            <use xlink:href="#path-7"></use>
                        </mask>
                        <g id="Clip-2"></g>
                        <path d="M9.5,0 C6.34237161,0 3.79992308,2.5733405 3.79992308,5.76933558 L3.79992308,9.61523489 C1.70996539,9.61523489 0,11.3461718 0,13.4615235 L0,21.153906 C0,23.2692577 1.70996539,25 3.79992308,25 L15.2000769,25 C17.2900346,25 19,23.2692577 19,21.153906 L19,13.4615235 C19,11.3461718 17.2900346,9.61523489 15.2000769,9.61523489 L5.70007692,9.61523489 L5.70007692,5.76933558 C5.70007692,3.58060448 7.33754377,1.92304698 9.5,1.92304698 C11.6624562,1.92304698 13.2999231,3.58060448 13.2999231,5.76933558 L13.2999231,9.61523489 L15.2000769,9.61523489 L15.2000769,5.76933558 C15.2000769,2.5733405 12.6576284,0 9.5,0 M9.5,14.423047 C10.5449788,14.423047 11.3999615,15.2884181 11.3999615,16.346094 C11.3999615,17.0191604 11.0199692,17.6803538 10.4499808,17.9686162 L10.4499808,20.1923826 C10.4499808,20.7692966 10.0699885,21.153906 9.5,21.153906 C8.93001154,21.153906 8.55001923,20.7692966 8.55001923,20.1923826 L8.55001923,17.9686162 C7.98003077,17.6803538 7.60003846,17.0191604 7.60003846,16.346094 C7.60003846,15.2884181 8.45502115,14.423047 9.5,14.423047" id="Fill-1" fill="#FFFFFF" mask="url(#mask-8)"></path>
                    </g>
                    <g id="Page-1" transform="translate(256.000000, 49.000000)">
                        <path d="M55.6373057,39.4929535 C55.6359287,38.7492136 55.0176446,38.1464989 54.2551172,38.1454916 L4.74694837,38.1454916 C3.98407669,38.1464989 3.36613686,38.7492136 3.36544835,39.4929535 L3.36544835,43.4594542 C3.36613686,44.2035298 3.98407669,44.8065803 4.74694837,44.8075876 L54.2578712,44.8075876 C54.6272581,44.8082592 54.9818419,44.6645478 55.2417554,44.4086879 C55.5002917,44.1575288 55.6445351,43.8157106 55.6431581,43.4594542 L55.6373057,39.4929535 Z M59,39.4929535 L59,43.4594542 C58.9996557,46.0157032 56.8755952,48.0874301 54.2551172,48.0877659 L54.2337733,48.0877659 C54.3769838,48.9936847 53.7394214,49.8411788 52.8106183,49.9805251 C52.7252427,49.9936203 52.6388344,50 52.5524261,50 L50.6972296,50 C49.7574103,49.9996642 48.9959156,49.2562601 48.9962599,48.3395965 C48.9962599,48.2553172 49.003145,48.1710379 49.0162267,48.0877659 L9.22296714,48.0877659 C9.36583345,48.9936847 8.72861527,49.8411788 7.79946786,49.9805251 C7.71409233,49.9936203 7.62802829,50 7.54161999,50 L5.68435793,50 C4.74419432,50 3.98235541,49.2565959 3.98269967,48.3399323 C3.98269967,48.2365139 3.99233884,48.1334312 4.01196144,48.0323631 C1.7037238,47.6777856 0.00240979321,45.7390253 0,43.4594542 L0,39.4929535 C0.00344256173,36.9387191 2.12578187,34.8686711 4.74453858,34.8653133 L7.79361551,34.8653133 L7.78673038,14.3605898 L12.5309247,14.3605898 L12.5381541,34.867328 L18.1891192,34.867328 L18.1818898,14.2135207 L22.9260841,14.2135207 L22.9333135,34.8690069 L54.2578712,34.8690069 C56.8742181,34.8740435 58.9941476,36.9410695 59,39.4929535 Z M22.9243636,11.8268376 L22.9243628,4.7604694 C22.9253956,3.48620628 21.8668079,2.45235749 20.5603557,2.45101439 L20.5496838,2.45101439 C19.919695,2.44765665 19.3151811,2.6931076 18.874189,3.13230026 C18.4270002,3.56612054 18.1774145,4.15708315 18.1805128,4.77222149 L18.1804843,11.8268376 L22.9243636,11.8268376 Z M7.78531826,11.977936 L7.78535336,4.92298411 C7.7819108,4.30784576 8.03184078,3.71688316 8.47902955,3.28306288 C8.92002171,2.84420599 9.52453555,2.59841927 10.1545243,2.60177701 C11.4613208,2.59707617 12.5243838,3.6265599 12.5288592,4.90082302 L12.5288592,4.91123202 L12.5288592,11.977936 L7.78531826,11.977936 Z" id="Fill-1" fill="#FFFFFF"></path>
                        <path d="M39.8263685,3.36889438 C40.6847038,4.22455056 41.2676081,4.91626476 41.8713062,5.82298483 C42.1852564,6.29498991 42.4760268,6.7807688 42.7432765,7.2803215 C42.8755379,7.52757825 43.0020043,7.77785853 43.1226757,8.03116232 C43.1826705,8.15747827 43.240961,8.28446611 43.2982288,8.4117899 C43.2361887,8.26094984 43.2511874,8.29656019 43.3422023,8.518285 C43.753985,9.54493803 44.071344,10.6058576 44.2901888,11.6886138 C44.3440478,11.9573711 44.3910892,12.2278082 44.4306313,12.499589 C44.3822264,12.1801037 44.4769909,12.9248975 44.4841494,12.9957823 C44.5345996,13.5403518 44.5598247,14.0869371 44.5598247,14.635202 C44.5598247,15.1831311 44.5345996,15.7297163 44.4841494,16.2746218 C44.4776727,16.3438268 44.3829081,17.0906363 44.4306313,16.770815 C44.3900666,17.041924 44.3430252,17.3123611 44.2901888,17.5817903 C44.071344,18.6642105 43.753985,19.725466 43.3422023,20.7517831 C43.2511874,20.9738439 43.2361887,21.0094542 43.2982288,20.8586142 C43.240961,20.985602 43.1826705,21.1125899 43.1226757,21.2389058 C43.0020043,21.4922096 42.8755379,21.7424899 42.7432765,21.9900826 C42.4763677,22.4889634 42.1859382,22.9747423 41.8713062,23.4474192 C41.2676081,24.3544753 40.684022,25.0458535 39.8263685,25.9011737 C38.016638,27.7058793 40.8411676,30.491885 42.6519208,28.6858357 C48.5972044,22.7553691 50.1499117,13.8033981 46.662371,6.23451951 C45.6946134,4.1341809 44.2942794,2.22096459 42.6519208,0.585240238 C40.8418493,-1.22047313 38.0176606,1.56418885 39.8263685,3.36990222 L39.8263685,3.36889438 Z M31.5027669,41.4827164 C31.5027669,40.5686055 30.751127,39.8278431 29.8239341,39.8278431 C28.8967412,39.8278431 28.1447605,40.5686055 28.1447605,41.4827164 C28.1447605,42.3964914 28.8967412,43.1372538 29.8239341,43.1372538 C30.7484,43.1322146 31.4962902,42.3941398 31.5000398,41.4827164 L31.5027669,41.4827164 Z M18.2312957,42.915193 C19.0337266,42.4579696 19.3077939,41.4467701 18.8435157,40.6562876 C18.3799193,39.866141 17.3535303,39.5960399 16.5517812,40.0529274 C15.7496911,40.5101508 15.4756238,41.5213503 15.9395612,42.3118328 C16.2388536,42.8217999 16.7910788,43.136246 17.3889818,43.1372538 C17.6848655,43.1375897 17.9749541,43.0613298 18.2312957,42.9158649 L18.2312957,42.915193 Z M11.1774711,43.1372538 C10.2495964,43.136246 9.49863833,42.3941398 9.50000185,41.4796929 C9.50102449,40.565918 10.2540279,39.8258274 11.1819025,39.8264993 C12.1090954,39.8278431 12.8603944,40.5699493 12.8593718,41.4840602 C12.85869,42.0746545 12.5386039,42.6198959 12.0201258,42.915193 C11.7641251,43.0609939 11.4730138,43.1375897 11.1774711,43.1372538 Z" id="Fill-3" fill="#FF9A20"></path>
                        <path d="M35.0955145,7.80254496 C33.2397247,5.98151067 36.1468949,3.18158182 38.0033864,5.00362911 C43.3322045,10.2320539 43.3322045,18.6892437 38.0033864,23.9180062 C36.1461933,25.7403911 33.2404263,22.9384363 35.0955145,21.1190903 C35.6564612,20.5690319 35.9697354,20.2063783 36.3338771,19.6667876 C36.5341902,19.3703166 36.7194184,19.0650663 36.8895617,18.7513743 C37.0158536,18.5342549 37.1270607,18.3097068 37.2228321,18.0787431 C37.4817305,17.4331251 37.6802895,16.7662342 37.8171058,16.086512 C37.914982,15.5496226 37.9609383,15.0053045 37.9542729,14.4606488 C37.9542729,14.1165669 37.9384864,13.7741732 37.9065626,13.4317796 C37.8970907,13.3301421 37.8479771,12.9671508 37.8900745,13.2409982 C37.8641145,13.0708144 37.831489,12.9016436 37.7960571,12.7328104 C37.6606441,12.0878678 37.4691013,11.4554188 37.2228321,10.8422169 C36.8379925,9.87615362 35.9827154,8.67338631 35.0955145,7.80254496" id="Fill-5" fill="#FF9A20"></path>
                        <path d="M30.6314234,12.6944061 C31.7749708,13.8531177 31.7826037,15.4895378 30.6314234,16.6549588 C28.8224258,18.4846093 31.6941314,21.2696769 33.5072924,19.4356653 C36.1642359,16.7817662 36.1642359,12.5675986 33.5072924,9.9136996 C31.696907,8.0803589 28.8217319,10.8647556 30.6314234,12.6944061 M23.708729,43.1372549 C22.7650249,43.1372549 22,42.3975447 22,41.4850677 C22,40.5725907 22.7650249,39.8325451 23.708729,39.8325451 C24.6527801,39.8325451 25.417805,40.5725907 25.417805,41.4850677 C25.4164172,42.3972092 24.6520862,43.1362485 23.708729,43.1372549" id="Fill-7" fill="#FF9A20"></path>
                    </g>
                    <path d="M187.053441,293.326349 L189.776624,293.326349 L189.776624,281.42518 L187.053441,281.42518 L187.053441,293.326349 Z M191.538831,289.359352 L193.54133,289.359352 L193.54133,286.589838 L191.538831,286.589838 L191.538831,289.359352 Z M195.303345,294 L195.303345,281.42518 L197.86659,281.42518 L197.86659,286.514928 L200.589773,286.514928 L195.303345,294 Z M209,285.317446 C209,287.56295 207.077662,289.359352 204.67474,289.359352 L200.750096,289.359352 L202.752403,286.589838 L204.754902,286.589838 C205.475779,286.589838 206.116494,285.991097 206.116494,285.317446 L206.116494,281.050989 C206.116494,280.377338 205.475779,279.778417 204.754902,279.778417 L180.32526,279.778417 C179.604383,279.778417 178.963476,280.377338 178.963476,281.050989 L178.963476,285.317446 C178.963476,285.991097 179.604383,286.589838 180.32526,286.589838 L185.291234,286.589838 L185.291234,289.359352 L180.32526,289.359352 C177.922338,289.359352 176,287.56295 176,285.317446 L176,281.050989 C176,278.805485 177.922338,277.009083 180.32526,277.009083 L187.053441,277.009083 L187.053441,274.913219 L184.330065,274.913219 L189.696655,269 L189.696655,277.083813 L195.303345,277.083813 L195.303345,269.07491 L197.86659,269.07491 L197.86659,277.009083 L204.67474,277.009083 C207.077662,277.009083 209,278.805485 209,281.050989 L209,285.317446 Z" id="Page-1" fill="#FFFFFF"></path>
                    <path d="M79.2129975,36.7996181 L102.659046,36.7996181 L102.659046,21.5201782 L79.2129975,21.5201782 L79.2129975,36.7996181 Z M92.4154197,38.8039465 L89.5845803,38.8039465 C89.4258195,38.8039465 89.297863,38.6249523 89.297863,38.4072565 C89.297863,38.185487 89.4258195,38.0064927 89.5845803,38.0064927 L92.4154197,38.0064927 C92.5744438,38.0064927 92.702137,38.185487 92.702137,38.4072565 C92.702137,38.6249523 92.5744438,38.8039465 92.4154197,38.8039465 Z M105.053359,38.2835137 L105.053359,20.2236792 C105.053359,19.5502228 104.533371,19 103.889376,19 L77.9829304,19 C77.3389355,19 76.8186845,19.5458943 76.8186845,20.2236792 L76.8186845,38.2835137 L73,38.2835137 L73,39.7760662 C73,40.4500318 73.520251,41 74.1639826,41 L107.836017,41 C108.479749,41 109,40.4541057 109,39.7760662 L109,38.2835137 L105.053359,38.2835137 Z" id="Page-1" fill="#FFFFFF"></path>
                    <g id="Page-1" transform="translate(35.000000, 55.000000)">
                        <mask id="mask-10" fill="white">
                            <use xlink:href="#path-9"></use>
                        </mask>
                        <g id="Clip-2"></g>
                        <path d="M1.66671698,21.1250552 L13.3330566,21.1250552 L13.3330566,4.06241722 L1.66671698,4.06241722 L1.66671698,21.1250552 Z M7.50633905,24.3793595 C7.0603417,24.3793595 6.66188723,24.0182362 6.66188723,23.5628587 C6.66188723,23.1072605 7.0603417,22.7443712 7.50633905,22.7443712 C7.97678701,22.7443712 8.33947114,23.1072605 8.33947114,23.5628587 C8.33947114,24.0182362 7.97678701,24.3793595 7.50633905,24.3793595 Z M5.83350942,1.62505518 L10.0000755,1.62505518 C10.4605621,1.62505518 10.8241518,1.80627908 10.8241518,2.03165008 C10.8241518,2.25635888 10.389927,2.43758278 10.0000755,2.43758278 L4.99992454,2.43758278 C4.58200012,2.43758278 4.17879135,2.25635888 4.17879135,2.03165008 C4.17879135,1.80627908 4.58630162,1.62505518 4.99992454,1.62505518 L5.83350942,1.62505518 Z M1.66671698,0.000220735559 C0.857809104,0.000220735559 0,0.832614528 0,1.62505518 L0,24.3751656 C0,25.1706965 0.875694277,26 1.66671698,26 L13.3330566,26 C14.0794796,26 15,25.1665025 15,24.3751656 L15,1.62505518 C15,0.828420552 14.1406061,0 13.3330566,0 L1.66671698,0.000220735559 Z" id="Fill-1" fill="#FFFFFF" mask="url(#mask-10)"></path>
                    </g>
                    <g id="Page-1" transform="translate(147.000000, 49.000000)">
                        <g id="Group-3" transform="translate(0.000000, 9.212121)">
                            <mask id="mask-12" fill="white">
                                <use xlink:href="#path-11"></use>
                            </mask>
                            <g id="Clip-2"></g>
                            <path d="M26.9553611,7.17207792 C25.9609167,7.17207792 24.99175,7.34651371 24.0736944,7.695114 C23.84425,3.46090909 20.2231389,0.0739249639 15.8111944,0.0739249639 C11.2461944,0.0739249639 7.52313889,3.70994805 7.52313889,8.16823377 C7.52313889,8.64135354 7.57425,9.13970274 7.65063889,9.61282251 C7.34452778,9.58786436 7.06397222,9.5629062 6.75786111,9.5629062 C3.03480556,9.5629062 8.33333333e-05,12.5266869 8.33333333e-05,16.1629812 C8.33333333e-05,19.8242338 3.03480556,22.7880144 6.75786111,22.7880144 L26.9553611,22.7880144 C31.3673056,22.7880144 34.9628611,19.2762395 34.9628611,14.9674315 C34.9628611,10.6588947 31.3673056,7.17207792 26.9553611,7.17207792" id="Fill-1" fill="#FFFFFF" mask="url(#mask-12)"></path>
                        </g>
                        <g id="Group-6" transform="translate(15.000000, 0.000000)">
                            <mask id="mask-14" fill="white">
                                <use xlink:href="#path-13"></use>
                            </mask>
                            <g id="Clip-5"></g>
                            <path d="M1.57613889,5.81726373 L1.57613889,1.71625885 C1.57613889,1.61867918 1.67808333,1.52109951 1.78002778,1.52109951 L18.2289167,1.52109951 C18.3308611,1.52109951 18.4330833,1.61867918 18.4330833,1.71625885 L18.4330833,5.81726373 L1.57613889,5.81726373 Z M18.2289167,0.056340958 L1.78002778,0.056340958 C0.836694444,0.056340958 0.0458611111,0.813314565 0.0458611111,1.71625885 L0.0458611111,6.54951007 C0.0458611111,6.96429013 0.377805556,7.2817564 0.811138889,7.2817564 L18.4330833,7.2817564 L18.4330833,11.3338385 L10.5528056,11.3338385 C10.1191944,11.3338385 9.78780556,11.6510389 9.78780556,12.0660848 C9.78780556,12.4808649 10.1191944,12.7985971 10.5528056,12.7985971 L18.4330833,12.7985971 L18.4330833,15.5324231 C18.4330833,15.947469 18.7644722,16.2646694 19.1978056,16.2646694 C19.6314167,16.2646694 19.9628056,15.947469 19.9628056,15.5324231 L19.9628056,1.71625885 C19.9628056,0.813314565 19.1725278,0.056340958 18.2289167,0.056340958 Z" id="Fill-4" fill="#FF9A20" mask="url(#mask-14)"></path>
                        </g>
                        <path d="M31.7638332,3.39393939 L29.2361668,3.39393939 C28.8188987,3.39393939 28.5,3.70898528 28.5,4.12121212 C28.5,4.53317489 28.8188987,4.84848485 29.2361668,4.84848485 L31.7638332,4.84848485 C32.1811013,4.84848485 32.5,4.53317489 32.5,4.12121212 C32.5,3.70898528 32.1811013,3.39393939 31.7638332,3.39393939" id="Fill-7" fill="#FF9A20"></path>
                        <path d="M31.7638332,10.1818182 C32.1811013,10.1818182 32.5,9.8667723 32.5,9.45454545 C32.5,9.04258269 32.1811013,8.72727273 31.7638332,8.72727273 L29.2361668,8.72727273 C28.8188987,8.72727273 28.5,9.04258269 28.5,9.45454545 C28.5,9.8667723 28.8188987,10.1818182 29.2361668,10.1818182 L31.7638332,10.1818182 Z" id="Fill-9" fill="#FF9A20"></path>
                    </g>
                    <g id="Page-1-Copy-4" transform="translate(137.000000, 242.000000)" fill="#FF9A20">
                        <g id="Group-8">
                            <path d="M11.6437132,4.79251734 C11.1092563,4.28004524 10.2424505,4.28004524 9.70770029,4.79251734 C5.55641932,8.77275479 5.55641932,15.226753 9.70740696,19.2069904 C9.70770029,19.2072717 9.70770029,19.2072717 9.70770029,19.2072717 C10.2424505,19.7200251 11.1092563,19.7200251 11.6437132,19.2072717 C12.1781701,18.6947996 12.1781701,17.8636498 11.6437132,17.3508964 C8.56662603,14.4003847 8.56662603,9.59940434 11.6437132,6.64889266 C12.1781701,6.13613929 12.1784634,5.3052707 11.6437132,4.79251734 M17.4570319,13.5506711 C16.5638259,13.5506711 15.8398744,12.8564992 15.8398744,12.0000352 C15.8398744,11.1438524 16.5638259,10.4496805 17.4570319,10.4496805 C18.3499445,10.4496805 19.073896,11.1438524 19.073896,12.0000352 C19.073016,12.8559367 18.3496512,13.5498273 17.4570319,13.5506711 M17.4570319,7.82459703 C15.0519759,7.82459703 13.1021762,9.69419199 13.1021762,12.0000352 C13.1021762,14.3061596 15.0519759,16.1757546 17.4570319,16.1757546 C19.8620879,16.1757546 21.8115942,14.3061596 21.8115942,12.0000352 C21.8086609,9.69531707 19.8609146,7.82712845 17.4570319,7.82459703" id="Fill-1"></path>
                            <path d="M25.150256,4.81677176 C24.6111377,4.30232471 23.7367717,4.30232471 23.1973575,4.81677176 C22.6582391,5.33121882 22.6582391,6.16557176 23.1973575,6.68030118 C26.3066087,9.64670118 26.3066087,14.4568659 23.1976534,17.4235482 L23.1973575,17.4235482 C22.6582391,17.9382776 22.6582391,18.7726306 23.1973575,19.2870776 C23.7367717,19.8018071 24.6111377,19.8018071 25.150256,19.2870776 C29.337744,15.2915012 29.337744,8.81291294 25.1505519,4.81705412 C25.150256,4.81705412 25.150256,4.81677176 25.150256,4.81677176 M2.76678382,12.0520659 C2.76678382,8.38881882 4.26193478,4.94496 6.97616787,2.35437176 C7.51558213,1.83992471 7.51587802,1.00557176 6.97675966,0.49056 C6.43734541,-0.0244517647 5.56297947,-0.0244517647 5.02326932,0.490277647 C-1.66777536,6.86637176 -1.6754686,17.2109365 5.00640338,23.5960659 C5.01202536,23.6014306 5.01764734,23.6067953 5.02326932,23.61216 C5.56268357,24.1268894 6.43675362,24.1268894 6.97616787,23.61216 C7.51528623,23.0977129 7.51528623,22.26336 6.97616787,21.7489129 C4.26193478,19.1594541 2.76678382,15.7155953 2.76678382,12.0520659" id="Fill-3"></path>
                            <path d="M33.5478219,5.90069647 C32.6971112,3.87368471 31.4311413,2.03359059 29.8257065,0.490249412 C29.2925125,-0.02448 28.427755,-0.02448 27.894561,0.490249412 C27.3610744,1.00469647 27.3610744,1.83904941 27.894561,2.35349647 C30.5789674,4.94493176 32.0576881,8.38907294 32.0576881,12.0520376 C32.0576881,15.7155671 30.5789674,19.1594259 27.894561,21.7497318 C27.3607818,22.2644612 27.3604891,23.0988141 27.8939758,23.6135435 C28.4271697,24.1285553 29.2922199,24.1288376 29.8257065,23.6141082 C34.6387918,18.9657318 36.104051,11.9910494 33.5472366,5.90154353 L33.5478219,5.90069647 Z" id="Fill-6"></path>
                        </g>
                    </g>
                    <g id="Page-1-Copy-8" transform="translate(197.000000, 186.000000)" fill="#FF9A20">
                        <g id="Group-8">
                            <path d="M11.6437132,4.79251734 C11.1092563,4.28004524 10.2424505,4.28004524 9.70770029,4.79251734 C5.55641932,8.77275479 5.55641932,15.226753 9.70740696,19.2069904 C9.70770029,19.2072717 9.70770029,19.2072717 9.70770029,19.2072717 C10.2424505,19.7200251 11.1092563,19.7200251 11.6437132,19.2072717 C12.1781701,18.6947996 12.1781701,17.8636498 11.6437132,17.3508964 C8.56662603,14.4003847 8.56662603,9.59940434 11.6437132,6.64889266 C12.1781701,6.13613929 12.1784634,5.3052707 11.6437132,4.79251734 M17.4570319,13.5506711 C16.5638259,13.5506711 15.8398744,12.8564992 15.8398744,12.0000352 C15.8398744,11.1438524 16.5638259,10.4496805 17.4570319,10.4496805 C18.3499445,10.4496805 19.073896,11.1438524 19.073896,12.0000352 C19.073016,12.8559367 18.3496512,13.5498273 17.4570319,13.5506711 M17.4570319,7.82459703 C15.0519759,7.82459703 13.1021762,9.69419199 13.1021762,12.0000352 C13.1021762,14.3061596 15.0519759,16.1757546 17.4570319,16.1757546 C19.8620879,16.1757546 21.8115942,14.3061596 21.8115942,12.0000352 C21.8086609,9.69531707 19.8609146,7.82712845 17.4570319,7.82459703" id="Fill-1"></path>
                            <path d="M25.150256,4.81677176 C24.6111377,4.30232471 23.7367717,4.30232471 23.1973575,4.81677176 C22.6582391,5.33121882 22.6582391,6.16557176 23.1973575,6.68030118 C26.3066087,9.64670118 26.3066087,14.4568659 23.1976534,17.4235482 L23.1973575,17.4235482 C22.6582391,17.9382776 22.6582391,18.7726306 23.1973575,19.2870776 C23.7367717,19.8018071 24.6111377,19.8018071 25.150256,19.2870776 C29.337744,15.2915012 29.337744,8.81291294 25.1505519,4.81705412 C25.150256,4.81705412 25.150256,4.81677176 25.150256,4.81677176 M2.76678382,12.0520659 C2.76678382,8.38881882 4.26193478,4.94496 6.97616787,2.35437176 C7.51558213,1.83992471 7.51587802,1.00557176 6.97675966,0.49056 C6.43734541,-0.0244517647 5.56297947,-0.0244517647 5.02326932,0.490277647 C-1.66777536,6.86637176 -1.6754686,17.2109365 5.00640338,23.5960659 C5.01202536,23.6014306 5.01764734,23.6067953 5.02326932,23.61216 C5.56268357,24.1268894 6.43675362,24.1268894 6.97616787,23.61216 C7.51528623,23.0977129 7.51528623,22.26336 6.97616787,21.7489129 C4.26193478,19.1594541 2.76678382,15.7155953 2.76678382,12.0520659" id="Fill-3"></path>
                            <path d="M33.5478219,5.90069647 C32.6971112,3.87368471 31.4311413,2.03359059 29.8257065,0.490249412 C29.2925125,-0.02448 28.427755,-0.02448 27.894561,0.490249412 C27.3610744,1.00469647 27.3610744,1.83904941 27.894561,2.35349647 C30.5789674,4.94493176 32.0576881,8.38907294 32.0576881,12.0520376 C32.0576881,15.7155671 30.5789674,19.1594259 27.894561,21.7497318 C27.3607818,22.2644612 27.3604891,23.0988141 27.8939758,23.6135435 C28.4271697,24.1285553 29.2922199,24.1288376 29.8257065,23.6141082 C34.6387918,18.9657318 36.104051,11.9910494 33.5472366,5.90154353 L33.5478219,5.90069647 Z" id="Fill-6"></path>
                        </g>
                    </g>
                    <g id="Page-1" transform="translate(23.000000, 251.000000)" fill="#FF9A20">
                        <g id="Group-8" transform="translate(0.000000, 0.317672)">
                            <path d="M6.55827907,2.986875 C6.25083721,2.6775 5.75269767,2.6775 5.44525581,2.986875 C3.05967442,5.3915625 3.05967442,9.29015625 5.44525581,11.6948438 C5.75269767,12.0046875 6.25083721,12.0046875 6.55827907,11.6948438 C6.86525581,11.3854688 6.86525581,10.8834375 6.55827907,10.5740625 C4.78944186,8.79140625 4.78944186,5.89078125 6.55827907,4.10859375 C6.86525581,3.79875 6.86572093,3.29671875 6.55827907,2.98734375 L6.55827907,2.986875 Z M9.89967442,8.27765625 C9.38618605,8.27765625 8.96990698,7.85859375 8.96990698,7.34109375 C8.96990698,6.8240625 9.38618605,6.40453125 9.89967442,6.40453125 C10.4126977,6.40453125 10.8289767,6.8240625 10.8289767,7.34109375 C10.8280465,7.85859375 10.4126977,8.2771875 9.89967442,8.27765625 Z M9.89967442,4.81875 C8.51688372,4.81875 7.3964186,5.94796875 7.3964186,7.34109375 C7.3964186,8.7346875 8.51688372,9.86390625 9.89967442,9.86390625 C11.2815349,9.86390625 12.4024651,8.7346875 12.4024651,7.34109375 C12.4006047,5.9484375 11.2810698,4.82015625 9.89967442,4.81875 Z" id="Fill-1"></path>
                            <path d="M14.3305581,2.986875 C14.0231163,2.6775 13.5249767,2.6775 13.2175349,2.986875 C12.9105581,3.29671875 12.9105581,3.79875 13.2175349,4.10859375 C14.9896279,5.89359375 14.9896279,8.788125 13.218,10.5740625 L13.2175349,10.5740625 C12.9105581,10.8834375 12.9105581,11.3854687 13.2175349,11.6948437 C13.5249767,12.0046875 14.0231163,12.0046875 14.3305581,11.6948437 C16.7166047,9.290625 16.7166047,5.39203125 14.3305581,2.98734375 L14.3305581,2.986875 Z M1.57660465,7.34109375 C1.57660465,5.1365625 2.42823256,3.06421875 3.97474419,1.50515625 C4.28218605,1.19578125 4.28265116,0.69328125 3.9752093,0.3834375 C3.66823256,0.07359375 3.16962791,0.07359375 2.86218605,0.38296875 C-0.950372093,4.220625 -0.95455814,10.445625 2.8524186,14.2879688 C2.85613953,14.29125 2.85893023,14.2945313 2.86218605,14.2978125 C3.16962791,14.6076563 3.66776744,14.6076563 3.97474419,14.2978125 C4.28218605,13.9884375 4.28218605,13.4859375 3.97474419,13.1765625 C2.42823256,11.6179688 1.57660465,9.545625 1.57660465,7.34109375 Z" id="Fill-3"></path>
                            <path d="M19.0580465,3.6391875 C18.567814,2.4195 17.8385116,1.3123125 16.9138605,0.38325 C16.6064186,0.073875 16.1082791,0.073875 15.8013023,0.38325 C15.4938605,0.69309375 15.4938605,1.195125 15.8013023,1.5045 C17.347814,3.06403125 18.1994419,5.136375 18.1994419,7.34090625 C18.1994419,9.54590625 17.347814,11.6177812 15.8013023,13.1773125 C15.4933953,13.4866875 15.4933953,13.9887187 15.8008372,14.2985625 C16.107814,14.6084062 16.6064186,14.6084062 16.9138605,14.2990312 C19.6864186,11.5015312 20.5310698,7.30434375 19.0575814,3.63965625 L19.0580465,3.6391875 Z" id="Fill-6"></path>
                        </g>
                    </g>
                    <g id="Page-1-Copy-9" transform="translate(104.000000, 332.000000)" fill="#FF9A20">
                        <g id="Group-8" transform="translate(0.000000, 0.317672)">
                            <path d="M6.55827907,2.986875 C6.25083721,2.6775 5.75269767,2.6775 5.44525581,2.986875 C3.05967442,5.3915625 3.05967442,9.29015625 5.44525581,11.6948438 C5.75269767,12.0046875 6.25083721,12.0046875 6.55827907,11.6948438 C6.86525581,11.3854688 6.86525581,10.8834375 6.55827907,10.5740625 C4.78944186,8.79140625 4.78944186,5.89078125 6.55827907,4.10859375 C6.86525581,3.79875 6.86572093,3.29671875 6.55827907,2.98734375 L6.55827907,2.986875 Z M9.89967442,8.27765625 C9.38618605,8.27765625 8.96990698,7.85859375 8.96990698,7.34109375 C8.96990698,6.8240625 9.38618605,6.40453125 9.89967442,6.40453125 C10.4126977,6.40453125 10.8289767,6.8240625 10.8289767,7.34109375 C10.8280465,7.85859375 10.4126977,8.2771875 9.89967442,8.27765625 Z M9.89967442,4.81875 C8.51688372,4.81875 7.3964186,5.94796875 7.3964186,7.34109375 C7.3964186,8.7346875 8.51688372,9.86390625 9.89967442,9.86390625 C11.2815349,9.86390625 12.4024651,8.7346875 12.4024651,7.34109375 C12.4006047,5.9484375 11.2810698,4.82015625 9.89967442,4.81875 Z" id="Fill-1"></path>
                            <path d="M14.3305581,2.986875 C14.0231163,2.6775 13.5249767,2.6775 13.2175349,2.986875 C12.9105581,3.29671875 12.9105581,3.79875 13.2175349,4.10859375 C14.9896279,5.89359375 14.9896279,8.788125 13.218,10.5740625 L13.2175349,10.5740625 C12.9105581,10.8834375 12.9105581,11.3854687 13.2175349,11.6948437 C13.5249767,12.0046875 14.0231163,12.0046875 14.3305581,11.6948437 C16.7166047,9.290625 16.7166047,5.39203125 14.3305581,2.98734375 L14.3305581,2.986875 Z M1.57660465,7.34109375 C1.57660465,5.1365625 2.42823256,3.06421875 3.97474419,1.50515625 C4.28218605,1.19578125 4.28265116,0.69328125 3.9752093,0.3834375 C3.66823256,0.07359375 3.16962791,0.07359375 2.86218605,0.38296875 C-0.950372093,4.220625 -0.95455814,10.445625 2.8524186,14.2879688 C2.85613953,14.29125 2.85893023,14.2945313 2.86218605,14.2978125 C3.16962791,14.6076563 3.66776744,14.6076563 3.97474419,14.2978125 C4.28218605,13.9884375 4.28218605,13.4859375 3.97474419,13.1765625 C2.42823256,11.6179688 1.57660465,9.545625 1.57660465,7.34109375 Z" id="Fill-3"></path>
                            <path d="M19.0580465,3.6391875 C18.567814,2.4195 17.8385116,1.3123125 16.9138605,0.38325 C16.6064186,0.073875 16.1082791,0.073875 15.8013023,0.38325 C15.4938605,0.69309375 15.4938605,1.195125 15.8013023,1.5045 C17.347814,3.06403125 18.1994419,5.136375 18.1994419,7.34090625 C18.1994419,9.54590625 17.347814,11.6177812 15.8013023,13.1773125 C15.4933953,13.4866875 15.4933953,13.9887187 15.8008372,14.2985625 C16.107814,14.6084062 16.6064186,14.6084062 16.9138605,14.2990312 C19.6864186,11.5015312 20.5310698,7.30434375 19.0575814,3.63965625 L19.0580465,3.6391875 Z" id="Fill-6"></path>
                        </g>
                    </g>
                    <g id="Page-1-Copy-10" transform="translate(181.000000, 332.000000)" fill="#FF9A20">
                        <g id="Group-8" transform="translate(0.000000, 0.317672)">
                            <path d="M6.55827907,2.986875 C6.25083721,2.6775 5.75269767,2.6775 5.44525581,2.986875 C3.05967442,5.3915625 3.05967442,9.29015625 5.44525581,11.6948438 C5.75269767,12.0046875 6.25083721,12.0046875 6.55827907,11.6948438 C6.86525581,11.3854688 6.86525581,10.8834375 6.55827907,10.5740625 C4.78944186,8.79140625 4.78944186,5.89078125 6.55827907,4.10859375 C6.86525581,3.79875 6.86572093,3.29671875 6.55827907,2.98734375 L6.55827907,2.986875 Z M9.89967442,8.27765625 C9.38618605,8.27765625 8.96990698,7.85859375 8.96990698,7.34109375 C8.96990698,6.8240625 9.38618605,6.40453125 9.89967442,6.40453125 C10.4126977,6.40453125 10.8289767,6.8240625 10.8289767,7.34109375 C10.8280465,7.85859375 10.4126977,8.2771875 9.89967442,8.27765625 Z M9.89967442,4.81875 C8.51688372,4.81875 7.3964186,5.94796875 7.3964186,7.34109375 C7.3964186,8.7346875 8.51688372,9.86390625 9.89967442,9.86390625 C11.2815349,9.86390625 12.4024651,8.7346875 12.4024651,7.34109375 C12.4006047,5.9484375 11.2810698,4.82015625 9.89967442,4.81875 Z" id="Fill-1"></path>
                            <path d="M14.3305581,2.986875 C14.0231163,2.6775 13.5249767,2.6775 13.2175349,2.986875 C12.9105581,3.29671875 12.9105581,3.79875 13.2175349,4.10859375 C14.9896279,5.89359375 14.9896279,8.788125 13.218,10.5740625 L13.2175349,10.5740625 C12.9105581,10.8834375 12.9105581,11.3854687 13.2175349,11.6948437 C13.5249767,12.0046875 14.0231163,12.0046875 14.3305581,11.6948437 C16.7166047,9.290625 16.7166047,5.39203125 14.3305581,2.98734375 L14.3305581,2.986875 Z M1.57660465,7.34109375 C1.57660465,5.1365625 2.42823256,3.06421875 3.97474419,1.50515625 C4.28218605,1.19578125 4.28265116,0.69328125 3.9752093,0.3834375 C3.66823256,0.07359375 3.16962791,0.07359375 2.86218605,0.38296875 C-0.950372093,4.220625 -0.95455814,10.445625 2.8524186,14.2879688 C2.85613953,14.29125 2.85893023,14.2945313 2.86218605,14.2978125 C3.16962791,14.6076563 3.66776744,14.6076563 3.97474419,14.2978125 C4.28218605,13.9884375 4.28218605,13.4859375 3.97474419,13.1765625 C2.42823256,11.6179688 1.57660465,9.545625 1.57660465,7.34109375 Z" id="Fill-3"></path>
                            <path d="M19.0580465,3.6391875 C18.567814,2.4195 17.8385116,1.3123125 16.9138605,0.38325 C16.6064186,0.073875 16.1082791,0.073875 15.8013023,0.38325 C15.4938605,0.69309375 15.4938605,1.195125 15.8013023,1.5045 C17.347814,3.06403125 18.1994419,5.136375 18.1994419,7.34090625 C18.1994419,9.54590625 17.347814,11.6177812 15.8013023,13.1773125 C15.4933953,13.4866875 15.4933953,13.9887187 15.8008372,14.2985625 C16.107814,14.6084062 16.6064186,14.6084062 16.9138605,14.2990312 C19.6864186,11.5015312 20.5310698,7.30434375 19.0575814,3.63965625 L19.0580465,3.6391875 Z" id="Fill-6"></path>
                        </g>
                    </g>
                    <g id="Page-1-Copy-11" transform="translate(265.000000, 250.000000)" fill="#FF9A20">
                        <g id="Group-8" transform="translate(0.000000, 0.317672)">
                            <path d="M6.55827907,2.986875 C6.25083721,2.6775 5.75269767,2.6775 5.44525581,2.986875 C3.05967442,5.3915625 3.05967442,9.29015625 5.44525581,11.6948438 C5.75269767,12.0046875 6.25083721,12.0046875 6.55827907,11.6948438 C6.86525581,11.3854688 6.86525581,10.8834375 6.55827907,10.5740625 C4.78944186,8.79140625 4.78944186,5.89078125 6.55827907,4.10859375 C6.86525581,3.79875 6.86572093,3.29671875 6.55827907,2.98734375 L6.55827907,2.986875 Z M9.89967442,8.27765625 C9.38618605,8.27765625 8.96990698,7.85859375 8.96990698,7.34109375 C8.96990698,6.8240625 9.38618605,6.40453125 9.89967442,6.40453125 C10.4126977,6.40453125 10.8289767,6.8240625 10.8289767,7.34109375 C10.8280465,7.85859375 10.4126977,8.2771875 9.89967442,8.27765625 Z M9.89967442,4.81875 C8.51688372,4.81875 7.3964186,5.94796875 7.3964186,7.34109375 C7.3964186,8.7346875 8.51688372,9.86390625 9.89967442,9.86390625 C11.2815349,9.86390625 12.4024651,8.7346875 12.4024651,7.34109375 C12.4006047,5.9484375 11.2810698,4.82015625 9.89967442,4.81875 Z" id="Fill-1"></path>
                            <path d="M14.3305581,2.986875 C14.0231163,2.6775 13.5249767,2.6775 13.2175349,2.986875 C12.9105581,3.29671875 12.9105581,3.79875 13.2175349,4.10859375 C14.9896279,5.89359375 14.9896279,8.788125 13.218,10.5740625 L13.2175349,10.5740625 C12.9105581,10.8834375 12.9105581,11.3854687 13.2175349,11.6948437 C13.5249767,12.0046875 14.0231163,12.0046875 14.3305581,11.6948437 C16.7166047,9.290625 16.7166047,5.39203125 14.3305581,2.98734375 L14.3305581,2.986875 Z M1.57660465,7.34109375 C1.57660465,5.1365625 2.42823256,3.06421875 3.97474419,1.50515625 C4.28218605,1.19578125 4.28265116,0.69328125 3.9752093,0.3834375 C3.66823256,0.07359375 3.16962791,0.07359375 2.86218605,0.38296875 C-0.950372093,4.220625 -0.95455814,10.445625 2.8524186,14.2879688 C2.85613953,14.29125 2.85893023,14.2945313 2.86218605,14.2978125 C3.16962791,14.6076563 3.66776744,14.6076563 3.97474419,14.2978125 C4.28218605,13.9884375 4.28218605,13.4859375 3.97474419,13.1765625 C2.42823256,11.6179688 1.57660465,9.545625 1.57660465,7.34109375 Z" id="Fill-3"></path>
                            <path d="M19.0580465,3.6391875 C18.567814,2.4195 17.8385116,1.3123125 16.9138605,0.38325 C16.6064186,0.073875 16.1082791,0.073875 15.8013023,0.38325 C15.4938605,0.69309375 15.4938605,1.195125 15.8013023,1.5045 C17.347814,3.06403125 18.1994419,5.136375 18.1994419,7.34090625 C18.1994419,9.54590625 17.347814,11.6177812 15.8013023,13.1773125 C15.4933953,13.4866875 15.4933953,13.9887187 15.8008372,14.2985625 C16.107814,14.6084062 16.6064186,14.6084062 16.9138605,14.2990312 C19.6864186,11.5015312 20.5310698,7.30434375 19.0575814,3.63965625 L19.0580465,3.6391875 Z" id="Fill-6"></path>
                        </g>
                    </g>
                </g>
            </g>
        </g>
    </g>
</svg>