<?xml version="1.0" encoding="UTF-8"?>
<svg width="107px" height="107px" viewBox="0 0 107 107" version="1.1" xmlns="http://www.w3.org/2000/svg" xmlns:xlink="http://www.w3.org/1999/xlink">
    <!-- Generator: Sketch 49.2 (51160) - http://www.bohemiancoding.com/sketch -->
    <title>31</title>
    <desc>Created with Sketch.</desc>
    <defs></defs>
    <g id="Page-1" stroke="none" stroke-width="1" fill="none" fill-rule="evenodd">
        <g id="猩租客PC端官网" transform="translate(-745.000000, -5938.000000)">
            <g id="Group-8" transform="translate(745.000000, 5938.000000)">
                <g id="Group-52">
                    <circle id="Oval-4-Copy" fill="#F4F4F4" cx="53.5" cy="53.5" r="53.5"></circle>
                    <g id="门锁-copy" transform="translate(36.442029, 21.710145)" fill="#FF9A20" fill-rule="nonzero">
                        <path d="M44.1125777,32.5652174 L32.6759835,32.5652174 L32.6759835,27.6804348 L32.6759835,22.7956522 L32.6759835,4.88478262 C32.6759835,2.11673917 30.5520446,0 27.7745859,0 L4.90139753,6.99643335e-08 C2.12393896,6.99643335e-08 0,2.11673917 0,4.88478269 L0,60.2456522 C0,63.0136956 2.12393889,65.1304348 4.90139753,65.1304348 L27.7745859,65.1304348 C30.5520445,65.1304348 32.6759835,63.0136957 32.6759835,60.2456522 L32.6759835,37.45 L44.1125777,37.45 C45.0928571,37.45 45.7463768,36.7986957 45.7463768,35.8217392 L45.7463768,34.1934783 C45.7463768,33.2165217 45.0928571,32.5652174 44.1125777,32.5652174 Z M27.7745859,4.88478262 L27.7745859,22.7956522 L4.90139753,22.7956522 L4.90139753,4.88478262 L27.7745859,4.88478262 Z M27.7745859,60.2456522 L4.90139753,60.2456522 L4.90139753,27.6804348 L27.7745859,27.6804348 L27.7745859,32.5652174 L16.3379917,32.5652174 C15.3577123,32.5652174 14.7041926,33.2165217 14.7041926,34.1934782 L14.7041926,35.8217391 C14.7041926,36.7986956 15.3577123,37.4499999 16.3379917,37.4499999 L27.7745859,37.4499999 L27.7745859,60.2456522 Z" id="Shape"></path>
                    </g>
                </g>
            </g>
        </g>
    </g>
</svg>