<?xml version="1.0" encoding="UTF-8"?>
<svg width="202px" height="202px" viewBox="0 0 202 202" version="1.1" xmlns="http://www.w3.org/2000/svg" xmlns:xlink="http://www.w3.org/1999/xlink">
    <!-- Generator: Sketch 49.2 (51160) - http://www.bohemiancoding.com/sketch -->
    <title>33</title>
    <desc>Created with Sketch.</desc>
    <defs></defs>
    <g id="Page-1" stroke="none" stroke-width="1" fill="none" fill-rule="evenodd">
        <g id="猩租客PC端官网" transform="translate(-180.000000, -6995.000000)">
            <g id="Group-55" transform="translate(180.000000, 6995.000000)">
                <g id="Group-56" transform="translate(1.000000, 1.000000)">
                    <g id="Group-5">
                        <circle id="Oval-3-Copy-5" fill-opacity="0.1" fill="#000000" cx="100" cy="100" r="100"></circle>
                        <circle id="Oval-3" stroke="#6F6F6F" stroke-width="2" cx="100" cy="100" r="100"></circle>
                    </g>
                    <g id="门锁" transform="translate(75.000000, 51.000000)" fill="#FFFFFF" fill-opacity="0.7" fill-rule="nonzero">
                        <path d="M65.5714286,48.5 L48.5714286,48.5 L48.5714286,41.225 L48.5714286,33.95 L48.5714286,7.27500001 C48.5714286,3.15250005 45.4142858,0 41.2857143,0 L7.2857143,1.04199218e-07 C3.15714291,1.04199218e-07 0,3.15250005 0,7.27500011 L0,89.725 C0,93.8474999 3.15714281,97 7.2857143,97 L41.2857143,97 C45.4142857,97 48.5714286,93.8475001 48.5714286,89.725 L48.5714286,55.775 L65.5714286,55.775 C67.0285714,55.775 68,54.805 68,53.35 L68,50.9250001 C68,49.47 67.0285714,48.5 65.5714286,48.5 Z M41.2857143,7.27500001 L41.2857143,33.95 L7.2857143,33.95 L7.2857143,7.27500001 L41.2857143,7.27500001 Z M41.2857143,89.725 L7.2857143,89.725 L7.2857143,41.225 L41.2857143,41.225 L41.2857143,48.5 L24.2857143,48.5 C22.8285715,48.5 21.8571429,49.47 21.8571429,50.925 L21.8571429,53.3499999 C21.8571429,54.8049999 22.8285715,55.7749999 24.2857143,55.7749999 L41.2857143,55.7749999 L41.2857143,89.725 Z" id="Shape"></path>
                    </g>
                </g>
            </g>
        </g>
    </g>
</svg>