<?xml version="1.0" encoding="UTF-8"?>
<svg width="202px" height="202px" viewBox="0 0 202 202" version="1.1" xmlns="http://www.w3.org/2000/svg" xmlns:xlink="http://www.w3.org/1999/xlink">
    <!-- Generator: Sketch 49.2 (51160) - http://www.bohemiancoding.com/sketch -->
    <title>34</title>
    <desc>Created with Sketch.</desc>
    <defs></defs>
    <g id="Page-1" stroke="none" stroke-width="1" fill="none" fill-rule="evenodd">
        <g id="猩租客PC端官网" transform="translate(-451.000000, -6995.000000)">
            <g id="Group-57" transform="translate(452.000000, 6996.000000)">
                <g id="Group-58">
                    <g id="Group-5-Copy">
                        <circle id="Oval-3-Copy-5" fill-opacity="0.1" fill="#000000" cx="100" cy="100" r="100"></circle>
                        <circle id="Oval-3" stroke="#6F6F6F" stroke-width="2" cx="100" cy="100" r="100"></circle>
                    </g>
                    <g id="Page-1" transform="translate(59.000000, 52.000000)" fill="#FFFFFF" fill-opacity="0.7">
                        <path d="M36.8308689,7.16497803 C38.5767004,7.16497803 40.3517046,7.31170801 42.1075956,7.60062993 C54.2786216,9.60241009 64.1188544,19.7575366 66.0372069,32.2951345 C66.1835731,33.2577033 66.270588,34.2338863 66.3626327,35.2675511 C66.3792309,35.4546192 66.3958292,35.6432 66.4129304,35.8332935 C66.2358826,35.8549752 66.0859956,35.865564 65.9904301,35.8479161 C60.6840277,34.8545894 57.2235492,37.5960702 54.2766097,40.7061407 C47.8400191,47.4985791 40.9980294,54.1357157 34.3527035,60.5822545 L33.0912384,61.8060128 C32.565125,62.315786 31.5858297,62.5885727 30.6206177,62.8578298 C30.3480044,62.9334638 30.078409,63.0085936 29.8168612,63.0897741 C29.6644593,63.1371714 29.3737389,63.1129685 29.1157119,63.0922952 C28.7631254,63.065067 28.363762,63.0327965 27.9432736,63.1079262 C22.7606035,64.0185597 19.0441099,61.1434589 15.8009173,57.9027936 C6.68396476,48.7929291 4.4567847,34.967032 10.2591219,23.4999075 C15.4342474,13.2711638 25.3670279,7.16497803 36.8308689,7.16497803 M91.0512355,74.6854764 C90.0543361,73.7234118 88.5715613,73.6447524 87.3860456,73.679544 C84.8037641,73.7592119 82.2204767,73.821736 79.6371892,73.8842601 C76.2652346,73.9654406 72.4431159,74.0577141 68.7829557,74.1938553 C67.6814372,74.2346977 66.4446179,74.6037917 65.2998433,75.2325624 C62.2367162,76.9181924 59.1383808,78.6597915 56.1416467,80.3439089 L55.9917597,80.4281147 C53.3199484,81.9302062 50.64864,83.4312892 47.9672722,84.9152285 C47.3425753,85.2606238 46.4256491,85.7204786 45.6716873,85.7250166 C35.1876446,85.7870365 24.9168639,85.8339296 14.5127944,85.7184617 C10.6288097,85.6750982 7.37455154,82.5040162 7.10344719,78.498439 C6.82278629,74.3395769 9.80141328,70.5901468 13.6074367,70.3108052 C17.1488944,70.0521369 20.7984921,70.1141568 24.3283813,70.1736555 L24.4742445,70.1761767 C25.6979864,70.1963457 26.9534158,70.2175233 28.2018036,70.2245824 C28.128369,74.5412675 29.8319505,77.5121715 33.2687891,79.056618 C37.5657176,80.9903275 41.5080476,80.7261127 44.9846214,78.2755708 C49.8956842,74.8125415 54.9511012,71.2668191 60.014063,67.7362235 C62.4871986,66.0102554 63.0661245,64.1456249 61.7357516,62.1952758 C61.1050191,61.2730451 60.3837507,60.7526831 59.5312055,60.6049447 C58.1832284,60.3709835 56.9604925,61.157073 55.8242685,61.9840048 C50.7613068,65.6618347 45.3970621,69.3855491 41.0870563,72.3776306 L41.0453092,72.4063715 C39.4066117,73.5444113 36.677964,73.4687773 35.735889,72.2576246 C35.3360226,71.7443218 34.3999833,70.5412368 37.0250178,67.9293423 C39.0877246,65.876131 41.1519402,63.8249367 43.2166589,61.7732381 L43.2579029,61.7323957 C49.000386,56.0275744 54.9385268,50.1281215 60.7353313,44.2811083 C61.7951029,43.2121476 62.7200767,42.8183465 64.171164,42.8475917 C72.7941936,42.9499497 80.6154786,42.9444032 88.0816621,42.8304479 C89.4618297,42.8097746 90.9933932,41.7221576 91.6211079,40.726814 C92.2885578,39.6694505 91.598977,37.7271691 90.849542,36.906288 C90.2444612,36.2432298 89.1585349,35.8973303 87.6219416,35.8781697 C83.8908617,35.8332935 80.1039514,35.8378315 76.4427853,35.8438823 L73.5763221,35.8474118 C72.0497883,14.1127183 56.7371709,3.35100698 44.0113618,0.737599791 C28.7696641,-2.3926398 13.1316209,4.62922176 5.0995887,18.2115774 C-2.07386253,30.3412559 -2.86504461,48.9754592 11.3254322,63.5713106 C3.58814424,66.0637034 -0.884323042,72.5344451 0.146778839,79.8643892 C1.25433315,87.7313348 7.493254,92.8184784 16.042346,92.8235206 C18.3303863,92.8225122 20.6410604,92.7927628 22.8169369,92.7615008 C27.7576753,92.6919175 32.8674138,92.6213257 37.8509053,92.9203322 C38.7250785,92.973276 39.592713,93 40.4301689,93 C47.1318282,93 52.5192097,91.336556 57.3850047,87.765118 C58.4241542,87.0027272 59.6383395,86.3789987 60.8127897,85.7754393 C61.9102845,85.2117138 63.0455025,84.6283235 64.1017532,83.9087919 C67.1668922,81.8212932 70.4181324,80.9187273 74.3499,81.0578939 C77.177131,81.1642858 80.0224692,81.0473052 82.7752598,80.9343584 C84.3118531,80.8718343 85.9022648,80.806789 87.4695397,80.7820819 C90.4929316,80.7321634 92.0174534,79.5179855 91.9998493,77.1728269 C91.9918016,76.1210099 91.6724116,75.2839935 91.0512355,74.6854764" id="Fill-1"></path>
                        <path d="M33.0026877,41.5376215 C30.3865855,41.5376215 28.0684948,41.5100251 25.7519043,41.5471548 C24.0628382,41.5742494 23.0327979,40.9555884 23.0007967,39.114658 C22.9667954,37.1487911 24.0228367,36.475439 25.8394077,36.5135722 C28.1529981,36.5617405 30.4685887,36.5246108 32.8856832,36.5246108 L32.8856832,34.2561871 C32.6316732,34.187447 32.3261613,34.0364194 32.0196493,34.0334089 C29.7705614,34.006816 27.5209734,34.0309002 25.2718855,33.9972827 C23.7403256,33.9742021 23.0307979,33.1141981 23.0027968,31.6069331 C22.9727956,30.0073457 23.6343215,29.0299315 25.3203874,29.0108649 C27.459471,28.9867808 29.5995547,29.0048439 32.1241534,28.416288 C30.5300911,26.9040056 28.9500293,25.3771723 27.3389663,23.8844581 C25.9924137,22.6371011 25.4113909,21.3832212 26.9754521,19.8568896 C28.4405094,18.4273964 29.6410563,18.969791 30.808602,20.2432392 C32.3286614,21.9010299 33.8572212,23.5502909 35.8302983,25.6892624 C37.715872,23.5829048 39.3074342,21.7876338 40.9194973,20.0114295 C42.090043,18.7219252 43.2930901,18.6381325 44.5661398,19.9176017 C45.8506901,21.209113 45.6921839,22.393751 44.4381348,23.5793925 C42.754569,25.1699484 41.0835037,26.7735499 39.4064381,28.3721338 L39.6574479,28.9993246 C41.5220208,28.9993246 43.3875938,29.0264193 45.2516666,28.9912966 C46.9397326,28.9596862 47.9687729,29.5858735 47.9992741,31.4273057 C48.0317753,33.3961831 46.9712339,34.0620088 45.157163,34.0238756 C42.8435725,33.9747039 40.527982,34.0123353 38.1123875,34.0123353 L38.1123875,36.2822643 C38.3698976,36.3510044 38.6754095,36.5010284 38.9834216,36.5040389 C41.2320095,36.5301301 43.4820975,36.5050425 45.7306854,36.5401651 C47.2622453,36.5637475 47.9697729,37.4267621 47.997274,38.9335253 C48.0262751,40.534618 47.3622492,41.5100251 45.6771833,41.5260812 C43.1990864,41.5491618 40.7209895,41.5321022 37.996383,41.5321022 C37.996383,43.8351469 37.9863826,45.9023678 37.9993831,47.9695887 C38.0098835,49.7151861 37.3243567,51.023757 35.464784,50.9996729 C33.6012111,50.975087 32.9761867,49.6313934 32.9966875,47.8993433 C33.0206884,45.9013643 33.0026877,43.9023817 33.0026877,41.5376215" id="Fill-4"></path>
                    </g>
                </g>
            </g>
        </g>
    </g>
</svg>