<?xml version="1.0" encoding="UTF-8"?>
<svg width="202px" height="202px" viewBox="0 0 202 202" version="1.1" xmlns="http://www.w3.org/2000/svg" xmlns:xlink="http://www.w3.org/1999/xlink">
    <!-- Generator: Sketch 49.2 (51160) - http://www.bohemiancoding.com/sketch -->
    <title>35</title>
    <desc>Created with Sketch.</desc>
    <defs></defs>
    <g id="Page-1" stroke="none" stroke-width="1" fill="none" fill-rule="evenodd">
        <g id="猩租客PC端官网" transform="translate(-990.000000, -6995.000000)">
            <g id="Group-59" transform="translate(991.000000, 6996.000000)">
                <g id="Group-60">
                    <g id="Group-5-Copy-2">
                        <circle id="Oval-3-Copy-5" fill-opacity="0.1" fill="#000000" cx="100" cy="100" r="100"></circle>
                        <circle id="Oval-3" stroke="#6F6F6F" stroke-width="2" cx="100" cy="100" r="100"></circle>
                    </g>
                    <g id="订单" transform="translate(66.000000, 59.000000)" fill="#FFFFFF" fill-opacity="0.7" fill-rule="nonzero">
                        <path d="M45.5464252,14.0697227 L20.2335346,14.0697227 L20.2335346,4.65924583 L25.3197255,4.65924583 C25.3197255,3.35862191 25.8031289,2.25183249 26.7772586,1.35371389 C27.7428448,0.446853898 28.9350391,0 30.3407412,0 L35.4269321,0 C36.8240907,0 38.0104265,0.446452917 38.9948899,1.35371389 C39.9604761,2.26041349 40.4430658,3.3609476 40.4430658,4.65924583 L45.5286058,4.65924583 L45.5286058,14.0697227 L45.5464252,14.0697227 Z M32.9257815,9.8605386 C33.7893331,9.8605386 34.5265212,9.56998733 35.1503645,8.99882913 C35.7742079,8.42767094 36.0906455,7.73004315 36.0906455,6.92575425 C36.0906455,6.07406932 35.771116,5.36882288 35.1503645,4.8234077 C34.5257889,4.27037388 33.7935642,4.001636 32.9257815,4.001636 C32.0056797,4.001636 31.2532759,4.28545078 30.6550632,4.8234077 C30.0684047,5.37644153 29.7688102,6.07567325 29.7688102,6.92575425 C29.7688102,7.73333119 30.0684047,8.42085425 30.6550632,8.99882913 C31.2417217,9.57600205 32.0103176,9.8605386 32.9257815,9.8605386 Z M53.2080551,46.8871798 C55.6385789,46.8871798 57.9402981,47.332911 60.0945798,48.2012767 C62.2523602,49.0768602 64.1386179,50.2743516 65.752539,51.7773109 C67.365972,53.2968707 68.6514945,55.0342438 69.5900668,57.0464497 C70.5323819,59.0536834 71,61.1829759 71,63.4421063 C71,65.7615443 70.5175731,67.9209906 69.5900668,69.9227709 C68.6497858,71.9332927 67.3654837,73.6778033 65.752539,75.1919098 C64.1344681,76.7000016 62.24699,77.8677402 60.0945798,78.7203073 C57.9305341,79.5719922 55.645251,80 53.2080551,80 C50.7323725,80 48.417309,79.5814554 46.2607491,78.7203073 C44.1035382,77.8686224 42.206296,76.6920622 40.6058818,75.1919098 C38.9924489,73.6723499 37.7069263,71.9386659 36.7683541,69.9227709 C35.8260389,67.9155372 35.3584208,65.7601809 35.3584208,63.4421063 C35.3584208,61.1851412 35.8291309,59.0540042 36.7683541,57.0464497 C37.7106692,55.039216 38.9961918,53.2914174 40.6058818,51.7773109 C42.2100389,50.269219 44.1114309,49.0799076 46.2607491,48.2012767 C48.4185295,47.3277784 50.7309893,46.8871798 53.2080551,46.8871798 Z M64.2265759,62.0178196 C64.5542422,61.6727349 64.8511516,61.2218711 65.1099811,60.7354003 C65.386386,60.2274368 65.2976142,59.7837105 64.8723071,59.3816864 C64.7627867,59.2737421 64.4996447,59.0366016 64.1041181,58.6336151 C63.7059877,58.2157121 63.4541558,58.0043948 63.3359291,57.9502622 C62.8003692,57.6054181 62.2871854,57.5578616 61.8048399,57.8011773 C61.3106147,58.051069 60.8392537,58.4167642 60.356664,58.8612924 C59.1338359,59.9975396 57.9042457,61.1266965 56.6679571,62.2487048 C55.4507017,63.3493191 54.3130236,64.398688 53.2280715,65.4074775 C52.8554091,65.7601809 52.4463755,65.9845702 51.9888469,66.0480857 C51.5255413,66.1168942 51.1692337,65.9876177 50.8902251,65.6295411 C50.7288737,65.4896787 50.4765536,65.2371405 50.1218734,64.882352 C49.7724007,64.5372672 49.4015283,64.1534476 49.0425356,63.7515839 C48.6690596,63.3336809 48.2854126,62.9545928 47.9439138,62.5865719 C47.5940343,62.210371 47.3407378,61.9459637 47.1849193,61.7906234 C46.857253,61.5407317 46.4915882,61.3720788 46.0862975,61.2834619 C45.672626,61.2146535 45.2666843,61.3401607 44.8363325,61.7020065 C44.785722,61.7458739 44.6486994,61.8610358 44.4226609,62.0255185 C44.213791,62.2064414 43.9980048,62.3936196 43.7828695,62.6411054 C43.5779155,62.8477818 43.3644734,63.0461126 43.1430782,63.2356008 C42.9202944,63.405216 42.7936054,63.526152 42.7449478,63.5662502 C41.9348546,64.3646847 42.0342041,65.2985709 43.0644773,66.3574029 C43.3921436,66.7024877 43.8216004,67.1543138 44.3656224,67.6714998 C44.8963002,68.1945402 45.4737642,68.7721141 46.0593649,69.3579483 C46.6460234,69.9585385 47.2413882,70.5474201 47.8369158,71.1294048 C48.4367558,71.7064975 48.9521365,72.1630552 49.3788268,72.5144754 C49.8037271,72.9071166 50.3907111,73.1089708 51.1628057,73.0915682 C51.9209052,73.091087 52.4803057,72.8420774 52.8565482,72.4509599 C53.6155428,71.7943125 54.4699812,71.0144033 55.4490744,70.0801963 C56.4047337,69.1514427 57.4408654,68.2109805 58.4766716,67.2633808 C59.5254153,66.311691 60.5621979,65.3640111 61.5529266,64.4417534 C62.5343794,63.5129998 63.4328376,62.6897846 64.2527762,61.9964874 L64.2265759,62.0178196 Z M30.0928963,61.1796077 C30.0928963,61.5323111 30.0925708,61.8814057 30.0537586,62.2363546 C30.0149464,62.5913035 30.0120172,62.9578007 30.0120172,63.3671227 C30.0120172,65.6240878 30.3614899,67.7730284 31.0601098,69.8007121 C31.7698771,71.8289573 32.7557238,73.6970504 34.0508477,75.40034 L10.4272244,75.40034 C9.41534015,75.40034 8.29556284,75.1337675 7.07611055,74.5794505 C5.85885517,74.0264167 4.7228044,73.2970311 3.67633907,72.3963463 C2.62759545,71.4894863 1.74923503,70.4608883 1.04874362,69.3094295 C0.338081289,68.1577301 0,66.9507755 0,65.6961843 L0,19.1057308 C0,18.0599708 0.270465032,16.961201 0.808628605,15.8350041 C1.35753267,14.704236 2.04785316,13.6605611 2.92084333,12.7049417 C3.78439489,11.753252 4.78814237,10.9678894 5.91158121,10.3223892 C7.04331951,9.69838164 8.23250316,9.38738031 9.47896941,9.38738031 L15.2221202,9.38738031 L15.2221202,18.8023481 L50.5789137,18.8023481 L50.5789137,9.38738031 L55.5864224,9.38738031 C56.825647,9.38738031 58.0498186,9.63711165 59.2673181,10.1445138 C60.4848175,10.6519159 61.5756281,11.319871 62.5462591,12.1727589 C63.51689,13.0256468 64.3238099,14.0483103 64.9310544,15.2635251 C65.5564437,16.4658283 65.86328,17.7423132 65.86328,19.0971498 L65.86328,45.7285836 C63.983369,44.5835405 61.9640757,43.6818933 59.8050748,43.0225191 C57.6478639,42.3657915 55.355746,42.0424399 52.9362069,42.0424399 L52.3707039,42.0424399 C53.3521567,41.6897365 54.1482547,41.1136863 54.7739696,40.313327 C55.3777966,39.5057501 55.7061951,38.5974465 55.7061951,37.597238 C55.7061951,36.2986992 55.2119699,35.1987265 54.204805,34.2917061 C53.2104148,33.3848461 52.0234281,32.9379922 50.6248863,32.9379922 L15.2680928,32.9379922 C13.8709342,32.9379922 12.6755666,33.3838036 11.6765385,34.2917061 C10.6736047,35.1985661 10.1775894,36.2989398 10.1775894,37.597238 C10.1775894,38.9075657 10.6718146,40.0239787 11.6765385,40.9480809 C12.6794723,41.8768345 13.8827325,42.3353971 15.2680928,42.3353971 L49.1548226,42.3353971 C45.9218541,42.8425586 42.9863647,43.9004282 40.3574673,45.5308194 C37.711076,47.1653007 35.5244916,49.2296341 33.7986903,51.7337643 L15.2773686,51.7337643 C13.8802101,51.7337643 12.6848425,52.1894397 11.6858143,53.0987858 C10.6828805,54.0054854 10.1868652,55.0993632 10.1868652,56.4043178 C10.1868652,57.7049417 10.6810905,58.8233596 11.6858143,59.7481836 C12.6887482,60.6769371 13.8920084,61.1354997 15.2773686,61.1354997 L30.1471683,61.1356601 L30.0928963,61.1796077 Z" id="Shape"></path>
                    </g>
                </g>
            </g>
        </g>
    </g>
</svg>