<?xml version="1.0" encoding="UTF-8"?>
<svg width="202px" height="202px" viewBox="0 0 202 202" version="1.1" xmlns="http://www.w3.org/2000/svg" xmlns:xlink="http://www.w3.org/1999/xlink">
    <!-- Generator: Sketch 49.2 (51160) - http://www.bohemiancoding.com/sketch -->
    <title>36</title>
    <desc>Created with Sketch.</desc>
    <defs></defs>
    <g id="Page-1" stroke="none" stroke-width="1" fill="none" fill-rule="evenodd">
        <g id="猩租客PC端官网" transform="translate(-1259.000000, -6995.000000)">
            <g id="Group-61" transform="translate(1259.000000, 6995.000000)">
                <g id="Group-62" transform="translate(1.000000, 1.000000)">
                    <g id="Group-5-Copy-3">
                        <circle id="Oval-3-Copy-5" fill-opacity="0.1" fill="#000000" cx="100" cy="100" r="100"></circle>
                        <circle id="Oval-3" stroke="#6F6F6F" stroke-width="2" cx="100" cy="100" r="100"></circle>
                    </g>
                    <g id="Page-1" transform="translate(50.000000, 60.000000)" fill="#FFFFFF" fill-opacity="0.7">
                        <path d="M99.8736166,2.53899348 C99.626986,1.64849794 99.0465919,0.907236496 98.240735,0.451679791 C97.4353703,-0.00387691349 96.4990601,-0.120220598 95.6045934,0.127193819 L2.5332906,25.9785641 C1.33361237,26.3207225 0.399763541,27.2833806 0.0945520098,28.4998348 C-0.195398945,29.7133436 0.192515066,30.9955787 1.10716511,31.847293 L13.0453665,42.9519786 C14.4454013,44.2435407 16.6444012,44.1630329 17.9297355,42.7914537 L17.9740404,42.7443272 C19.2519906,41.3506575 19.1648577,39.1784178 17.7756529,37.8912737 L10.3624587,30.9921424 L88.0958975,9.38952561 L47.917753,66.2855144 L38.8313104,57.730081 C37.4598276,56.5435717 35.4439547,56.5990436 34.1408983,57.8606608 C33.4763248,58.5042328 33.1021946,59.3677288 33.0884108,60.2916056 C33.0751194,61.2154825 33.423159,62.0897783 34.0916707,62.7750769 L46.0672851,74.0481418 C46.713152,74.6622597 47.5603602,75 48.45335,75 C48.572481,75 48.6975193,74.9975455 48.812712,74.9808548 C49.8085877,74.8782564 50.7104385,74.3534826 51.2903405,73.5366223 L99.367064,5.45298551 C99.9666569,4.6032348 100.151261,3.5414146 99.8736166,2.53899348" id="Fill-1"></path>
                        <path d="M25.594786,64.5836009 L22.9977197,67.1537033 L22.9977197,52.6137463 L41.2139508,42.4933219 C42.8972989,41.5570387 43.4975009,39.4378487 42.551984,37.7700634 C41.6069639,36.1022781 39.4679989,35.5071328 37.7851476,36.443416 L17.7852036,47.5459041 C16.6841707,48.1622167 16,49.3214948 16,50.5713493 L16,75.5320108 C16.003478,77.4375589 17.5705618,78.9931083 19.4938913,79 L19.4943882,79 L19.5063127,79 C20.436924,79 21.3123842,78.6431097 21.9746932,77.9908619 L30.5514213,69.4845662 C31.2117429,68.8283803 31.5749446,67.9570757 31.5739509,67.0306377 C31.5724604,66.1041997 31.2072712,65.2333874 30.545459,64.5791705 C29.1786082,63.22791 26.9576619,63.2308636 25.594786,64.5836009" id="Fill-4"></path>
                        <path d="M50.2917991,36 C50.2955439,36 50.2992887,35.9995025 50.3063102,36 C50.8680283,36 51.4250655,35.8457823 51.9175051,35.5537636 L65.3154189,27.5692659 C66.9022726,26.6225682 67.4686717,24.4804344 66.5788166,22.7934917 C66.1472298,21.9766353 65.4422736,21.3866282 64.5936111,21.1329151 C63.7449486,20.8787047 62.8546253,20.9916318 62.0850715,21.4503051 L48.674519,29.4397775 C47.0942186,30.3869728 46.5339048,32.5231368 47.4209514,34.1956528 C47.9971805,35.3095026 49.0962757,36 50.2917991,36" id="Fill-6"></path>
                    </g>
                </g>
            </g>
        </g>
    </g>
</svg>