<?xml version="1.0" encoding="UTF-8"?>
<svg width="202px" height="202px" viewBox="0 0 202 202" version="1.1" xmlns="http://www.w3.org/2000/svg" xmlns:xlink="http://www.w3.org/1999/xlink">
    <!-- Generator: Sketch 49.2 (51160) - http://www.bohemiancoding.com/sketch -->
    <title>37</title>
    <desc>Created with Sketch.</desc>
    <defs></defs>
    <g id="Page-1" stroke="none" stroke-width="1" fill="none" fill-rule="evenodd">
        <g id="猩租客PC端官网" transform="translate(-1529.000000, -6995.000000)">
            <g id="Group-63" transform="translate(1529.000000, 6995.000000)">
                <g id="Group-64" transform="translate(1.000000, 1.000000)">
                    <g id="Group-5-Copy-4">
                        <circle id="Oval-3-Copy-5" fill-opacity="0.1" fill="#000000" cx="100" cy="100" r="100"></circle>
                        <circle id="Oval-3" stroke="#6F6F6F" stroke-width="2" cx="100" cy="100" r="100"></circle>
                    </g>
                    <g id="Page-1" transform="translate(50.000000, 52.000000)" fill="#FFFFFF" fill-opacity="0.7">
                        <path d="M94.7246893,27.9357566 L58.8241243,3.27380063 C52.130904,-1.98615535 45.2207345,0.944687421 42.1727119,3.51897044 L4.01225989,29.4202094 C0.911694915,31.4750459 -0.464011299,33.8573352 0.138813559,36.1271151 C0.703220339,38.2664736 2.63711864,39.4660145 5.83372881,39.6865553 C5.93259887,39.7027881 6.04107345,39.711744 6.11338983,39.705027 L14.4540678,39.7151025 L14.4540678,78.3713289 C14.4540678,84.231895 19.0388136,88.9998321 24.6744068,88.9998321 L51.610565,88.9998321 L51.6241243,82.5347377 L24.6851412,82.5347377 C22.629774,82.5347377 20.9580226,80.6668572 20.9580226,78.3713289 L20.9580226,36.8928509 C20.9580226,36.7713855 20.9342938,36.6689516 20.9133898,36.5933855 L20.9133898,36.4775176 C20.9133898,34.6919201 19.4574576,33.239373 17.6676271,33.239373 L9.93146893,33.230417 L45.9614124,8.75709623 C46.0670621,8.69160566 46.1744068,8.60372516 46.2834463,8.51080692 C46.7150847,8.14361195 50.6235593,5.02525346 54.830904,8.37926604 L54.9150847,8.44027862 C54.9580226,8.47274403 55.0009605,8.50464969 55.0173446,8.51304591 L90.9359887,33.1912346 C91.1512429,33.3468447 91.3800565,33.5259642 91.6116949,33.7207566 L83.2461582,33.753222 C83.2246893,33.753222 83.2043503,33.7543415 83.1857062,33.7560208 L83.1026554,33.753222 C81.3128249,33.753222 79.8563277,35.2057692 79.8563277,36.9919264 L79.8670621,78.3494987 C79.8670621,80.645027 78.1947458,82.5123478 76.1393785,82.5123478 L62.5009605,82.5123478 C60.7111299,82.5123478 59.2546328,83.964895 59.2546328,85.7510522 C59.2546328,87.5299327 60.7111299,88.9780019 62.5009605,88.9780019 L76.1393785,88.9780019 C81.7749718,88.9780019 86.3597175,84.2100648 86.3597175,78.3494987 L86.3489831,40.2060019 L91.7478531,40.1864107 C93.5472881,40.2199956 98.3382486,40.3151528 99.6043503,36.6252912 C100.839379,33.0384233 97.0772316,29.6413101 94.7246893,27.9357566" id="Fill-1"></path>
                        <path d="M76,36.6543644 L76,39.8943018 C76,40.7842777 75.6748268,41.5349676 75.0346598,42.1569997 C74.3950582,42.768963 73.6253874,43.0799791 72.7250818,43.0799791 L66.2289698,43.0799791 C65.3292297,43.0799791 64.5697382,42.768963 63.9408816,42.1569997 C63.3227697,41.5461552 63.0077759,40.7842777 63.0077759,39.8943018 L63.0077759,36.6543644 L36.9916586,36.6543644 L36.9916586,39.8943018 C36.9916586,40.7842777 36.6772303,41.5349676 36.059684,42.1569997 C35.4410066,42.768963 34.6713358,43.0799791 33.7710302,43.0799791 L27.2749182,43.0799791 C26.3751781,43.0799791 25.6049418,42.768963 24.9653402,42.1569997 C24.3257387,41.5461552 24,40.7842777 24,39.8943018 L24,36.5581508 C24,36.1503617 24.1085796,35.7962733 24.3144283,35.5065137 C24.5208426,35.2167541 24.7809812,34.9488104 25.0954095,34.7127514 C25.4098378,34.4766924 25.7570663,34.2624493 26.1365292,34.0689034 C26.5159922,33.8759168 26.8954552,33.6616737 27.2749182,33.4256147 C27.6549467,33.2219999 28.5117073,32.7711384 29.8452002,32.0629615 C31.1792585,31.3659722 32.8599798,30.6365388 34.8879294,29.8746613 C36.9158791,29.1239714 39.2152777,28.4482386 41.7963046,27.8687194 C44.3773314,27.2897596 47.1206621,27 50.0274277,27 C53.3566356,27 56.3171254,27.2897596 58.9303868,27.8687194 C61.5442138,28.4482386 63.8102468,29.1239714 65.7409272,29.8746613 C67.6602973,30.6259105 69.20077,31.355344 70.3606486,32.0629615 C71.5210928,32.7605102 72.3128188,33.2219999 72.7250818,33.4256147 C73.1373449,33.6616737 73.5377321,33.8759168 73.9177605,34.0689034 C74.2972235,34.2624493 74.6444519,34.4766924 74.9588803,34.7127514 C75.2733086,34.9488104 75.5227023,35.2167541 75.7070614,35.5065137 C75.9021653,35.7962733 75.9886896,36.1503617 75.9886896,36.5581508 L75.9886896,36.6543644 L76,36.6543644 Z M49.9838827,62.3557044 C50.8841883,62.3557044 51.7296386,62.1845337 52.5321095,61.8410735 C53.3238355,61.4976133 54.0182924,61.036683 54.6149145,60.4577232 C55.2002262,59.878204 55.6662135,59.1812147 56.0134419,58.3762648 C56.3601048,57.5718743 56.533719,56.7244114 56.533719,55.8338761 C56.533719,54.9433409 56.3601048,54.1070656 56.0134419,53.3133033 C55.6662135,52.5301693 55.2002262,51.8432489 54.6149145,51.2536608 C54.0284717,50.6741417 53.3345804,50.2132113 52.5321095,49.8697511 C51.740949,49.5268503 50.8841883,49.3551202 49.9838827,49.3551202 C49.0835771,49.3551202 48.2268165,49.5268503 47.4136007,49.8697511 C46.600385,50.2132113 45.8957488,50.6741417 45.3098716,51.2536608 C44.7239943,51.83318 44.258007,52.5195411 43.9107786,53.3133033 C43.5641157,54.0964374 43.3899359,54.9433409 43.3899359,55.8338761 C43.3899359,56.7244114 43.5641157,57.5718743 43.9107786,58.3762648 C44.258007,59.1812147 44.7239943,59.878204 45.3098716,60.4577232 C45.8957488,61.036683 46.600385,61.4976133 47.4136007,61.8410735 C48.2268165,62.1845337 49.0835771,62.3557044 49.9838827,62.3557044 Z M59.7441681,42.8763643 C60.470294,43.733896 61.2512751,44.6031748 62.0859806,45.4937101 C62.7804374,46.2762847 63.5501082,47.1556323 64.396124,48.1104965 C65.2421398,49.0653606 66.1203902,50.0420406 67.0206958,51.0394177 C68.1596502,52.3371827 69.1029353,53.5062899 69.8511164,54.5361112 C70.5992975,55.5659324 71.1846092,56.5096089 71.6189275,57.3576312 C72.0526802,58.2157223 72.3450533,58.998297 72.4971778,59.7171022 C72.6487368,60.4359073 72.7358267,61.1547125 72.7358267,61.8735176 L72.7358267,65.2096686 C72.7358267,66.2394898 72.5622125,67.1619099 72.2155496,67.9881163 C71.8677557,68.8137633 71.3910235,69.5219402 70.7836565,70.1221565 C70.1762895,70.7229322 69.4823982,71.1844218 68.7019826,71.5060662 C67.9210014,71.8277105 67.0964753,72 66.2289698,72 L34.1832933,72 C33.2507531,72 32.3611924,71.8495264 31.5044317,71.5379509 C30.6589814,71.2274942 29.9102348,70.7978893 29.2706333,70.2295577 C28.6310317,69.6612262 28.120934,68.9854934 27.741471,68.2018 C27.362008,67.4192253 27.1669041,66.5286901 27.1669041,65.5313129 L27.1669041,61.5731298 C27.1669041,60.7469234 27.2426836,59.9637894 27.405553,59.2130995 C27.5571119,58.4618502 27.8500506,57.6680879 28.2617481,56.8530691 C28.6740112,56.0274221 29.2491436,55.1480745 29.9752694,54.2032792 C30.7019608,53.2596027 31.6237561,52.2297815 32.7299105,51.0931184 C33.6302161,50.1376949 34.5520114,49.1615742 35.5066068,48.1854536 C36.4606366,47.209333 37.3173973,46.3299853 38.0763233,45.5362231 C38.9766289,44.613803 39.8441344,43.7232678 40.6788398,42.8651766 L59.7441681,42.8651766 L59.7441681,42.8763643 Z" id="Fill-4"></path>
                    </g>
                </g>
            </g>
        </g>
    </g>
</svg>