<?xml version="1.0" encoding="UTF-8"?>
<svg width="67px" height="67px" viewBox="0 0 67 67" version="1.1" xmlns="http://www.w3.org/2000/svg" xmlns:xlink="http://www.w3.org/1999/xlink">
    <!-- Generator: Sketch 49.2 (51160) - http://www.bohemiancoding.com/sketch -->
    <title>4</title>
    <desc>Created with Sketch.</desc>
    <defs></defs>
    <g id="Page-1" stroke="none" stroke-width="1" fill="none" fill-rule="evenodd">
        <g id="猩租客PC端官网" transform="translate(-1645.000000, -1349.000000)" fill-rule="nonzero">
            <g id="房屋" transform="translate(1645.000000, 1349.000000)">
                <g id="Group-14" transform="translate(1.000000, 5.000000)">
                    <path d="M64.3501974,54.3746945 L57.0168477,54.3746945 L57.0168477,24.8310264 C57.0168477,22.1123573 54.8168649,19.9374658 52.0669233,19.9374658 L42.166927,19.9374658 L42.166927,5.25627348 C42.166927,2.356175 39.6001328,0 36.4835274,0 L11.9166103,0 C8.9834475,0 7.33342352,2.356175 7.33342352,5.25627348 L7.33342352,54.3747675 L1.8331714,54.3747675 C0.733327594,54.3747675 0,55.2808203 0,56.1871649 C0,57.0935095 0.733327594,58 1.65002398,58 L64.3501974,58 C65.2669676,58 66,57.0935095 66,56.1871649 C66,55.2808203 65.2669676,54.3746945 64.3501974,54.3746945 Z M51.8832593,23.5621877 C52.6170297,23.5621877 53.1666933,24.1060382 53.1666933,24.8310264 L53.1666933,54.3746945 L42.166927,54.3746945 L42.166927,23.5621877 L51.8832593,23.5621877 Z M11.0002091,5.25627348 C11.0002091,4.34992887 11.0002091,3.62508663 11.9166103,3.62508663 L36.4835274,3.62508663 C37.5832975,3.62508663 38.5000676,4.35000182 38.5000676,5.25627348 L38.5000676,54.3747675 L11.0002091,54.3747675 L11.0002091,5.25627348 Z" id="Shape" fill="#FFFFFF"></path>
                    <path d="M21.4661443,15.4001181 L18.7297069,15.4001181 C18.3648534,15.4001181 18,15.0334539 18,14.6667897 L18,11.7333284 C18,11.366738 18.36478,11 18.7297069,11 L21.4661443,11 C21.8309243,11 22.1960715,11.366738 22.1960715,11.7333284 L22.1960715,14.4833469 C22.3782412,15.0334539 22.0135346,15.4001181 21.4661443,15.4001181 Z M21.4661443,24.200059 L18.7297069,24.200059 C18.3648534,24.200059 18,23.8333948 18,23.4668044 L18,20.7165646 C18,20.3499004 18.36478,19.98331 18.7297069,19.98331 L21.4661443,19.98331 C21.8309243,19.98331 22.1960715,20.3499004 22.1960715,20.7165646 L22.1960715,23.4668044 C22.3782412,23.8334686 22.0135346,24.200059 21.4661443,24.200059 Z M21.4661443,33 L18.7297069,33 C18.3648534,33 18,32.6335572 18,32.266893 L18,29.5165056 C18,29.1498414 18.36478,28.7831771 18.7297069,28.7831771 L21.4661443,28.7831771 C21.8309243,28.7831771 22.1960715,29.1498414 22.1960715,29.5165056 L22.1960715,32.266893 C22.3782412,32.6335572 22.0135346,33 21.4661443,33 Z M30.2226267,15.4001181 L27.4861893,15.4001181 C27.1214092,15.4001181 26.7566292,15.0334539 26.7566292,14.6667897 L26.7566292,11.7333284 C26.7566292,11.366738 27.1213358,11 27.4861893,11 L30.2226267,11 C30.5874801,11 30.9526273,11.366738 30.9526273,11.7333284 L30.9526273,14.4833469 C31.1348704,15.0334539 30.770017,15.4001181 30.2226267,15.4001181 Z M30.2226267,24.200059 L27.4861893,24.200059 C27.1214092,24.200059 26.7566292,23.8333948 26.7566292,23.4668044 L26.7566292,20.7165646 C26.7566292,20.3499004 27.1213358,19.98331 27.4861893,19.98331 L30.2226267,19.98331 C30.5874801,19.98331 30.9526273,20.3499004 30.9526273,20.7165646 L30.9526273,23.4668044 C31.1348704,23.8334686 30.770017,24.200059 30.2226267,24.200059 Z M30.2226267,33 L27.4861893,33 C27.1214092,33 26.7566292,32.6335572 26.7566292,32.266893 L26.7566292,29.5165056 C26.7566292,29.1498414 27.1213358,28.7831771 27.4861893,28.7831771 L30.2226267,28.7831771 C30.5874801,28.7831771 30.9526273,29.1498414 30.9526273,29.5165056 L30.9526273,32.266893 C31.1348704,32.6335572 30.770017,33 30.2226267,33 Z" id="Shape" fill="#FF9A20"></path>
                </g>
            </g>
        </g>
    </g>
</svg>