<?xml version="1.0" encoding="UTF-8"?>
<svg width="67px" height="67px" viewBox="0 0 67 67" version="1.1" xmlns="http://www.w3.org/2000/svg" xmlns:xlink="http://www.w3.org/1999/xlink">
    <!-- Generator: Sketch 49.2 (51160) - http://www.bohemiancoding.com/sketch -->
    <title>5</title>
    <desc>Created with Sketch.</desc>
    <defs></defs>
    <g id="Page-1" stroke="none" stroke-width="1" fill="none" fill-rule="evenodd">
        <g id="猩租客PC端官网" transform="translate(-1166.000000, -1349.000000)">
            <g id="角色管理" transform="translate(1166.000000, 1349.000000)">
                <g id="Group-15" transform="translate(5.000000, 0.000000)">
                    <path d="M16.7197713,67 L16.7197713,46.8470821 L18.7777185,46.8470821 C20.6802697,46.8470821 22.2132304,45.3141415 22.2132304,43.4137153 L22.2132304,29.1174701 C22.2132304,27.2170438 20.6802697,25.6841033 18.7777185,25.6841033 L7.8348991,25.6841033 C5.93654778,25.6841033 4.40358709,27.2170438 4.40358709,29.1174701 L4.40358709,43.4137153 C4.40358709,45.3120416 5.93654778,46.8470821 7.8348991,46.8470821 L9.89494628,46.8470821 L9.89494628,67 L5.45146022,67 L5.45146022,50.8894252 C2.21288834,49.8330306 0.0158255176,46.820149 0,43.4137153 L0,29.1174701 C0.00347395872,24.7918715 3.50924359,21.286148 7.8348991,21.2826741 L18.7777185,21.2826741 C23.1015076,21.2826741 26.6567165,24.7937379 26.6567165,29.1174701 L26.6567165,43.4137153 C26.6395866,46.8197204 24.4430213,49.8319197 21.2052563,50.8894252 L21.2052563,67 L16.7197713,67 Z M36.0245763,59.2051025 L36.0245763,58.8397167 C35.6504054,58.6034913 35.3652885,58.2496851 35.2139971,57.8338557 C35.0905815,57.53679 35.0106606,57.2234761 34.9767031,56.9035918 L34.9767031,35.8225099 L31.782685,35.8225099 C31.1956763,35.7933511 30.6446014,35.5310459 30.2518243,35.0938381 C29.8550081,34.6688455 29.6506973,34.0992132 29.6869388,33.5188993 C29.7208322,32.375449 30.6392542,31.4561187 31.782685,31.4210807 L34.9767031,31.4210807 L34.9767031,10.2980004 C34.9767031,9.85281765 35.0964001,9.41183476 35.3777929,9.04644894 C35.8250814,8.39967404 36.5075639,7.99648969 37.2383452,7.99648969 L42.8935001,7.99648969 C43.5381836,7.99648969 44.0610702,8.27997869 44.4663598,8.68316304 C44.8716494,9.08844731 45.0690444,9.69322385 45.0690444,10.2602018 C45.0330499,11.4259461 44.0970229,12.3628803 42.9312992,12.4000188 L39.4159893,12.4000188 L39.4159893,31.3832821 L42.9333991,31.3832821 C44.1429681,31.3832821 45.1509423,32.391243 45.1509423,33.6049959 C45.1509423,34.814549 44.1450681,35.8267097 42.9333991,35.8267097 L39.4159893,35.8267097 L39.4159893,54.7679747 L42.8935001,54.7679747 C44.1009692,54.7679747 45.1110433,55.7801354 45.1110433,56.9896885 C45.1110433,58.2034414 44.1030691,59.2114022 42.8935001,59.2114022 L36.0245763,59.2114022 L36.0245763,59.2051025 Z M13.2863593,18.1726948 C8.27044077,18.1669088 4.20567835,14.1021999 4.19989231,9.0863474 C4.2068325,4.07097379 8.27091969,0.00694010258 13.2863593,0 C18.3014578,0.00694270002 22.3649427,4.0713135 22.3707264,9.0863474 C22.3329273,14.1345515 18.2968308,18.1726948 13.2863593,18.1726948 Z M13.2863593,4.48542594 C10.7433245,4.48542594 8.64127842,6.58534445 8.64127842,9.12834577 C8.64127842,11.673447 10.7412246,13.7733655 13.2863593,13.7733655 C15.8314941,13.7733655 17.9314402,11.673447 17.9314402,9.12834577 C17.9314402,6.58324453 15.8314941,4.48542594 13.2863593,4.48542594 Z" id="Shape" fill="#FFFFFF" fill-rule="nonzero"></path>
                    <path d="M52.6246506,61.2252241 C50.2819188,61.2252241 48.3827594,59.3260897 48.3827594,56.9833887 C48.3827594,54.6406877 50.2819188,52.7415533 52.6246506,52.7415533 C54.9673825,52.7415533 56.8665419,54.6406877 56.8665419,56.9833887 C56.8665419,59.3260897 54.9673825,61.2252241 52.6246506,61.2252241 Z" id="Path" fill="#FF9A20"></path>
                    <path d="M52.6246506,37.8426315 C50.280759,37.8414717 48.3815996,35.940457 48.3827594,33.5965963 C48.3839192,31.2527355 50.2849589,29.3536011 52.6288505,29.3547609 C54.9727421,29.3559206 56.8719015,31.2569353 56.8707417,33.6007961 C56.869582,35.9446568 54.9685422,37.8437912 52.6246506,37.8426315 Z" id="Path" fill="#FF9A20"></path>
                    <path d="M52.6246506,14.4579389 C51.0780979,14.50662 49.6277273,13.709347 48.8400553,12.3775357 C48.0523832,11.0457244 48.0523832,9.39068253 48.8400553,8.05887125 C49.6277273,6.72705998 51.0780979,5.92978699 52.6246506,5.978468 C54.1712033,5.92978699 55.6215739,6.72705998 56.409246,8.05887125 C57.196918,9.39068253 57.196918,11.0457244 56.409246,12.3775357 C55.6215739,13.709347 54.1712033,14.50662 52.6246506,14.4579389 Z" id="Path" fill="#FF9A20"></path>
                </g>
            </g>
        </g>
    </g>
</svg>