<?xml version="1.0" encoding="UTF-8"?>
<svg width="67px" height="67px" viewBox="0 0 67 67" version="1.1" xmlns="http://www.w3.org/2000/svg" xmlns:xlink="http://www.w3.org/1999/xlink">
    <!-- Generator: Sketch 49.2 (51160) - http://www.bohemiancoding.com/sketch -->
    <title>6</title>
    <desc>Created with Sketch.</desc>
    <defs></defs>
    <g id="Page-1" stroke="none" stroke-width="1" fill="none" fill-rule="evenodd">
        <g id="猩租客PC端官网" transform="translate(-682.000000, -1346.000000)">
            <g id="时间-" transform="translate(682.000000, 1346.000000)">
                <g id="Group-16" transform="translate(3.000000, 4.000000)">
                    <path d="M30.5,31.1320754 C31.2393939,31.1320754 32.1682576,31.1320754 32.7228031,30.5822102 C33.2773485,30.0323449 34.1923485,28.5660377 34.1969698,27.4663072 C34.201591,26.1832884 31.9399698,26 30.5000001,26 C29.0600304,26 26.7984092,26.1832884 26.8030304,27.4663072 C26.8076516,28.5660377 27.7226516,30.032345 28.2771971,30.5822102 C28.8317424,31.1320754 29.7606061,31.1320754 30.5,31.1320754 Z M61,60 L50.8333333,60 L47.5984848,46.2533692 L46.6742424,60 L30.5,60 L14.3257576,60 L13.4015152,46.2533692 L10.1666667,60 L0,60 L5.82087875,34.2177358 C6.49003025,31.2548787 8.93095448,29.0077628 11.9606212,28.5660377 L22.6439393,27.0080862 L28.0017727,39.1958491 L28.6219394,33.1161725 C28.6385757,32.926469 28.7984697,32.7816711 28.9897879,32.7816711 L32.0129848,32.7816711 C32.2033788,32.7816711 32.3623485,32.9246361 32.3808333,33.1125067 L33.0638485,39.0455525 L38.3551364,27.0090027 L49.0384546,28.5669541 C52.0681213,29.0086792 54.5090455,31.2557951 55.178197,34.2186523 L61,60 Z M44.3636364,43.5040431 L42.5151515,39.8382749 L36.9696969,43.5040431 L44.3636364,43.5040431 Z" id="Shape" fill="#FFFFFF" fill-rule="nonzero"></path>
                    <path d="M31,0 C37.6276923,0 43,5.14846157 43,11.5 C43,17.8515384 37.6276923,23 31,23 C24.3723077,23 19,17.8515384 19,11.5 C19,5.14846157 24.3723077,0 31,0 Z M36.2015385,13.0480769 C36.9658462,13.0480769 37.5861539,12.4536154 37.5861539,11.7211538 C37.5861539,10.9886923 36.9658462,10.3942307 36.2015385,10.3942307 L32.5092308,10.3942307 L32.5092308,4.20192305 C32.5092308,3.46946151 31.8889231,2.87499994 31.1246154,2.87499994 C30.3603077,2.87499994 29.74,3.46946151 29.74,4.20192305 L29.7400001,10.8365385 C29.7400001,12.0564231 30.7747692,13.0480769 32.0476923,13.0480769 L36.2015385,13.0480769 Z" id="Combined-Shape" fill="#FF9A20"></path>
                </g>
            </g>
        </g>
    </g>
</svg>