<svg xmlns="http://www.w3.org/2000/svg" width="56" height="56" viewBox="0 0 56 56">
  <g fill="none" fill-rule="evenodd">
    <circle cx="28" cy="28" r="28" fill="#000"/>
    <g fill-rule="nonzero" transform="translate(18 18)">
      <path fill="#FFF" d="M0.350292614,17.9179654 C-0.116771378,18.394015 -0.116771378,19.1657456 0.350335654,19.6417733 C0.817399646,20.117801 1.5747757,20.117801 2.04179667,19.6418171 L2.04183971,19.6417733 L9.6043691,11.9348828 C10.098672,11.431096 10.9001769,11.431096 11.3945444,11.9348828 L18.9581496,19.6429573 C19.4252781,20.1190069 20.1825681,20.1190069 20.6496536,19.6430012 C21.1167821,19.1669735 21.1167821,18.3951771 20.6496536,17.9191494 C20.6492663,17.9187986 20.6489005,17.9184478 20.6484702,17.9180093 L12.8862316,10.0075517 C11.5680044,8.66414942 9.43069391,8.66414942 8.11242365,10.0075517 L0.350335633,17.9179654 L0.350292614,17.9179654 Z"/>
      <path fill="#FF9A20" d="M19.833366,3.59835363e-05 L19.833324,3.59835363e-05 L19.833324,0 L1.16655007,0 L1.16655007,3.59835363e-05 C0.522214002,7.19670726e-05 0,0.44774831 0,1.00002698 C0,1.55223371 0.522214002,1.99996402 1.16655007,2 L19.833345,2 L19.833387,2 C20.4776811,2 21,1.55226969 21,1.00002698 C20.999979,0.447712327 20.4776811,3.59835363e-05 19.833366,3.59835363e-05 Z"/>
    </g>
  </g>
</svg>
