<?xml version="1.0" encoding="UTF-8"?>
<svg width="10px" height="620px" viewBox="0 0 10 620" version="1.1" xmlns="http://www.w3.org/2000/svg" xmlns:xlink="http://www.w3.org/1999/xlink">
    <!-- Generator: Sketch 49.2 (51160) - http://www.bohemiancoding.com/sketch -->
    <title>Group 90</title>
    <desc>Created with Sketch.</desc>
    <defs></defs>
    <g id="Page-1" stroke="none" stroke-width="1" fill="none" fill-rule="evenodd">
        <g id="猩租客PC端官网" transform="translate(-174.000000, -378.000000)">
            <g id="Group-89" transform="translate(171.000000, 378.000000)">
                <g id="Group-90" transform="translate(3.000000, 0.000000)">
                    <path d="M-27.756,519.764 C-26.796,519.764 -26.028,519.98 -25.476,520.424 C-24.9,520.88 -24.576,521.564 -24.492,522.464 L-25.464,522.464 C-25.572,521.84 -25.812,521.384 -26.184,521.084 C-26.568,520.772 -27.108,520.628 -27.804,520.628 C-28.44,520.628 -28.932,520.724 -29.292,520.94 C-29.7,521.18 -29.904,521.54 -29.904,522.032 C-29.904,522.464 -29.664,522.812 -29.172,523.076 C-28.956,523.196 -28.428,523.376 -27.6,523.616 C-26.472,523.952 -25.728,524.228 -25.368,524.444 C-24.66,524.876 -24.3,525.476 -24.3,526.256 C-24.3,527 -24.6,527.6 -25.2,528.032 C-25.8,528.452 -26.604,528.668 -27.624,528.668 C-28.632,528.668 -29.424,528.452 -30,528.02 C-30.672,527.504 -31.044,526.724 -31.116,525.668 L-30.144,525.668 C-30.06,526.412 -29.796,526.964 -29.364,527.312 C-28.968,527.624 -28.392,527.792 -27.624,527.792 C-26.928,527.792 -26.352,527.66 -25.92,527.396 C-25.488,527.132 -25.272,526.772 -25.272,526.316 C-25.272,525.776 -25.56,525.356 -26.124,525.056 C-26.364,524.912 -26.976,524.708 -27.936,524.432 C-28.968,524.12 -29.628,523.88 -29.904,523.736 C-30.564,523.352 -30.888,522.8 -30.888,522.08 C-30.888,521.336 -30.576,520.748 -29.94,520.34 C-29.376,519.956 -28.644,519.764 -27.756,519.764 Z M-21.542,519.932 L-15.47,519.932 L-15.47,520.784 L-20.558,520.784 L-20.558,523.652 L-15.758,523.652 L-15.758,524.504 L-20.558,524.504 L-20.558,527.648 L-15.266,527.648 L-15.266,528.5 L-21.542,528.5 L-21.542,519.932 Z M-12.388,519.932 L-6.31600002,519.932 L-6.31600002,520.784 L-11.404,520.784 L-11.404,523.652 L-6.60400002,523.652 L-6.60400002,524.504 L-11.404,524.504 L-11.404,527.648 L-6.11200002,527.648 L-6.11200002,528.5 L-12.388,528.5 L-12.388,519.932 Z M2.27199996,519.932 L3.49599996,519.932 L6.68799996,527.24 L6.72399996,527.24 L9.90399996,519.932 L11.128,519.932 L11.128,528.5 L10.144,528.5 L10.144,521.684 L10.108,521.684 L7.14399996,528.5 L6.25599996,528.5 L3.29199996,521.684 L3.25599996,521.684 L3.25599996,528.5 L2.27199996,528.5 L2.27199996,519.932 Z M18.11,519.764 C19.382,519.764 20.402,520.184 21.146,521.048 C21.842,521.864 22.202,522.92 22.202,524.228 C22.202,525.524 21.842,526.568 21.146,527.384 C20.402,528.236 19.382,528.668 18.098,528.668 C16.814,528.668 15.806,528.236 15.062,527.384 C14.354,526.568 14.006,525.512 14.006,524.228 C14.006,522.932 14.354,521.876 15.062,521.06 C15.806,520.196 16.814,519.764 18.11,519.764 Z M18.11,520.64 C17.126,520.64 16.346,520.976 15.782,521.66 C15.254,522.308 14.99,523.16 14.99,524.228 C14.99,525.284 15.254,526.136 15.782,526.784 C16.334,527.456 17.114,527.792 18.098,527.792 C19.082,527.792 19.862,527.456 20.414,526.808 C20.942,526.16 21.218,525.308 21.218,524.228 C21.218,523.136 20.942,522.272 20.414,521.624 C19.862,520.964 19.094,520.64 18.11,520.64 Z M25.0799999,519.932 L28.7759999,519.932 C29.6279999,519.932 30.2999999,520.124 30.7919999,520.52 C31.2959999,520.928 31.5599999,521.528 31.5599999,522.32 C31.5599999,522.8 31.4279999,523.22 31.1639999,523.592 C30.8759999,523.976 30.4919999,524.216 29.9999999,524.336 L29.9999999,524.36 C30.8159999,524.54 31.2719999,525.056 31.3679999,525.92 L31.4999999,527.24 C31.5479999,527.768 31.7039999,528.188 31.9559999,528.5 L30.8879999,528.5 C30.6959999,528.212 30.5759999,527.84 30.5399999,527.36 L30.4319999,526.22 C30.3839999,525.716 30.2039999,525.344 29.8919999,525.128 C29.6039999,524.912 29.1959999,524.816 28.6559999,524.816 L26.0639999,524.816 L26.0639999,528.5 L25.0799999,528.5 L25.0799999,519.932 Z M26.0639999,520.784 L26.0639999,523.964 L28.6559999,523.964 C29.2799999,523.964 29.7719999,523.808 30.1079999,523.52 C30.4079999,523.244 30.5639999,522.86 30.5639999,522.356 C30.5639999,521.828 30.4079999,521.432 30.1199999,521.18 C29.8079999,520.916 29.3159999,520.784 28.6559999,520.784 L26.0639999,520.784 Z M34.7019999,519.932 L40.7739999,519.932 L40.7739999,520.784 L35.6859999,520.784 L35.6859999,523.652 L40.4859999,523.652 L40.4859999,524.504 L35.6859999,524.504 L35.6859999,527.648 L40.9779999,527.648 L40.9779999,528.5 L34.7019999,528.5 L34.7019999,519.932 Z" id="SEE-MORE" fill="#FF9A20" transform="translate(4.931000, 524.216000) rotate(-90.000000) translate(-4.931000, -524.216000) "></path>
                    <path d="M5,0.983313753 L5,472.216092" id="Path-5" stroke="#FFFFFF"></path>
                    <path d="M4,575.502481 L4,612.216092" id="Path-5-Copy" stroke="#FFFFFF"></path>
                    <polygon id="Triangle" fill="#FFFFFF" points="4 620 0 612 8 612"></polygon>
                </g>
            </g>
        </g>
    </g>
</svg>